<svg width="192" height="205" viewBox="0 0 192 205" fill="none" xmlns="http://www.w3.org/2000/svg">
<path d="M155.867 3.05829C148.23 2.48488 140.783 3.24943 133.146 4.39624C127.99 5.16078 123.026 5.92533 117.87 6.68987C111.76 7.83668 105.841 9.55691 100.113 12.0417C85.9836 18.3491 72.045 25.4212 59.0611 33.8311C41.3037 45.4904 26.6014 60.399 14.3812 77.6012C8.65305 85.6289 4.64333 94.4212 2.54298 104.169C1.20641 110.285 0.633591 116.402 0.824524 122.709C0.824524 124.429 1.20641 126.15 1.58829 127.87C1.77922 129.399 1.97015 131.119 2.35204 132.648C3.49767 142.205 5.78896 151.571 10.5624 160.172C11.1353 161.319 11.899 162.465 12.4718 163.612C18.2 173.934 26.0285 182.535 35.7665 189.224C44.5497 195.15 53.9057 199.546 64.0255 202.413C71.6631 204.515 79.3007 204.706 86.9383 203.369C94.5759 202.222 101.641 199.546 108.514 196.105C120.926 189.989 131.809 181.388 141.356 171.258C150.903 161.128 159.113 150.042 166.178 138C171.906 128.061 177.444 117.931 181.835 107.227C186.418 96.7148 189.091 85.6289 190.046 74.1608C190.618 68.6178 190.809 63.0749 191 57.7231C191.191 52.7536 191.191 47.784 191 43.0057C190.809 38.6095 190.237 34.2134 189.473 29.6262C188.9 25.23 187.754 21.2162 185.845 17.2023C182.026 9.36577 175.916 4.20511 168.088 0.955798C165.414 -0.191017 162.55 0.000119179 159.686 0.382391C158.35 0.382391 157.777 0.955798 155.867 3.05829ZM102.786 175.845C102.786 175.463 102.786 175.272 102.786 175.845C102.786 175.272 102.786 175.463 102.786 175.845C102.022 177.374 101.259 178.903 100.304 180.432C100.113 180.623 99.7312 180.623 99.3493 180.623C100.304 177.756 100.686 176.992 102.022 175.845C102.404 175.845 102.595 175.845 102.786 175.845ZM10.3715 150.042C12.09 150.615 12.8537 152.144 13.6175 153.482C14.1903 154.438 14.1903 155.011 14.1903 156.923C13.2356 155.202 12.4718 154.056 11.899 152.718C11.3262 151.762 10.7534 150.806 10.3715 150.042C10.3715 149.851 10.5624 149.851 10.5624 149.851V149.659C10.5624 149.659 10.3715 149.851 10.3715 150.042ZM121.498 167.626C121.498 167.435 121.498 167.244 121.498 167.053C121.498 167.244 121.498 167.435 121.498 167.626C120.353 169.92 119.971 172.405 118.443 174.507C118.252 174.316 118.061 174.316 118.061 174.125C117.87 171.449 119.398 169.346 121.116 167.626C121.307 167.435 121.498 167.626 121.498 167.626ZM161.214 5.73419C161.978 5.92533 162.55 6.11646 163.123 6.3076C166.942 8.41009 170.57 10.8949 173.816 13.7619C175.725 15.4821 177.253 17.5846 178.398 20.0694C182.026 27.7148 183.745 35.7425 183.745 44.3436C183.745 48.7397 182.981 53.1359 182.026 57.532C180.499 65.7508 177.635 73.5874 173.434 80.8505C170.379 86.0112 166.942 90.9807 163.314 95.568C156.44 104.36 149.566 113.152 142.693 121.754C141.165 123.856 139.447 125.767 137.728 127.679C127.99 139.147 116.916 149.086 104.314 157.114C94.9577 163.23 84.647 166.862 73.7634 169.155C67.2715 170.684 60.9705 169.92 54.6695 168.008C46.65 165.524 39.2034 161.319 31.9477 156.923C22.0188 150.997 15.145 142.396 9.98961 132.266C8.27116 128.826 7.12552 125.385 7.12552 121.562C6.74364 112.961 8.08023 104.551 11.5171 96.5237C14.3812 89.8339 18.0091 83.9087 22.4007 78.1746C34.6208 62.1192 49.3232 48.7397 66.5077 38.2273C76.4366 32.1109 87.1292 26.7591 97.8218 21.5985C105.459 17.9669 113.479 15.0998 121.689 13.3796C130.091 11.6594 138.683 9.93918 147.084 8.41009C151.476 7.64555 155.867 6.49873 160.068 7.64555C160.45 7.26328 160.45 7.07214 160.641 6.88101C160.832 6.49873 161.023 6.3076 161.214 5.73419ZM140.783 161.128C141.165 159.981 141.356 159.216 141.547 158.452C144.22 151.571 146.32 144.499 148.421 137.427C149.376 133.986 150.903 130.928 152.621 127.87C152.812 127.488 153.385 127.297 153.767 126.723C153.958 128.826 153.003 130.355 152.431 132.075C150.521 137.044 148.612 141.823 146.893 146.983C145.939 149.851 144.793 152.718 144.984 155.776C144.984 156.158 144.793 156.731 144.602 157.114C143.647 158.452 142.693 159.79 140.783 161.128ZM53.5238 184.446C54.2876 187.122 54.2876 188.842 53.9057 191.136C51.6144 190.371 49.3232 189.416 47.2228 188.078C48.3685 187.695 49.5141 187.504 50.4688 186.931C51.8054 186.357 52.5692 185.402 53.5238 184.446ZM124.553 148.704C123.599 152.144 122.262 155.011 119.971 158.069C119.971 155.967 119.971 154.438 119.971 152.718C121.498 151.38 123.026 150.042 124.553 148.704ZM135.437 167.435C133.718 169.155 132 170.684 130.282 172.213C129.9 172.596 129.518 173.169 128.945 172.596C130.472 170.111 132 167.817 133.337 165.524C133.528 165.333 133.528 165.141 133.718 164.95C133.909 164.759 134.1 164.759 134.291 164.759C134.673 165.524 134.864 166.288 135.437 167.435ZM111.188 173.36C111.951 168.582 113.097 165.906 115.006 164.377C115.388 168.2 113.288 170.684 111.188 173.36ZM147.084 124.238C145.557 130.928 144.602 133.413 142.311 136.471C142.693 135.324 142.884 134.56 143.265 133.795C143.838 132.075 144.602 130.546 144.602 128.826C144.602 126.723 145.366 125.576 147.084 124.238ZM110.233 186.549C110.042 185.784 109.851 185.211 110.042 185.02C110.806 183.682 111.569 182.344 112.333 181.197C112.524 181.006 112.715 181.006 113.097 180.815C113.097 182.344 113.288 183.49 113.288 184.828C112.333 185.402 111.379 185.975 110.233 186.549ZM39.0124 183.108C38.6306 182.917 38.0578 182.726 37.8668 182.535C37.103 181.961 36.3393 181.388 35.1936 180.623C35.7665 180.05 36.1483 179.668 36.5302 179.285C39.0124 181.579 39.0124 181.579 39.0124 183.108ZM183.554 81.2328C182.981 79.5126 182.981 79.5126 184.317 75.3076C184.317 77.4101 184.127 79.1303 183.554 81.2328ZM64.0255 191.9C64.5983 192.856 65.553 193.621 64.9802 194.767C64.2165 194.576 63.6437 194.385 62.6889 194.003C63.2618 193.047 63.6436 192.474 64.0255 191.9ZM85.6017 172.787C84.8379 174.507 84.8379 174.507 83.5014 175.463C83.5014 174.698 83.3104 174.125 83.3104 173.36C84.0742 172.978 84.647 172.213 85.6017 172.787ZM62.6889 176.227C62.3071 177.565 61.7343 178.521 60.5886 179.477C60.3977 178.139 60.3977 176.992 60.9705 176.036C61.5433 176.036 61.9252 176.227 62.6889 176.227ZM124.553 176.61C123.981 177.756 122.835 178.33 121.307 179.094C121.88 177.947 122.071 177.183 122.453 176.61C123.026 175.654 123.79 175.845 124.553 176.61ZM87.702 193.812C88.8477 194.003 89.6114 194.003 90.5661 194.194C88.8477 195.341 88.8477 195.341 87.702 193.812ZM165.987 100.155C165.987 100.346 166.178 100.538 165.987 100.729C165.796 101.111 165.414 101.493 165.033 101.875C164.842 101.684 164.651 101.493 164.651 101.302C164.842 100.92 165.224 100.346 165.605 99.9641C165.796 100.155 165.987 100.155 165.987 100.155ZM79.6826 193.238C79.4916 192.856 79.1097 192.665 79.1097 192.283C79.1097 191.709 79.6826 191.327 79.8735 191.518C80.0644 191.709 80.2554 192.092 80.2554 192.283C80.4463 192.665 80.0644 192.856 79.6826 193.238ZM9.03491 143.543L9.22588 143.734C9.41681 144.116 9.41681 144.499 9.60774 144.881L9.41681 145.072C9.22586 144.69 8.84398 144.499 8.84398 144.116C8.65305 144.116 8.84398 143.734 9.03491 143.543ZM69.3718 181.197C69.5628 181.006 69.7537 180.815 69.7537 180.623C69.9446 180.815 70.3265 181.006 70.3265 181.197C70.3265 181.388 69.9446 181.579 69.9446 181.77C69.7537 181.77 69.5628 181.388 69.3718 181.197ZM24.3101 170.875C24.1191 170.875 23.9282 170.875 23.9282 170.875C23.7373 170.493 23.5463 170.111 23.5463 169.729C23.7373 169.729 23.7373 169.537 23.9282 169.537C24.1192 169.92 24.3101 170.302 24.501 170.493C24.501 170.684 24.3101 170.875 24.3101 170.875ZM100.495 166.67C100.304 166.862 100.304 167.053 100.113 167.053C99.9222 167.053 99.7312 166.862 99.5403 166.862C99.7312 166.67 99.7312 166.479 99.9222 166.479C100.113 166.479 100.304 166.67 100.495 166.67Z" fill="#277D2A"/>
<path d="M58.8698 139.147C68.2259 140.294 76.2453 139.338 83.8829 136.471C93.6208 132.648 101.449 126.723 107.178 117.931C110.996 111.815 114.242 105.507 116.152 98.4351C117.106 94.8035 117.679 90.9808 117.106 87.3492C116.725 84.0999 115.77 81.2328 113.097 78.9392C112.524 78.3658 111.951 77.4101 111.569 76.6456C110.424 74.5431 109.469 72.4406 108.514 70.3381C107.178 67.8533 105.268 65.942 102.977 64.604C99.54 62.6927 96.1031 61.1636 92.0933 60.5902C83.501 59.2522 75.0997 59.6345 66.6984 61.5459C62.6886 62.5015 58.8698 64.2218 55.6239 66.5154C49.7047 70.7204 44.3584 75.881 40.3487 81.9974C34.0477 91.5542 30.9926 102.258 32.902 113.726C34.8114 125.194 41.3034 132.839 51.996 137.044C54.4782 138 57.3423 138.574 58.8698 139.147ZM112.715 87.1581C112.906 89.6428 112.906 91.7453 112.524 94.0389C110.233 104.36 104.886 113.153 97.6306 120.607C96.4849 121.754 95.1484 122.709 93.8118 123.665C84.2648 130.546 73.3812 132.266 62.1158 130.928C57.1514 130.355 52.5688 128.443 48.5591 125.385C45.5041 122.9 43.0219 120.033 41.6853 116.211C39.9668 111.05 39.5849 105.698 40.9215 100.346C43.2128 90.4074 48.941 82.3797 56.7695 76.0722C60.7792 72.8229 65.1708 70.7204 70.3262 69.5736C77.2 68.0445 84.0739 67.8533 90.9477 68.6179C93.6208 69.0002 96.294 69.5736 98.7762 70.7204C101.64 71.8672 104.123 73.5874 105.841 76.4545C106.987 78.5569 108.323 80.6594 109.278 82.9531C109.851 84.6733 110.614 86.3935 112.715 87.1581Z" fill="#277D2A"/>
<path d="M21.2552 94.9948C21.0642 95.1859 20.4914 95.1859 20.4914 95.3771C19.5367 97.2884 18.3911 99.0086 17.6273 101.111C15.527 106.463 14.1904 111.815 13.2357 117.358C12.472 122.901 13.9995 127.488 18.0092 131.502C18.582 132.075 19.3458 132.84 20.1095 133.413C23.9283 136.28 26.9834 140.103 29.6565 144.117C31.7569 147.175 34.0481 149.851 37.2941 151.762C38.8216 152.718 40.3491 153.482 42.0676 154.056C46.0773 155.203 50.278 156.158 54.2877 157.305C57.5337 158.261 60.5887 159.025 63.6438 160.172C68.2263 161.701 72.6179 161.51 77.0095 159.981C81.0193 158.643 85.2199 157.878 89.2297 156.732C91.1391 156.349 92.8575 155.967 94.7669 155.394C98.5857 154.247 101.832 152.336 104.696 149.468C109.469 144.69 114.434 139.912 119.207 135.133C123.408 130.928 127.227 126.723 130.664 121.754C133.146 118.122 136.01 114.873 139.256 112.006C140.02 111.241 140.783 110.477 141.738 109.903C147.084 105.698 151.858 100.729 156.059 95.5682C158.159 92.8923 160.259 90.2164 161.787 87.1582C165.796 79.5128 169.806 71.6762 173.625 64.0308C174.771 61.7372 175.725 59.2524 176.489 56.7676C178.208 51.9892 178.589 47.2108 177.444 42.2413C176.68 38.8009 175.916 35.3604 175.152 31.92C174.962 31.1554 174.58 30.3909 174.198 29.6264C174.007 29.2441 173.243 29.053 172.67 28.8618C172.67 29.6264 172.479 30.0086 172.479 30.3909C173.052 35.9338 173.625 41.6679 174.198 47.2108C174.58 51.607 173.625 55.812 171.907 59.6347C169.806 64.4131 167.324 69.1915 164.842 73.7787C163.123 77.2192 161.214 80.6596 159.495 84.1C157.777 87.3494 155.868 90.4075 153.385 93.0834L153.194 93.2746C148.994 98.8175 144.029 103.787 138.683 108.374C134.673 111.815 131.236 115.829 128.563 120.416C125.508 125.194 121.88 129.399 117.871 133.413C113.097 138.191 108.515 142.97 103.932 147.939C100.686 151.38 96.8673 153.673 92.2847 154.629C88.4659 155.394 84.4562 156.349 80.6374 157.305C79.3008 157.687 77.9642 158.07 76.6277 158.643C72.427 160.554 68.2263 160.363 64.0256 158.834C60.2068 157.496 56.1971 156.349 52.3783 155.011C47.032 153.482 42.0676 151.38 37.676 147.748C35.9575 146.41 34.2391 144.881 33.0934 142.97C30.0384 138.383 26.4106 134.56 21.828 131.502C21.2552 131.119 20.8733 130.737 20.4914 130.355C16.0998 126.914 14.5723 122.327 15.1451 116.975C16.0998 109.712 17.8183 102.64 21.2552 96.1416C21.0642 95.9505 21.0642 95.3771 21.2552 94.9948Z" fill="#277D2A"/>
<path d="M71.8537 145.072C72.2356 146.601 73.5721 146.984 74.7178 147.175C78.5366 147.939 82.3554 148.322 86.1742 147.557C97.4396 145.646 107.368 140.867 114.624 131.502C117.87 127.297 120.352 122.709 122.071 117.549C122.644 115.829 122.835 114.108 122.453 112.388C122.262 111.815 121.88 111.241 121.498 111.05C120.734 110.668 120.161 111.05 119.589 111.624C118.825 112.579 118.061 113.726 117.297 114.682C115.388 117.549 113.669 120.416 111.951 123.283C107.368 130.355 101.067 135.515 93.2389 138.574C87.1289 140.867 81.0188 142.779 74.5269 143.161C72.9993 143.543 72.9993 143.543 71.8537 145.072Z" fill="#277D2A"/>
<path d="M38.8214 70.5293C39.2033 70.5293 39.7761 70.5293 39.967 70.3382C41.3036 69.1914 42.4492 67.8534 43.7858 66.7066C47.2227 63.2662 50.8506 60.208 54.6694 57.3409C57.5335 55.2385 60.2066 52.9448 62.8798 50.6512C65.1711 48.5487 67.2714 46.4462 69.5627 44.3437C72.4268 41.4767 75.8637 39.3742 79.4915 37.654C85.2197 34.9781 90.9479 32.3022 96.6761 29.8174C98.7764 28.8617 100.877 28.0972 102.977 27.5238C110.806 25.2301 118.634 23.5099 126.654 22.3631C128.181 22.172 129.9 21.5986 131.427 21.0252C135.055 19.8783 138.492 18.5404 142.12 17.5847C144.984 16.8202 148.039 16.0556 151.094 15.6734C153.194 15.4822 155.676 15.6734 157.586 16.4379C162.168 17.967 166.369 20.2606 170.379 23.1276C170.952 22.5542 170.379 22.172 169.997 21.7897C169.806 21.4074 169.424 21.0252 169.042 20.834C164.46 18.3493 160.45 15.0999 155.295 14.1443C153.576 13.762 151.858 13.5709 150.139 13.762C146.32 14.5265 142.502 15.0999 138.683 15.8645C133.527 16.8202 128.372 17.967 123.217 19.1138C114.433 21.0252 105.841 23.3188 98.0127 27.5238C94.3848 29.244 90.757 30.9642 87.1291 32.6844C83.8831 34.2135 80.8281 35.5515 77.5821 37.0806C73.9543 38.6096 70.8992 40.9033 68.0351 43.5792C64.9801 46.4462 61.9251 49.5044 58.87 52.3714C57.3425 53.7094 56.006 55.0473 54.2875 56.1941C48.3684 60.208 43.4039 65.1775 38.8214 70.5293Z" fill="#277D2A"/>
<path d="M113.097 63.2661C112.333 63.2661 111.951 63.2661 111.76 63.2661C111.187 63.4572 110.614 63.6484 110.232 64.0307C109.851 64.7952 110.423 65.3686 110.996 65.7509C115.197 69.3825 118.061 74.1609 119.97 79.3215C121.88 84.291 123.98 89.2606 124.553 94.8035C124.553 95.3769 124.935 95.9503 125.126 96.5237C125.126 96.7149 125.317 96.906 125.508 97.0971C125.889 97.0971 126.271 97.0971 126.462 97.0971C126.653 97.0971 126.844 96.7149 126.844 96.5237C127.035 95.7592 127.417 95.1858 127.417 94.4212C127.417 87.3492 127.226 80.0861 123.98 73.3963C122.262 69.7647 119.779 66.8977 116.342 64.7952C115.197 64.2218 113.86 63.6484 113.097 63.2661Z" fill="#277D2A"/>
<path d="M43.4042 134.56C42.8313 135.324 42.8314 136.089 43.2132 136.853C45.8864 141.058 49.5142 144.116 54.6696 144.499C54.8606 144.499 54.8606 144.499 55.0515 144.499C55.6243 144.307 56.1971 144.116 56.3881 143.543C56.7699 142.97 56.1971 142.396 55.6243 142.205C54.6696 141.823 53.9058 141.44 52.9512 141.058C49.8961 139.72 47.223 138 44.9317 135.515C44.5498 135.133 43.977 134.751 43.5951 134.56C43.7861 134.56 43.5951 134.56 43.4042 134.56Z" fill="#277D2A"/>
<path d="M23.9277 90.2161C22.4002 91.554 21.4455 92.892 21.2546 94.9945C22.4002 93.4654 23.5459 92.1274 23.9277 90.2161Z" fill="#277D2A"/>
<path d="M30.4199 82.3797C29.8471 82.3797 29.4652 81.9974 28.8924 82.5708C28.3196 83.3354 27.7468 83.9088 27.1739 84.6733C27.7468 85.0556 28.1286 84.8645 28.5105 84.2911C29.0833 83.5265 29.6562 82.9531 30.4199 82.3797Z" fill="#277D2A"/>
<path d="M38.8217 70.5291C38.4398 70.9113 38.058 71.4847 37.1033 72.4404C38.8217 71.867 39.2036 71.4847 38.8217 70.5291Z" fill="#277D2A"/>
<path d="M32.7119 78.9393C31.5663 78.557 31.1844 79.7038 30.4206 79.895C31.3753 80.2772 31.9482 79.3216 32.7119 78.9393Z" fill="#277D2A"/>
<path d="M35.957 73.9697C35.957 74.1608 35.957 74.1608 35.957 74.352C36.1479 74.1608 36.1479 74.1608 36.3389 73.9697L36.1479 73.7786C36.1479 73.7786 36.1479 73.9697 35.957 73.9697Z" fill="#277D2A"/>
<path d="M34.4297 76.0722H34.6206L34.8115 75.8811C34.6206 75.8811 34.6206 75.8811 34.4297 75.6899C34.4297 75.8811 34.4297 76.0722 34.4297 76.0722Z" fill="#277D2A"/>
<path d="M32.7114 78.9393C32.7114 78.7482 32.9023 78.557 32.9023 78.3659C32.9023 78.1748 32.9023 78.1748 32.9023 77.9836C32.7114 78.1748 32.5205 78.1748 32.5205 78.3659C32.5205 78.557 32.7114 78.7482 32.7114 78.9393Z" fill="#277D2A"/>
<path d="M30.2289 82.3795C30.2289 81.615 30.2289 80.6593 30.2289 79.8948C30.4198 80.6593 30.4198 81.4239 30.2289 82.3795C30.4198 82.3795 30.2289 82.3795 30.2289 82.3795Z" fill="#277D2A"/>
<path d="M26.9826 84.4819C26.7917 84.8642 26.4098 85.4376 26.2188 85.8199C27.1735 86.011 27.3645 85.8199 26.9826 84.4819Z" fill="#277D2A"/>
<path d="M25.4561 87.3492C26.4108 87.3492 26.6018 87.158 26.2199 86.0112C26.0289 86.3935 25.6471 86.9669 25.4561 87.3492Z" fill="#277D2A"/>
<path d="M24.5012 88.4962C25.4559 88.4962 25.6469 88.305 25.4559 87.1582C25.074 87.7316 24.8831 88.305 24.5012 88.4962C24.5012 88.6873 24.5012 88.4962 24.5012 88.4962Z" fill="#277D2A"/>
<path d="M23.9279 90.2161C24.8826 90.025 24.8826 89.4516 24.5007 88.687C24.3097 89.2604 24.1188 89.6427 23.9279 90.2161Z" fill="#277D2A"/>
<path d="M75.2912 77.9836C72.6181 76.8368 70.1359 77.028 67.6536 77.4102C63.453 78.1748 59.6342 79.7039 55.8154 81.8063C53.5241 83.1443 51.8057 85.0557 50.66 87.3493C49.1325 90.4075 48.5597 93.6568 48.5597 96.9061C48.5597 100.347 50.2781 103.022 53.3332 104.551C57.7248 106.845 62.3073 107.227 66.8899 105.889C68.2265 105.507 69.563 104.743 70.7087 103.978C76.2459 100.155 80.0647 90.4075 77.7734 83.7177C77.3916 82.5709 76.8187 81.6152 76.4369 80.4684C76.055 79.895 75.864 79.1304 75.2912 77.9836ZM71.0905 79.5127C75.6731 85.0556 75.4822 90.5986 72.809 96.3327C69.563 103.022 61.5436 105.125 55.0516 101.302C53.3332 100.347 52.3785 99.0086 52.3785 97.0972C52.1875 91.5543 53.906 86.967 58.8704 83.9088C61.5436 82.3798 64.2167 81.0418 67.2717 80.2773C68.4174 80.0861 69.754 79.895 71.0905 79.5127Z" fill="#277D2A"/>
</svg>
