<svg width="417" height="150" viewBox="0 0 417 150" fill="none" xmlns="http://www.w3.org/2000/svg">
<path d="M124.116 72.6039C124.306 71.8393 124.306 71.0748 124.497 70.3103C124.688 68.59 124.116 67.4432 122.779 66.4875C122.015 65.9141 121.251 65.5318 120.488 65.1496C119.533 64.385 118.578 63.6205 117.815 62.856C117.051 62.0914 117.242 61.1357 118.387 60.7535C119.533 60.18 120.87 59.6066 122.015 59.0332C122.588 58.651 123.352 58.4598 123.925 58.0776C125.643 57.1219 126.025 55.9751 125.643 54.0637C125.452 53.2992 125.261 52.5346 125.07 51.7701C124.688 50.4321 125.07 49.4765 126.025 48.5208C126.98 47.7562 128.125 46.9917 129.08 46.036C130.798 44.6981 132.326 43.169 133.853 41.6399C136.909 38.3906 137.481 34.5679 135.954 30.3629C134.999 27.8781 133.663 26.9224 130.989 26.9224C129.271 26.9224 127.552 27.1136 126.025 27.3047C122.779 27.8781 119.724 27.687 116.669 27.1136C115.141 26.9224 113.805 26.7313 112.277 26.7313C109.795 26.7313 107.886 27.4958 106.358 29.5983C105.785 30.3629 105.213 30.9363 104.831 31.7008C101.967 35.9058 97.9568 38.0083 92.9924 38.7729C91.083 38.964 89.3646 39.3463 87.4552 39.7285C83.6364 40.6842 82.2998 42.7867 82.4907 46.036C82.4907 46.2271 82.4907 46.4183 82.4907 46.6094C82.6817 48.5208 82.1088 50.0499 80.9632 51.5789C80.5813 52.1524 80.1995 52.7258 79.8176 53.2992C78.481 55.7839 79.0538 57.8864 81.536 59.2244C82.2998 59.6066 82.8726 59.9889 83.6364 60.1801C84.782 60.5623 85.9276 60.9446 86.8823 61.3269C87.6461 61.7091 88.6008 62.0914 89.1736 62.6648C90.5102 64.1939 92.2286 65.1496 93.9471 65.9141C95.6656 66.6787 97.384 67.4432 99.1024 68.2077C103.876 70.6925 107.886 74.133 110.941 78.5291C111.132 78.7202 111.514 79.1025 110.941 79.6759C109.986 79.2936 108.84 78.7202 107.886 78.3379C102.921 75.8532 97.7659 73.3684 92.8015 70.8837C86.8823 68.0166 81.1541 64.5762 76.3806 59.9889C73.8984 57.5042 71.0343 55.7839 67.7884 54.2548C67.2155 54.0637 66.6427 53.6814 66.0699 53.2992C65.879 51.7701 66.4518 50.6233 67.0246 49.6676C67.5974 48.7119 68.1703 47.5651 68.5522 46.4183C68.934 45.2715 68.934 44.1247 67.9793 43.3601C66.4518 42.2133 66.0699 40.6842 65.879 38.964C65.688 37.626 65.4971 36.4792 65.1152 35.1413C64.3514 32.6565 62.633 31.5097 60.1508 31.3186C59.387 31.3186 58.8142 31.3186 58.0505 31.5097C56.9048 31.7008 55.7592 31.892 54.6135 32.0831C52.5132 32.6565 50.7947 32.0831 49.0763 30.7451C47.9307 29.7895 46.976 28.8338 46.0212 27.8781C43.9209 25.7756 41.8206 23.482 39.5293 21.3795C36.6652 18.7036 33.9921 16.2188 30.937 13.7341C28.8367 12.0139 26.5454 10.4848 23.8723 9.33795C22.3447 8.57341 20.6263 8 18.7169 8C15.4709 8 13.3706 9.91136 13.3706 13.3518C13.3706 15.4543 13.9434 17.1745 14.8981 19.0859C16.9984 23.482 19.6716 27.4958 22.9175 31.1274C25.5907 33.9945 28.4548 36.4792 31.128 39.1551C31.5099 39.5374 32.2736 39.7285 31.8917 40.6842C29.6005 39.9197 27.1182 39.1551 24.8269 38.3906C20.8172 36.8615 16.8075 35.3324 12.6068 33.8033C10.8884 33.2299 9.16992 32.4654 7.26053 32.0831C6.1149 31.7008 4.96924 31.7008 3.82358 31.7008C0.959503 31.892 -0.568024 34.1856 0.19574 37.0526C0.577637 38.1994 1.15042 38.964 1.91418 39.7285C2.67795 40.3019 3.44174 41.0665 4.39645 41.4488C7.26053 42.9778 10.1246 44.3158 13.1797 45.8449C14.7072 46.6094 16.2347 47.1828 17.7622 47.9474C18.9078 48.5208 19.8625 49.0942 20.2444 50.6233C19.8625 51.0055 19.6716 51.5789 19.2897 51.7701C18.1441 52.7258 16.8075 53.6814 15.6619 54.8283C14.3253 55.9751 13.1796 57.1219 12.6068 58.651C11.2702 61.3269 11.8431 63.4294 14.1344 65.1496C15.0891 65.9141 16.0437 66.4875 17.1894 67.0609C22.5357 69.928 28.073 72.0305 34.183 72.795C40.2931 73.7507 46.4032 75.2798 52.3223 77C66.0699 81.205 79.6266 85.41 93.1833 89.9972C98.1478 91.7174 103.303 93.0554 108.459 94.5845C111.132 95.349 113.805 96.1136 116.478 96.687C117.051 96.8781 117.433 97.0692 118.196 97.4515C117.433 99.3629 116.86 100.892 116.287 102.612C115.714 104.332 115.332 106.053 114.759 107.773C114.187 107.773 113.614 107.582 113.041 107.582C110.75 107.582 108.268 107.199 105.976 107.391C99.4843 107.964 92.9924 109.111 86.6914 110.64C81.9179 111.787 77.1444 113.316 72.5618 114.845C61.2964 118.476 49.84 121.535 38.3837 124.211C35.7105 124.784 33.0374 125.357 29.9823 125.357C30.3642 124.784 30.5551 124.211 30.937 124.019C32.2736 122.873 33.4193 121.917 34.7558 120.77C35.3286 120.388 35.9014 120.006 36.2833 119.432C37.238 118.476 37.0471 116.947 35.7105 116.183C35.1377 115.801 34.3739 115.801 33.8011 115.418C33.4193 115.227 33.0374 115.036 32.4645 114.845C33.8011 114.271 34.7558 113.889 35.7105 113.507C37.429 112.551 37.6199 110.64 36.2833 109.302C35.5196 108.537 34.7558 107.964 33.9921 107.582C32.2736 106.626 30.3642 105.861 28.6457 105.097C28.2639 104.906 27.882 104.524 27.5002 104.332C28.6458 103.759 29.4095 103.377 30.3642 102.803C32.0827 101.657 32.4645 99.9363 31.5098 98.2161C30.937 97.2604 30.1733 96.4958 29.4095 95.7313C27.882 94.3933 26.1635 93.2465 24.4451 91.9086C21.7719 89.8061 19.0988 87.8947 16.6166 85.6011C14.1343 83.4986 12.2249 81.0138 10.5065 78.3379C10.3155 78.1468 10.3156 77.7645 9.93369 77C12.4159 77.7645 14.5162 78.7202 16.6166 79.4848C25.9726 83.4986 33.9921 89.2327 39.5293 98.0249C40.2931 99.3629 41.4387 100.51 42.5844 101.657C45.4485 104.332 48.8854 104.906 52.3223 102.994C53.277 102.612 54.0407 102.039 54.8045 101.274C55.9501 100.51 57.0957 99.7451 58.4323 99.3629C59.387 98.9806 60.3417 98.4072 61.2964 97.8338C62.0602 97.4515 62.633 96.8781 63.2058 96.4958C64.5424 95.5402 65.4971 95.7313 66.4518 96.8781C67.0246 97.6426 67.5974 98.4072 68.1703 99.1717C69.3159 100.892 71.0343 101.657 72.9438 101.465C74.4713 101.465 75.8078 101.274 77.3353 100.892C83.4454 99.3629 89.5555 98.9806 95.8565 99.3629C98.5297 99.554 101.203 99.7452 103.876 99.9363C105.213 99.9363 106.358 100.127 107.695 100.127C108.077 100.127 108.649 99.9363 109.031 99.7451C109.604 99.554 109.795 98.5983 109.413 98.2161C109.031 97.8338 108.649 97.4515 108.268 97.4515C107.313 97.0692 106.167 96.8781 105.022 96.8781C101.585 96.4958 98.1478 96.1136 94.7108 95.9224C88.9827 95.5402 83.0635 95.7313 77.3353 97.0693C76.1897 97.2604 75.235 97.4515 74.0894 97.6427C72.7528 97.8338 71.7981 97.4515 71.0343 96.3047C70.4615 95.5402 69.8887 94.5845 69.3159 94.0111C67.2156 91.7174 64.1605 91.3352 61.4874 93.0554C60.9146 93.4377 60.3417 94.0111 59.7689 94.2022C59.0052 94.5845 58.2414 95.1579 57.2867 95.1579C55.5682 95.1579 54.2317 95.9224 52.8951 96.8781C52.1313 97.4515 51.3676 97.8338 50.6038 98.2161C48.6944 99.1717 47.5488 98.7895 46.4031 97.0693C45.6394 95.9224 44.8756 94.5845 44.1118 93.2465C42.5844 90.3795 40.6749 88.0859 38.1927 85.9834C29.9823 78.3379 20.0535 74.3241 9.74274 71.0748C9.16992 70.8836 8.59711 70.8837 8.02429 70.6925C7.45148 70.6925 6.87866 70.6925 6.30585 70.6925C4.01456 71.0748 2.67798 72.9862 3.25079 75.2798C3.63266 76.6177 4.20547 78.1468 4.96924 79.2936C8.40616 85.41 13.3706 89.9972 18.7169 94.2022C20.4354 95.5402 22.3448 96.8781 24.2542 98.2161C24.636 98.5983 25.0179 98.9806 25.5908 99.554C24.636 99.9363 23.8723 100.319 23.2994 100.51C22.3448 100.892 21.3901 101.274 20.6263 101.848C18.7169 103.186 18.9079 105.479 20.8173 106.817C21.3901 107.199 22.1538 107.582 22.9175 107.773C25.2088 108.537 27.3091 109.302 29.6004 110.066C30.1732 110.258 30.937 110.258 31.3189 111.213C30.5552 111.404 29.9824 111.787 29.2186 111.978C28.0729 112.36 26.7364 112.742 25.5908 113.125C24.636 113.507 24.0632 114.08 24.0632 115.036C24.0632 115.801 24.636 116.565 25.5908 116.947C26.3545 117.138 27.1182 117.33 27.882 117.521C29.0276 117.712 30.1733 117.903 31.3189 118.094C31.8918 118.094 32.2736 118.285 33.0374 118.476C31.7008 119.623 30.3642 120.579 29.2186 121.726C28.2639 122.681 27.5001 123.637 26.9273 124.784C26.3545 126.122 27.1183 127.46 28.4548 127.842C29.4095 128.033 30.3642 128.033 31.3189 128.033C36.6653 127.842 41.8206 126.886 46.976 125.548C57.4776 123.064 67.7884 120.006 77.9082 116.756C86.3095 114.08 95.0927 112.169 103.876 110.831C106.549 110.449 109.222 110.258 111.895 110.258C112.85 110.258 113.805 110.066 114.569 110.64C115.332 113.125 115.714 115.609 116.669 117.712C118.005 120.77 119.533 123.637 121.061 126.504C123.543 131.091 126.98 134.723 131.371 137.59C139.009 142.56 147.41 146.191 156.575 147.147C163.64 147.911 170.705 148.676 177.77 149.249C186.553 150.014 195.527 149.823 204.31 149.823C230.851 149.44 257.391 148.867 283.932 148.294C298.634 147.911 313.528 147.529 328.23 147.338C347.324 147.147 366.227 146.191 385.13 143.706C391.049 142.942 396.968 141.986 402.696 139.884C404.988 139.119 407.088 138.163 409.188 137.208C410.716 136.443 412.243 135.296 413.389 134.15C415.489 132.047 415.489 129.562 413.771 127.269C413.007 126.313 412.243 125.548 411.289 124.784C409.761 123.637 408.234 122.681 406.515 121.726C402.887 119.623 398.878 117.903 394.868 116.756C388.185 114.654 381.502 112.551 374.628 111.022C356.871 106.626 339.114 102.039 321.547 96.8781C306.081 92.482 290.615 88.6593 274.958 84.4543C266.938 82.3518 258.728 80.4404 250.518 78.9114C238.297 76.6177 226.077 74.5152 213.857 72.2216C202.783 70.1191 191.708 68.3989 180.634 67.4432C175.669 67.0609 170.705 66.8698 165.549 67.0609C162.685 67.2521 159.821 67.2521 156.957 67.2521C152.184 67.4432 147.41 67.4432 142.637 68.9723C140.727 67.8255 140.536 67.8255 138.436 68.3989C133.853 69.928 130.035 72.6039 126.98 76.4266C126.407 77.1911 125.643 78.1468 124.688 79.2936C123.734 76.0443 123.734 75.662 124.116 72.6039ZM407.661 133.576C404.033 135.488 400.214 136.634 396.204 137.399C385.703 139.501 375.01 140.266 364.318 141.03C352.097 141.795 339.877 142.177 327.657 142.177C311.427 142.177 295.388 142.942 279.159 143.324C249.372 144.089 219.585 144.853 189.799 144.662C178.151 144.662 166.695 143.324 155.048 141.604C146.837 140.457 139.773 136.825 133.09 132.047C129.271 129.18 126.789 125.357 124.497 121.343C123.161 118.859 122.015 116.374 121.251 113.698C120.488 111.022 120.488 108.346 121.633 105.67C124.116 99.554 126.216 93.4377 128.125 87.3213C129.462 83.1163 131.753 79.6759 135.19 76.8089C137.099 75.2798 139.009 73.7507 140.918 72.0305C141.491 72.4127 141.873 72.795 142.446 72.9861C143.019 73.1773 143.591 72.9861 144.164 72.9861C145.119 72.9861 145.883 72.9861 146.837 72.9861C148.365 72.9861 149.892 72.9861 151.611 72.9861C153.902 72.9861 156.384 72.9861 158.676 72.9861C160.394 72.9861 162.113 72.9861 163.64 72.9861C168.795 72.6039 173.951 72.9861 179.297 73.5596C195.145 75.4709 210.802 78.5291 226.459 81.5872C227.032 81.7784 227.796 81.9695 228.56 82.1607C227.987 83.3075 227.414 84.2632 227.032 85.2188C226.65 86.1745 226.268 86.9391 225.886 87.8947C224.932 89.8061 224.55 92.0997 224.55 94.2022C224.55 95.1579 224.741 95.9224 224.932 96.8781C225.123 97.6426 226.459 97.8338 226.841 97.0693C227.223 96.4958 227.605 95.7313 227.796 94.9668C228.75 92.2908 229.514 89.615 230.469 86.7479C230.851 85.41 231.233 84.072 231.615 82.7341C232.569 82.9252 233.333 82.9252 234.097 83.1163C248.799 85.6011 263.311 88.8504 277.631 92.8643C291.379 96.687 305.317 100.127 319.065 103.759C329.376 106.435 339.686 109.111 349.997 111.213C350.761 111.404 351.525 111.596 352.479 111.787C351.907 112.551 351.334 113.316 350.952 113.889C350.57 114.463 350.188 115.227 349.806 115.992C349.424 116.756 349.042 117.712 348.851 118.476C348.661 119.241 348.279 120.006 348.088 120.77C347.897 121.535 347.515 122.49 347.324 123.255C346.56 125.931 346.178 128.607 346.56 131.474C346.751 132.812 347.133 133.958 347.515 135.105C347.706 135.87 348.47 136.252 349.233 136.061C349.806 135.87 350.188 135.488 350.379 134.914C350.57 134.341 350.57 133.767 350.57 133.194C350.952 130.518 351.143 127.651 351.716 124.975C352.288 122.108 352.861 119.432 353.625 116.565C354.007 115.227 354.58 113.698 354.962 112.36C355.152 112.36 355.343 112.169 355.534 112.169C366.418 114.463 377.301 116.756 387.994 120.006C391.24 120.961 394.486 122.108 397.732 123.255C401.169 124.402 404.224 126.122 407.088 128.033C408.425 128.989 409.761 129.753 410.334 131.283C409.952 132.429 408.807 133.003 407.661 133.576ZM21.0081 13.3518C22.9175 14.3075 24.827 15.072 26.3545 16.41C29.2186 18.5125 31.8917 20.8061 34.3739 23.2909C36.6652 25.3934 38.7655 27.8781 41.0568 29.9806C42.5843 31.5097 44.1118 33.0388 45.8303 34.3767C48.5034 36.4792 51.5585 37.4349 54.9954 36.6704C56.332 36.4792 57.4777 36.2881 58.8142 36.2881C59.1961 36.2881 59.578 36.4792 59.9599 36.4792C60.9146 37.4349 60.9146 38.3906 60.9146 39.5374C61.2964 41.831 61.6783 44.1246 63.5877 46.036C63.2058 46.8005 62.8239 47.5651 62.633 48.3296C62.2511 49.4765 61.6783 50.8144 61.6783 51.9612C61.4874 54.6371 62.4421 56.7396 64.7334 58.2687C65.3062 58.651 65.879 59.0332 66.4518 59.2244C68.7431 60.5623 71.0343 61.9003 72.9438 63.8116C77.9082 68.59 83.6364 72.2216 89.7464 75.2798C96.4293 78.7202 103.303 82.1607 109.986 85.41C112.086 86.5568 114.187 87.7036 116.096 88.8504C117.242 89.615 118.578 90.1884 120.106 89.8061C120.106 91.3352 119.342 92.2909 119.151 93.6288C118.578 93.4377 118.196 93.4377 118.005 93.2465C114.95 91.5263 111.514 90.3795 108.077 89.2327C101.776 87.1302 95.6656 84.8366 89.3646 82.7341C84.973 81.205 80.5814 79.4848 76.1897 78.1468C68.1703 75.4709 60.3418 72.9862 52.3223 70.5014C46.4032 68.59 40.484 67.2521 34.183 66.8698C28.2639 66.4875 22.7266 64.5762 17.5713 62.0914C17.3803 61.9003 16.9984 61.7091 16.8075 61.7091C16.6166 61.518 16.6165 61.3269 16.4256 61.3269C16.6165 60.18 17.5713 59.2244 18.526 58.4598C19.8625 57.313 21.0082 56.3573 22.3448 55.2105C25.2088 52.7258 25.5907 49.6676 22.9175 46.6094C21.9629 45.4626 20.8172 44.6981 19.4807 43.9335C18.1441 42.9778 16.4256 42.4044 14.8981 41.831C12.6068 40.6842 10.3156 39.5374 8.02429 38.3906C8.59711 37.8172 8.979 38.1994 9.36087 38.1994C13.1797 39.5374 16.9984 41.2576 21.0081 42.4044C26.1635 44.1247 31.3189 45.6537 36.4743 47.374C37.238 47.5651 38.0018 47.7562 38.7656 47.7562C41.0569 47.7562 42.3934 45.8449 41.4387 43.7424C41.0568 42.7867 40.2931 41.831 39.7203 41.0665C38.1927 39.3463 36.4743 37.626 34.7558 36.097C32.2736 33.6122 29.6004 31.3186 26.9273 28.8338C24.0632 25.9668 21.581 22.7174 19.6716 19.0859C18.7169 17.3656 17.9532 15.6454 17.9532 13.5429C19.4807 12.5873 20.2444 12.9695 21.0081 13.3518ZM130.607 38.5817C129.653 39.7285 128.507 40.8753 127.362 42.0222C126.216 43.169 125.07 44.1246 123.734 45.0803C121.061 47.1828 120.297 49.8587 121.251 52.9169C121.251 53.108 121.442 53.4903 121.442 53.6814C121.442 53.8726 121.442 54.0637 121.442 54.446C121.061 55.2105 120.106 55.4017 119.342 55.7839C118.196 56.3573 116.86 56.9307 115.714 57.6953C113.614 58.8421 113.041 60.7535 113.614 63.0471C114.187 64.9584 115.332 66.2964 116.86 67.4432C118.005 68.3989 119.151 69.1634 120.488 70.1191C120.297 72.795 119.533 75.4709 120.106 78.1468C120.679 80.6316 120.87 83.1163 121.824 85.6011C121.633 85.41 121.251 85.2188 121.061 84.8366C119.151 81.7784 117.242 78.5291 115.141 75.662C111.132 69.7368 105.785 65.3407 99.1024 62.4737C97.7659 61.9003 96.6202 61.3269 95.2837 60.9446C94.138 60.5623 93.1833 59.7978 92.2287 59.0332C91.083 58.0776 89.7464 57.5042 88.4099 56.9307C87.0733 56.3573 85.7367 55.7839 84.2092 55.4017C84.9729 53.6814 85.9276 52.1524 86.5005 50.4321C87.0733 48.903 87.0733 47.1828 87.2642 45.4626C88.6008 44.6981 90.3192 44.6981 91.8467 44.3158C94.329 43.7424 96.6203 43.169 98.9115 42.4044C101.776 41.4488 104.258 39.5374 106.358 37.0526C107.313 35.9058 108.458 34.5679 109.222 33.4211C110.177 32.0831 111.323 31.7008 112.85 31.892C113.805 32.0831 114.569 32.0831 115.523 32.0831C119.342 32.6565 123.161 32.6565 126.98 32.0831C128.316 31.892 129.462 31.892 130.989 31.7008C132.517 34.1856 132.326 36.4792 130.607 38.5817Z" fill="#277D2A"/>
<path d="M269.802 140.266C268.657 140.266 267.702 140.457 266.747 140.457C264.074 140.648 261.21 140.839 258.537 140.839C256.628 140.839 254.527 140.648 252.618 140.457C244.408 139.501 236.006 138.163 227.796 137.399C207.747 135.488 187.889 133.958 167.841 132.812C162.494 132.429 157.339 132.047 151.993 131.474C149.511 131.283 147.028 130.709 144.546 129.945C140.918 128.798 137.863 126.695 135.572 123.637C134.235 121.917 133.281 120.006 133.472 117.712C133.472 117.138 133.472 116.756 133.663 116.183C133.853 115.418 134.999 115.036 135.572 115.801C135.954 116.183 136.336 116.756 136.527 117.33C138.245 121.726 141.491 124.402 145.883 125.74C147.983 126.504 150.274 126.886 152.566 127.269C162.494 129.18 172.423 130.327 182.352 131.283C197.436 132.812 212.712 134.532 227.796 135.488C235.624 136.061 243.453 136.252 251.281 135.296C256.437 134.723 261.401 135.296 266.556 136.252C267.32 136.443 268.084 136.634 268.848 136.825C269.421 137.017 269.993 137.208 270.375 137.59C270.948 137.972 271.521 138.546 271.139 139.31C270.757 139.501 270.184 139.884 269.802 140.266Z" fill="#277D2A"/>
<path d="M202.4 115.609C202.209 113.698 201.828 111.978 201.828 110.449C201.446 104.906 202.4 99.3629 204.501 94.2022C205.455 91.9086 206.41 89.6149 207.365 87.3213C207.747 86.3656 208.32 85.4099 208.892 84.4543C209.274 83.8809 209.656 83.4986 210.229 83.3075C210.802 82.9252 211.375 82.9252 211.947 83.3075C212.52 83.6897 212.711 84.2631 212.52 84.8365C212.329 85.41 212.329 85.7922 212.138 86.1745C210.229 92.2908 208.892 98.5983 207.747 104.906C206.983 108.537 206.601 112.36 206.792 115.992C206.792 116.756 206.792 117.521 206.601 118.285C206.41 119.241 204.883 119.432 204.501 118.859C203.546 117.712 202.973 116.565 202.4 115.609Z" fill="#277D2A"/>
<path d="M260.638 125.166C260.638 123.446 260.447 121.726 260.447 119.814C260.638 114.845 261.974 109.875 263.883 105.288C265.029 102.421 266.366 99.554 267.893 96.687C268.275 95.7313 268.848 94.9668 269.612 94.2022C269.994 93.82 270.566 93.6288 271.33 94.0111C271.903 94.3934 272.285 94.7756 272.094 95.5402C271.903 96.4959 271.712 97.2604 271.521 98.025C268.848 106.817 266.557 115.801 265.411 124.975C265.411 125.548 265.22 126.122 265.029 126.695C264.838 127.46 264.265 127.842 263.502 127.842C262.738 127.842 262.165 127.46 261.783 126.886C261.592 126.695 261.401 126.313 261.401 126.122C261.21 125.74 261.21 125.357 261.019 124.975C260.828 125.166 260.828 125.166 260.638 125.166Z" fill="#277D2A"/>
<path d="M289.851 136.443C290.997 135.679 292.143 135.679 293.097 135.488C299.971 134.15 306.845 133.576 313.91 133.194C318.492 133.003 322.884 132.812 327.466 132.812C328.421 132.812 329.376 133.003 330.33 133.194C330.903 133.385 331.285 133.959 331.285 134.532C331.285 134.914 330.903 135.488 330.521 135.679C329.758 136.061 328.994 136.252 328.23 136.252C325.175 136.826 322.12 137.017 319.065 137.017C313.91 136.826 308.754 136.826 303.408 136.826C300.353 136.826 297.298 137.208 294.243 137.399C293.097 137.399 291.952 137.399 290.806 137.208C290.615 137.017 290.233 136.634 289.851 136.443Z" fill="#277D2A"/>
<path d="M162.685 79.1026C163.831 78.7204 164.977 79.2938 164.786 80.2495C164.786 81.2051 164.404 81.9697 164.213 82.7342C163.258 85.7924 162.303 88.6594 161.54 91.7176C160.585 94.9669 160.012 98.4074 160.012 101.848C160.012 102.039 160.012 102.23 160.012 102.421C160.012 102.995 159.63 103.377 159.057 103.377C158.676 103.377 158.103 103.377 157.721 103.186C157.339 102.995 157.148 102.421 156.957 102.039C156.766 101.274 156.575 100.51 156.575 99.7453C156.575 94.0112 157.148 88.4683 159.63 83.3076C160.203 82.1608 160.967 81.014 161.731 79.8672C161.922 79.6761 162.494 79.2938 162.685 79.1026Z" fill="#277D2A"/>
<path d="M306.654 120.579C306.081 118.285 305.89 116.183 306.272 114.08C306.654 111.213 307.418 108.537 308.182 105.861C308.373 104.906 309.136 103.95 309.9 103.186C310.473 102.612 311.619 102.612 312 103.377C312.191 103.759 312.382 104.332 312.191 104.715C310.855 109.302 310.855 114.271 310.091 119.05C309.9 120.006 309.9 120.77 309.518 121.535C309.327 121.917 308.945 122.299 308.373 122.49C307.8 122.681 307.227 122.299 306.845 121.726C306.845 121.152 306.654 120.77 306.654 120.579Z" fill="#277D2A"/>
<path d="M169.368 91.3352C168.795 91.5263 167.841 91.144 167.65 90.3795C167.459 89.8061 167.268 89.0415 167.459 88.4681C168.413 85.2188 169.368 81.7784 171.659 79.1025C172.041 78.7202 172.423 78.3379 172.996 77.9557C173.569 77.5734 174.142 77.1911 174.905 77.5734C175.478 77.7645 175.478 78.7202 175.287 79.4847C175.096 80.0581 174.905 80.6316 174.714 81.205C174.142 82.5429 173.378 83.8809 172.805 85.2188C172.041 86.7479 171.086 88.277 170.896 90.1883C170.705 90.5706 170.132 91.144 169.368 91.3352Z" fill="#277D2A"/>
<path d="M233.906 97.0693C233.906 96.8781 233.715 96.3047 233.715 95.7313C233.715 93.4377 234.097 91.144 234.86 89.0415C235.051 88.4681 235.624 87.8947 236.197 87.5125C236.961 86.9391 238.106 87.5125 237.915 88.4681C237.724 91.144 237.343 94.0111 236.961 96.687C236.961 96.8781 236.77 97.2604 236.579 97.4515C236.388 98.0249 235.815 98.4072 235.242 98.4072C234.86 98.4072 234.288 98.0249 233.906 97.0693Z" fill="#277D2A"/>
<path d="M276.485 110.831C276.676 111.404 276.867 111.978 276.867 112.742C276.676 115.992 276.485 119.241 276.294 122.49C276.294 123.064 275.912 123.828 275.722 124.402C275.531 124.784 274.385 124.975 274.194 124.402C273.812 123.828 273.621 123.064 273.621 122.49C273.621 118.859 274.194 115.418 275.149 111.978C274.958 111.213 275.34 110.64 276.485 110.831Z" fill="#277D2A"/>
<path d="M376.728 121.152C376.728 121.535 376.919 121.917 376.919 122.299C376.537 124.402 376.155 126.313 375.773 128.416C375.582 128.989 375.391 129.562 375.2 130.136C374.628 131.091 373.1 131.091 372.527 130.136C372.336 129.562 371.955 128.989 372.145 128.416C372.527 126.313 372.909 124.211 374.055 122.299C374.628 121.152 375.391 120.77 376.728 121.152Z" fill="#277D2A"/>
<path d="M321.547 115.036C321.547 115.609 321.738 115.992 321.547 116.374C321.165 118.859 320.974 121.343 320.592 124.019C320.592 124.593 320.019 125.166 319.447 125.166C318.874 125.166 318.301 124.784 318.11 124.21C317.919 123.828 317.919 123.446 317.919 123.064C317.919 120.77 318.301 118.668 319.256 116.565C319.638 115.418 320.21 114.654 321.547 115.036Z" fill="#277D2A"/>
<path d="M307.384 23.1274C307.384 33.4488 309.294 43.5789 312.158 53.518C312.731 55.8116 313.495 58.1053 314.449 60.2078C320.941 76.4543 333.543 85.2465 349.773 88.8781C363.521 92.1274 377.077 90.7895 390.443 85.8199C401.136 81.8061 408.201 74.1607 413.165 64.2216C414.502 61.5457 415.074 58.2964 415.838 55.4294C416.793 51.4155 415.074 48.1662 411.637 46.0637C410.11 45.108 408.582 44.3435 407.055 43.5789C398.081 39.1828 389.107 34.9778 380.132 30.7729C364.666 23.3186 349.391 15.2909 334.498 6.88089C330.297 4.39613 326.097 2.1025 321.323 0.764546C319.987 0.382274 318.841 0 317.504 0C316.55 0 315.404 0.191139 314.64 0.764546C313.495 1.33795 312.349 2.1025 311.394 3.05818C310.63 3.63158 310.058 4.58726 309.676 5.54294C307.957 9.55679 307.384 13.7618 307.384 17.9668C307.194 19.687 307.384 21.4072 307.384 23.1274ZM402.472 48.7396C402.281 49.6953 402.091 50.651 401.709 51.6067C400.563 54.4737 398.845 56.9585 396.744 59.4432C393.116 63.6482 388.534 66.3241 383.569 69C378.032 71.867 372.304 73.205 366.194 72.8227C360.084 72.4405 354.356 70.7202 349.391 67.2798C345.763 64.795 343.09 61.5457 339.844 58.6787C335.644 54.856 332.97 50.0776 331.252 44.5346C328.388 34.9778 327.433 25.2299 328.006 15.2909C330.679 15.6731 337.553 18.7313 344.045 22.3629C344.427 22.554 344.427 23.1274 344.809 23.5097C343.472 23.892 342.136 24.2742 340.99 24.6565C336.407 26.1856 333.734 29.8172 333.543 34.5956C333.352 37.8449 335.644 39.9474 338.89 39.374C340.226 39.1828 341.372 38.8006 342.708 38.4183C343.472 38.2272 344.045 38.2271 345.381 37.8449C344.427 39.1828 343.854 39.9474 343.472 40.7119C342.326 42.4321 341.754 44.3435 341.563 46.446C341.563 48.3573 342.708 49.5042 344.618 49.5042C347.1 49.313 349.2 48.5485 350.728 46.446C350.919 46.2548 350.728 45.8726 350.537 45.2992C348.818 45.6814 347.1 45.8726 345 46.2549C345 45.4903 344.809 44.7258 345.191 44.3435C345.763 43.1967 346.527 42.0499 347.291 40.903C348.055 39.9474 348.818 39.1828 349.582 38.2271C350.346 37.2715 350.919 36.1247 350.155 34.9778C349.582 33.831 348.246 33.6399 347.1 33.831C345.572 34.0222 343.854 34.4044 342.326 34.5956C340.99 34.7867 339.462 35.5513 338.126 35.169C337.935 34.5956 337.744 34.2133 337.935 33.831C338.317 30.7729 340.035 28.6704 342.899 27.7147C345.381 26.9501 347.864 25.9945 350.537 25.0388C358.938 28.8615 367.721 32.8753 376.314 36.8892C378.605 38.036 380.514 39.9474 382.424 42.6233C381.087 42.4321 380.514 42.241 379.751 42.241C376.887 42.0499 375.359 43.3878 374.786 46.0637C374.404 47.9751 374.977 49.5042 375.932 51.0332C376.696 52.1801 377.459 53.1357 378.223 54.2826C378.605 55.0471 378.796 55.8116 379.369 57.3407C378.032 56.7673 377.268 56.7673 376.887 56.1939C375.168 54.2825 373.641 52.3712 372.113 50.4598C371.158 49.313 370.395 47.9751 369.44 47.0194C368.294 45.8726 367.149 45.4903 366.385 45.8726C365.43 46.6371 365.621 47.5928 365.621 48.7396C365.43 50.2687 366.003 51.7978 365.43 54.0914C363.139 47.5928 363.712 41.4765 362.757 34.9778C361.993 36.1247 361.42 36.6981 361.229 37.2715C361.039 41.8587 360.657 46.446 361.993 50.8421C362.375 52.3712 363.139 53.9003 363.903 55.2382C364.284 56.0028 365.239 56.385 366.194 56.1939C367.149 56.0028 367.53 55.0471 367.53 54.0914C367.53 53.3269 367.53 52.5623 367.53 51.9889C367.53 51.4155 366.958 50.651 368.103 50.0776C368.676 51.0332 369.058 51.7978 369.631 52.5623C370.776 54.2826 371.54 56.1939 372.877 57.723C374.022 59.0609 375.359 60.2078 376.696 61.1634C377.268 61.5457 378.414 61.7368 379.178 61.7368C382.233 61.3546 384.333 58.2964 383.76 55.2382C383.378 53.518 382.424 51.9889 381.66 50.4598C381.278 49.5042 380.705 48.7396 379.751 47.4017C380.896 47.5928 381.469 47.7839 382.042 47.9751C382.615 48.1662 383.188 48.1662 383.76 48.1662C387.006 48.3573 388.343 47.2105 388.152 43.7701C388.152 43.1967 388.152 42.6233 388.152 41.8587C392.734 43.579 397.126 45.2992 401.518 47.0194C401.709 47.9751 401.9 48.3573 402.472 48.7396ZM409.919 50.8421C410.11 53.1357 409.155 55.0471 408.392 57.1496C404.382 67.8532 397.317 75.4986 386.243 79.5125C376.887 82.7618 367.53 83.7175 357.602 82.9529C349.773 82.1884 342.708 79.8947 336.216 75.4986C330.488 71.6759 325.906 66.7064 323.232 60.3989C321.514 56.385 319.987 52.1801 319.032 47.9751C316.55 38.036 315.404 28.097 315.022 17.9668C314.831 14.9086 315.213 11.8504 315.404 8.79225C315.404 8.60111 315.786 8.40998 315.977 7.83657C318.268 8.98338 320.368 10.5125 322.469 12.2327C322.469 12.9972 322.469 13.7618 322.278 14.5263C321.514 17.2022 321.514 20.0693 321.705 22.7452C322.278 31.7285 324.187 40.5208 327.624 48.9308C329.724 54.2826 332.779 58.8698 337.171 62.3103C339.08 63.8393 340.608 65.3684 342.517 66.8975C351.492 74.7341 361.993 77.2188 373.641 76.072C378.987 75.4986 383.378 73.0138 387.961 70.5291C396.171 65.9418 402.472 59.6343 404.955 50.2687C404.955 50.0776 405.146 50.0776 405.336 49.8864C406.864 49.5042 408.392 49.8864 409.919 50.8421Z" fill="#277D2A"/>
<path d="M352.446 53.3269C352.446 54.4737 353.592 55.6205 354.738 55.4294C356.647 55.4294 358.365 53.7092 358.747 51.9889C358.938 50.8421 358.174 49.6953 356.838 49.5042C354.738 49.313 352.446 51.2244 352.446 53.3269Z" fill="#277D2A"/>
<path d="M331.825 22.9361C331.825 23.8918 332.589 25.0386 333.352 25.2298C334.307 25.2298 335.262 24.4652 335.262 23.3184C335.262 22.3627 334.689 21.5982 333.925 21.4071C332.97 21.0248 331.825 21.7893 331.825 22.9361Z" fill="#277D2A"/>
</svg>
