<svg width="251" height="255" viewBox="0 0 251 255" fill="none" xmlns="http://www.w3.org/2000/svg">
<path d="M55.6153 116.861C51.4957 118.078 47.663 120.018 44.2131 122.564C39.7159 125.913 36.9995 130.426 36.3242 136.023C36.271 136.565 36.2284 137.214 36.1753 137.756C35.718 141.775 36.5843 145.607 38.5031 149.227C40.3741 152.906 42.8405 156.095 45.8065 158.913C46.8802 159.986 48.1453 160.826 49.4104 161.666C51.7173 163.261 54.2529 164.457 56.7778 165.547C58.2342 166.153 59.7757 166.536 61.3704 166.376C61.902 166.323 62.3751 166.222 62.6994 165.707C62.7951 165.59 62.8323 165.425 62.8323 165.425C64.1931 165.074 64.443 163.814 64.762 162.709C65.5594 159.944 66.4153 157.228 67.0001 154.485C67.9784 150.307 68.7918 146.092 69.6531 141.818C70.7749 136.391 71.7319 130.927 72.8058 125.558C73.194 123.533 73.3694 121.529 73.5449 119.525C73.6832 117.685 73.2314 116.925 71.2221 116.16C70.3291 115.819 69.3989 115.644 68.4792 115.575C64.1629 115.362 59.8998 115.681 55.6153 116.861ZM70.3449 119.737C70.3608 120.433 70.2598 121.034 69.8877 121.608C69.202 121.73 68.4578 121.805 67.7827 122.033C64.8697 122.969 61.9779 124.117 59.2244 125.573C57.9539 126.291 57.1406 127.285 57.5711 128.906C57.5817 129.012 57.5339 129.071 57.3903 129.246C56.8747 128.922 56.4176 128.646 55.902 128.321C54.9292 127.721 53.9299 127.391 52.787 127.237C51.6442 127.083 50.7086 127.391 49.991 128.268C49.6082 128.736 49.1776 129.262 48.8534 129.778C47.5829 131.569 47.1363 133.546 47.4073 135.72C47.6039 137.15 48.1567 138.384 49.3261 139.34C49.56 139.532 49.7354 139.675 50.0863 139.962C49.4112 140.191 48.9487 140.398 48.4862 140.606C47.8696 140.882 47.3008 141.1 46.8011 141.472C45.4562 142.519 45.1851 143.566 46.0196 144.932C47.1093 146.703 48.4009 148.345 49.7404 149.929C50.7078 151.014 52.0261 151.311 53.3975 151.067C53.7164 151.035 53.9769 150.955 54.5563 150.844C54.1948 151.524 53.9663 151.923 53.6898 152.38C53.1476 153.4 53.1848 154.309 53.8705 155.261C54.8006 156.51 55.885 157.69 57.1129 158.695C58.3408 159.7 59.7494 160.364 61.376 160.524C61.9182 160.577 62.471 160.736 63.178 160.827C63.0397 161.592 62.9015 162.358 62.7633 163.123C62.6888 163.453 62.6144 163.782 62.54 164.112C59.2177 162.565 56.1719 160.561 53.7534 158.387C52.5734 157.323 51.3933 156.26 50.2718 155.245C49.3362 154.479 48.4964 153.597 47.8001 152.539C47.1622 151.529 46.4659 150.471 45.8759 149.403C45.0786 147.872 44.0687 146.362 43.7339 144.624C43.1174 141.679 43.0218 138.575 43.3143 135.593C43.5376 133.53 44.1968 131.532 45.664 130.096C47.8116 127.949 50.0761 125.897 52.8509 124.653C56.3965 123.064 60.0803 121.783 63.8332 120.656C64.2 120.566 64.5189 120.534 64.8857 120.444C65.7362 120.359 66.5867 120.274 67.4851 120.13C68.4525 120.141 69.3402 119.891 70.3449 119.737ZM47.2529 143.306C47.8057 142.392 48.837 141.966 49.8204 141.6C51.5267 140.946 53.3341 140.765 55.1414 140.585C57.2677 140.372 59.4152 140.372 61.5415 140.159C62.8757 140.08 64.1887 139.787 65.5016 139.495C65.7143 139.474 66.0013 139.123 66.0864 138.9C66.1502 138.464 65.8206 138.39 65.4804 138.209C64.3163 137.842 63.2053 138.007 62.0359 138.124C59.0591 138.421 56.1302 138.66 53.1587 138.474C52.7813 138.458 52.3455 138.394 51.968 138.378C50.7773 138.283 50.0172 137.661 49.6877 136.513C49.5176 135.885 49.3369 135.152 49.321 134.455C49.236 132.531 50.2088 130.984 51.2986 129.533C51.7292 129.007 52.1438 128.858 52.8508 128.948C54.0521 129.151 55.0621 129.586 56.0454 130.293C59.373 132.43 62.6526 134.626 65.7516 137.162C66.2193 137.544 66.6286 137.879 67.0964 138.262C67.2293 139.054 66.9741 139.724 66.1555 140.128C65.693 140.335 65.3581 140.744 64.9062 141.058C62.2164 143.152 59.633 145.236 56.8847 147.282C56.183 147.782 55.4813 148.282 54.7212 148.733C52.7969 149.892 51.5956 149.69 50.187 147.952C49.4534 147.059 48.7678 146.107 48.0342 145.214C47.6621 144.715 47.3273 144.05 47.2529 143.306ZM53.9447 160.3C53.849 160.417 53.8596 160.523 53.7639 160.64C51.6643 159.508 49.4584 158.386 47.7202 156.574C44.919 153.794 42.4739 150.817 40.8261 147.223C40.1458 145.788 39.5611 144.236 39.2369 142.604C38.7267 139.648 38.9129 136.677 39.5349 133.769C40.4387 129.921 42.2355 126.413 45.425 123.946C50.6026 119.885 56.5615 117.733 63.1476 117.557C63.4187 117.584 63.6898 117.611 64.1735 117.616C63.8173 117.813 63.7217 117.93 63.509 117.951C60.7396 118.711 58.0711 119.944 55.3228 120.917C52.6809 121.879 50.2463 123.303 48.2422 125.275C46.8708 126.593 45.393 127.922 44.3138 129.48C42.6234 131.904 41.7196 134.678 41.863 137.724C41.9108 138.74 41.8045 139.824 41.9107 140.887C42.0755 143.072 42.2295 145.15 43.1278 147.154C43.8985 148.956 44.9297 150.679 45.9024 152.353C46.9336 154.075 48.204 155.505 49.7827 156.797C51.3401 157.876 52.6477 159.141 53.9447 160.3ZM55.3642 153.555C55.6406 153.098 55.8586 152.593 56.0872 152.194C56.7942 151.211 57.4428 150.179 58.2667 149.292C60.595 146.804 62.9925 144.471 65.5653 142.281C65.8152 142.095 66.0172 141.967 66.4212 141.712C66.2563 143.822 65.8469 145.635 65.5545 147.543C65.2142 149.51 64.9218 151.418 64.5815 153.385C64.2306 155.245 63.9861 157.095 63.4704 158.918C60.3129 158.482 58.3302 157.446 55.3642 153.555ZM67.2453 136.529C66.836 136.194 66.4745 135.801 66.0174 135.524C63.838 134.132 62.1371 132.154 60.5903 130.108C60.2767 129.656 59.9046 129.156 59.6389 128.646C59.3146 128.088 59.3784 127.652 59.9366 127.327C60.5904 126.886 61.3612 126.541 62.0735 126.147C64.0191 125.201 65.9753 124.362 68.0697 123.83C68.4364 123.74 68.8139 123.756 69.2391 123.713C69.34 125.26 67.7928 135.025 67.2453 136.529Z" fill="#277D2A"/>
<path d="M41.8252 173.323C41.6445 173.663 41.3308 174.285 41.1341 175.003C40.7513 176.544 41.3998 177.661 42.8935 178.102C43.5526 178.251 44.2596 178.341 44.956 178.325C46.3487 178.293 47.7201 178.049 48.9427 177.39C50.6757 176.465 52.3395 175.386 54.014 174.413C54.418 174.158 54.705 173.807 54.9921 173.457C55.4599 172.766 55.141 171.724 54.3064 171.431C54.0247 171.298 53.6473 171.282 53.3177 171.208C51.2659 171.091 49.2725 171.022 47.2313 171.011C46.2054 170.953 45.1529 171.165 44.1695 171.532C43.3402 171.83 42.6492 172.436 41.8252 173.323ZM51.7017 173.302C49.9794 174.333 48.6239 175.274 47.1195 175.8C46.2903 176.098 45.3441 176.3 44.4457 176.444C43.8663 176.555 43.2763 176.56 42.8085 176.178C42.7979 176.071 42.7288 175.917 42.7182 175.811C42.7447 175.54 42.782 175.375 42.867 175.152C43.59 173.791 44.7435 172.978 46.2904 172.877C48.0499 172.755 49.6764 172.914 51.7017 173.302Z" fill="#277D2A"/>
<path d="M56.3468 190.77C57.2558 189.659 57.8246 188.367 58.2287 187.038C59.1112 184.051 59.2867 180.973 58.6595 177.922C58.6383 177.709 58.5586 177.449 58.5373 177.236C58.1387 175.934 57.5274 175.726 56.6077 176.731C56.3685 177.023 56.023 177.326 55.8423 177.667C54.6409 179.612 53.3225 181.462 52.3444 183.492C51.6905 185.007 51.1429 186.512 51.0419 188.186C50.9355 189.27 51.1003 190.381 51.6318 191.402C52.2909 192.625 53.2902 192.954 54.5713 192.343C55.1879 192.067 55.677 191.588 56.3468 190.77ZM56.7724 179.989C56.8734 180.463 56.9425 180.617 57.0116 180.771C57.0381 182.647 56.9583 184.534 56.5489 186.347C56.2884 187.5 55.8047 188.569 55.4272 189.627C55.172 190.296 54.683 190.775 54.077 191.158C53.5188 191.482 53.0723 191.312 52.7481 190.753C52.2963 189.993 52.1528 189.095 52.3389 188.271C52.5622 187.282 52.8333 186.235 53.2799 185.332C53.9975 183.381 55.3478 181.85 56.7724 179.989Z" fill="#277D2A"/>
<path d="M65.8248 179.783C66.2659 180.436 66.4148 180.851 66.7178 181.197C67.4991 182.031 68.0306 183.052 68.5622 184.072C68.7588 184.429 68.9077 184.843 69.2 185.082C69.3754 185.226 69.7635 185.348 69.9761 185.327C70.2365 185.247 70.4758 184.955 70.4545 184.742C70.5289 184.413 70.4386 184.046 70.3004 183.738C69.9124 182.542 69.2746 181.532 68.4347 180.649C67.7809 180.017 67.1005 179.655 65.8248 179.783Z" fill="#277D2A"/>
<path d="M55.0411 135.816C55.1952 135.747 55.4078 135.726 55.4451 135.561C55.5407 135.444 55.5567 135.067 55.4982 135.019C54.855 134.493 53.9939 134.471 53.2019 134.604C53.0477 134.673 52.8563 134.907 52.7713 135.13C52.6384 135.412 52.8244 135.662 53.0583 135.853C53.7865 136.156 54.4032 135.88 55.0411 135.816Z" fill="#277D2A"/>
<path d="M61.2809 135.944C61.2225 135.896 61.1427 135.636 60.978 135.599C60.473 135.381 59.9202 135.221 59.3674 135.062C59.2611 135.072 59.0006 135.152 58.9049 135.269C58.8092 135.386 58.7826 135.657 58.8996 135.753C59.2823 136.359 59.9042 136.672 60.659 136.704C61.0364 136.72 61.4191 136.253 61.2809 135.944Z" fill="#277D2A"/>
<path d="M54.972 145.326C54.1747 144.869 53.5102 145.204 52.9149 145.693C52.8192 145.81 52.782 145.975 52.8032 146.187C52.8723 146.341 52.9999 146.543 53.1062 146.533C53.8132 146.623 54.5733 146.171 54.972 145.326Z" fill="#277D2A"/>
<path d="M55.5293 142.854C54.4449 142.748 53.3711 142.748 52.3399 143.173C52.4674 143.375 52.595 143.577 52.6535 143.625C53.7272 143.625 54.4608 143.444 55.5293 142.854Z" fill="#277D2A"/>
<path d="M54.5839 131.245C54.5467 131.41 54.4616 131.633 54.5307 131.787C54.621 132.154 55.0675 132.324 55.3174 132.138C55.4131 132.021 55.546 131.739 55.4769 131.585C55.445 131.266 54.9985 131.096 54.5839 131.245Z" fill="#277D2A"/>
<path d="M61.3394 149.951C60.4995 150.142 59.6224 151.572 59.8137 152.412C59.8934 152.673 60.1964 153.018 60.4781 153.151C60.8183 153.332 61.1851 153.241 61.4243 152.949C61.9984 152.247 62.1845 151.423 62.2643 150.61C62.2218 150.185 61.7062 149.861 61.3394 149.951Z" fill="#277D2A"/>
<path d="M63.8113 145.14C63.0511 145.592 62.5036 146.023 62.3175 146.847C62.2803 147.011 62.4185 147.32 62.5354 147.415C62.7109 147.559 62.9819 147.585 63.1361 147.516C63.8112 147.288 64.4013 146.209 64.2312 145.582C64.2684 145.417 63.9282 145.236 63.8113 145.14Z" fill="#277D2A"/>
<path d="M61.3553 156.016C61.5785 156.101 61.7539 156.245 61.9187 156.282C62.4503 156.229 62.7373 155.878 62.9075 155.431C62.9447 155.267 62.9128 154.948 62.8437 154.794C62.7268 154.698 62.4078 154.73 62.2537 154.799C61.9453 154.937 61.7061 155.229 61.5148 155.463C61.4191 155.58 61.4403 155.793 61.3553 156.016Z" fill="#277D2A"/>
<path d="M64.5882 131.426C64.8167 132.101 65.0931 132.718 65.7735 133.079C65.9968 133.164 66.3742 133.18 66.5283 133.111C66.7888 133.031 66.9483 132.479 66.7623 132.229C66.3317 131.681 65.9012 131.134 65.4228 130.645C65.3058 130.549 64.9763 130.474 64.8221 130.544C64.6679 130.613 64.5935 130.942 64.5563 131.107C64.5084 131.166 64.5775 131.32 64.5882 131.426Z" fill="#277D2A"/>
<path d="M65.848 127.381C65.9861 127.689 66.0659 127.95 66.1934 128.152C66.3104 128.247 66.5921 128.38 66.8047 128.359C66.9589 128.29 67.2087 128.104 67.1875 127.891C67.3257 127.126 66.8952 126.578 66.4646 126.031C66.3477 125.935 66.0766 125.908 65.9809 126.025C65.8267 126.094 65.6832 126.27 65.6938 126.376C65.7257 126.695 65.8161 127.062 65.848 127.381Z" fill="#277D2A"/>
<path d="M91.3982 39.2482C89.1177 41.6774 86.8 44.2713 85.2318 47.3809C82.8555 52.0746 80.6546 56.9117 79.2883 62.0413C78.5015 64.9117 77.8795 67.8193 77.7997 70.7802C77.6666 76.4307 79.3089 81.5816 82.4078 86.2648C83.6037 88.0243 85.0017 89.6563 86.389 91.1819C88.4514 93.5528 90.6679 95.8545 92.7888 98.2732C94.5376 100.192 96.1322 102.18 97.7747 104.11C98.7421 105.194 99.247 106.486 98.9706 108.017C98.7951 108.947 98.9864 109.787 99.3426 110.664C100.023 112.099 100.384 113.567 100.911 115.071C101.357 116.315 101.591 117.58 101.931 118.834C102.021 119.201 102.16 119.51 102.298 119.818C102.563 120.328 103.472 120.291 103.69 119.786C103.823 119.504 103.946 119.116 103.962 118.739C104.063 118.138 104.057 117.548 104.052 116.958C104.127 114.481 104.743 112.057 105.923 109.899C106.827 108.198 107.789 106.545 108.693 104.844C111.702 99.4965 114.264 93.9789 116.215 88.2541C117.714 83.9166 118.767 79.4089 118.842 74.7843C118.927 70.266 118.385 65.9178 116.684 61.7928C115.892 59.7781 114.802 58.008 113.654 56.19C111.937 53.5162 110.731 50.5766 109.939 47.4881C109.779 46.9672 109.668 46.3878 109.567 45.9147C108.94 42.8635 107.35 40.3917 105.261 38.2919C104.246 37.2659 103.098 36.5217 101.806 35.9529C100.01 35.1661 98.1811 35.1342 96.3791 35.9049C94.577 36.6756 92.9717 37.8024 91.3982 39.2482ZM101.325 112.775C101.038 112.052 100.693 111.281 100.358 110.616C99.8369 109.702 99.635 108.756 99.7998 107.719C99.9912 106.412 99.7095 105.205 99.0132 104.147C98.2478 102.935 97.4824 101.723 96.5735 100.687C94.0593 97.5557 91.3909 94.4937 88.8289 91.4212C87.3725 89.7414 85.9639 88.0031 84.8636 86.1267C82.2219 81.7199 81.1536 76.9411 81.4461 71.8115C81.6057 69.1112 82.1533 66.5331 82.8072 63.9444C84.0991 59.1444 85.7896 54.573 87.6928 49.9804C88.8198 47.2907 90.287 44.7818 92.0944 42.4536C93.2905 40.9918 94.545 39.5779 96.1504 38.451C98.3618 36.9415 100.451 36.8937 102.582 38.345C102.816 38.5363 103.098 38.6692 103.332 38.8606C105.623 40.8328 107.366 43.2355 108.041 46.2283C108.323 47.4349 108.605 48.6416 109.088 49.7207C110.263 52.3413 111.485 54.9035 113.075 57.3754C113.644 58.2312 114.106 59.0977 114.521 60.0226C116.205 63.4513 116.838 67.0925 116.843 70.9038C116.88 75.0341 116.104 79.0846 114.785 83.0819C113.355 87.5736 111.596 91.9908 109.613 96.323C108.162 99.5283 106.36 102.446 104.674 105.46C103.388 107.629 102.123 110.01 101.325 112.775Z" fill="#277D2A"/>
<path d="M142.704 44.4276C140.163 46.9365 137.963 49.6261 136.182 52.757C134.629 55.4891 133.795 58.418 133.784 61.533C133.757 62.8779 133.826 64.1058 133.965 65.4879C134.145 67.2952 134.326 69.1025 134.554 70.8514C134.639 71.7019 134.725 72.5524 134.81 73.4029C135.144 76.2149 134.655 78.8408 133.565 81.3657C132.922 82.9869 132.327 84.5497 131.683 86.171C131.428 86.8407 131.115 87.4626 130.509 87.8453C130.355 87.9144 130.211 88.0898 130.126 88.3131C129.802 88.8287 130.03 89.5038 130.583 89.6633C130.913 89.7377 131.301 89.86 131.62 89.8281C132.257 89.7644 132.837 89.6527 133.416 89.5411C137.132 88.5791 140.444 86.7985 143.431 84.4597C144.574 83.5402 145.483 82.4292 146.323 81.1641C147.211 79.8406 148.051 78.5755 148.938 77.2519C150.868 74.5357 153.324 72.25 155.966 70.2142C158.608 68.1784 161.319 66.2968 163.775 64.0112C167.326 60.8644 170.398 57.2286 172.721 53.0772C173.226 52.2214 173.615 51.2699 174.003 50.3184C174.646 48.6972 174.747 47.0227 174.199 45.3058C173.381 42.4885 171.956 40.0538 169.772 38.071C168.241 36.7208 166.444 35.934 164.44 35.7585C160.975 35.4607 157.631 35.8486 154.372 37.0871C151.683 38.1076 149.142 39.5427 146.845 41.2755C145.336 42.2855 144.049 43.3804 142.704 44.4276ZM131.806 86.8567C133.039 84.1564 134.033 81.7484 135.144 79.4362C135.724 78.2508 136.032 77.0388 136.069 75.8003C136.08 73.7591 136.091 71.7179 136.091 69.5703C136.091 67.4228 136.032 65.2275 136.197 63.1172C136.458 59.8161 137.542 56.7012 139.414 53.9371C142.534 49.1691 146.484 45.1772 151.332 42.1156C153.554 40.7123 155.903 39.5111 158.402 38.7244C160.379 38.0973 162.388 37.789 164.499 37.9539C166.008 38.0177 167.396 38.4696 168.517 39.4849C170.457 41.1701 171.85 43.2857 172.626 45.6778C173.083 47.028 173.115 48.4207 172.557 49.8187C172.169 50.7702 171.828 51.6632 171.382 52.5668C168.697 57.3987 165.184 61.4544 160.793 64.7925C158.544 66.4668 156.179 68.0455 153.872 69.672C151.161 71.5536 148.519 73.5894 146.355 76.1143C145.59 77.0498 144.824 77.9853 144.059 78.9208C143.054 80.1487 141.826 81.2916 140.577 82.2217C138.222 83.9067 135.681 85.3419 133.012 86.575C132.635 86.559 132.375 86.6388 131.806 86.8567Z" fill="#277D2A"/>
<path d="M111.028 70.7336C110.438 70.7389 110.044 71.1004 109.603 71.5203C108.614 72.3708 107.684 73.2691 106.695 74.1196C106.446 74.3056 106.244 74.4332 106.042 74.5607C105.595 74.3906 105.68 74.1674 105.707 73.8963C105.787 70.9355 105.181 68.0969 104.256 65.2902C103.102 61.8084 102.268 58.2947 101.694 54.7013C101.407 52.9046 100.955 51.0707 100.504 49.2368C100.403 48.7637 100.36 48.3384 99.7009 48.1896C99.685 48.567 99.6584 48.8381 99.7381 49.0986C100.11 51.7458 100.493 54.4993 100.923 57.1943C101.311 59.4641 101.758 61.7818 102.193 63.9931C102.539 65.8376 102.884 67.6822 102.852 69.5108C102.847 69.9945 102.794 70.5367 102.751 71.1852C102.411 71.0044 102.188 70.9194 102.012 70.7759C100.051 68.8781 98.1375 66.9219 96.2824 65.0135C95.9209 64.6201 95.6179 64.2746 95.315 63.9291C94.9003 64.0779 94.8738 64.349 95.0013 64.551C95.1502 64.9656 95.4053 65.3696 95.6604 65.7736C97.5208 68.272 99.631 70.5844 102.087 72.5938C102.262 72.7373 102.379 72.833 102.565 73.0829C102.193 75.8045 101.268 78.3666 100.083 81.0084C98.9822 80.2057 98.0467 79.4402 97.0633 78.7332C95.3677 77.3458 93.5657 75.9689 91.8701 74.5815C91.5777 74.3423 91.179 74.1137 90.8388 73.933C90.5571 73.8001 90.2116 74.103 90.3019 74.4698C90.3923 74.8366 90.5305 75.1449 90.7165 75.3948C90.9717 75.7987 91.381 76.1337 91.7424 76.527C94.1025 78.6534 96.4147 80.8382 99.1575 82.4968C99.216 82.5446 99.3329 82.6403 99.402 82.7944C99.2798 83.1825 99.216 83.6184 99.0937 84.0064C97.3127 90.3585 97.8706 96.4769 100.661 102.372C100.81 102.787 101.065 103.191 101.368 103.536C102.043 104.381 103.154 104.217 103.484 103.217C103.643 102.664 103.696 102.122 103.643 101.591C103.558 100.74 103.367 99.9003 103.282 99.0498C102.995 97.2531 102.708 95.4564 102.479 93.7076C102.203 90.9434 102.517 88.174 103.325 85.5162C103.692 84.3521 104.117 83.2358 104.425 82.0239C104.829 80.695 105.175 79.3182 105.521 77.9415C105.669 77.2823 105.898 76.8837 106.445 76.4531C107.636 75.4751 108.721 74.5077 109.794 73.434C110.331 72.8971 110.751 72.2645 111.23 71.6798C111.054 71.5363 111.092 71.3715 111.028 70.7336Z" fill="#277D2A"/>
<path d="M93.1779 53.2976C93.1407 53.4624 92.9972 53.6378 92.96 53.8026C92.9918 54.1215 93.0716 54.382 93.2576 54.6319C93.7094 55.392 94.1612 56.1522 94.7672 56.8432C95.0117 57.1409 95.4688 57.4173 95.809 57.5981C95.926 57.6938 96.1758 57.5077 96.3299 57.4386C96.3778 57.3802 96.4628 57.1569 96.3937 57.0027C96.3831 56.8964 96.314 56.7423 96.2449 56.5881C95.336 55.5515 94.427 54.515 93.4596 53.4305C93.5075 53.3721 93.4012 53.3827 93.1779 53.2976Z" fill="#277D2A"/>
<path d="M87.9524 68.1547C88.4786 68.5853 88.8985 69.0265 89.3663 69.4093C89.6002 69.6006 89.8713 69.6272 90.2008 69.7016C90.4241 69.7867 90.6527 69.388 90.5729 69.1276C90.5039 68.9734 90.4348 68.8193 90.3178 68.7236C89.4408 68.0059 88.6116 67.2298 87.676 66.4643C87.6176 66.4165 87.6176 66.4165 87.5113 66.4271C87.2986 66.4484 87.086 66.4696 86.9903 66.5866C86.8946 66.7035 86.868 66.9746 86.9371 67.1288C87.0753 67.4371 87.3092 67.6285 87.4953 67.8783C87.7185 67.9634 87.8939 68.1069 87.9524 68.1547Z" fill="#277D2A"/>
<path d="M107.513 85.5269C107.842 85.6013 108.172 85.6757 108.443 85.7023C109.495 85.4897 110.42 85.0751 111.335 84.5542C111.383 84.4958 111.478 84.3788 111.526 84.3204C111.563 84.1556 111.601 83.9908 111.542 83.9429C111.531 83.8366 111.308 83.7516 111.202 83.7622C111.037 83.725 110.883 83.7941 110.787 83.911C109.862 84.3256 108.89 84.7987 108.023 85.2611C107.752 85.2345 107.656 85.3515 107.513 85.5269Z" fill="#277D2A"/>
<path d="M139.891 78.049C140.199 77.9108 140.46 77.8311 140.555 77.7142C141.045 77.2358 141.486 76.8159 141.916 76.2896C144.431 72.9781 146.477 69.2838 148.301 65.5044C148.785 64.436 149.162 63.3782 149.423 62.2247C149.896 59.9762 151.177 58.2912 152.915 56.8826C156.094 57.5312 159.076 56.7499 162.016 55.5434C163.307 55.0384 164.588 54.4272 165.928 53.8638C166.236 53.7256 166.475 53.4332 166.162 52.9814C165.524 53.0451 164.929 53.5342 164.301 53.7042C163.674 53.8743 163.057 54.1507 162.489 54.3686C161.814 54.5972 161.138 54.8257 160.511 54.9958C159.836 55.2243 159.15 55.3466 158.465 55.4688C157.837 55.6389 157.2 55.7027 156.514 55.8249C155.876 55.8887 155.142 56.0694 154.308 55.777C154.595 55.4262 154.786 55.1923 154.988 55.0647C155.775 54.3418 156.62 53.6667 157.301 52.9545C157.742 52.5346 158.125 52.0668 158.507 51.599C158.651 51.4236 158.784 51.1419 158.869 50.9186C159.087 50.4137 158.656 49.8661 158.077 49.9777C157.604 50.0787 157.189 50.2275 156.775 50.3764C156.36 50.5252 155.945 50.674 155.329 50.9504C155.584 50.2806 155.695 49.7863 155.866 49.3398C156.44 47.5644 157.072 45.8368 157.646 44.0614C157.769 43.6734 157.785 43.2959 157.742 42.8707C157.732 42.7644 157.546 42.5145 157.381 42.4773C157.216 42.4401 157.014 42.5677 156.86 42.6368C156.706 42.7059 156.668 42.8707 156.573 42.9876C155.69 44.9012 154.643 46.7776 154.042 48.8241C153.771 49.8713 153.559 50.9663 153.261 52.2846C152.915 52.5875 152.357 52.9118 151.857 53.2838C150.964 54.0174 150.013 54.7031 149.12 55.4366C148.333 56.1595 147.605 56.9302 147.052 57.8445C146.967 58.0678 146.765 58.1953 146.536 58.594C146.435 58.1209 146.297 57.8126 146.217 57.5521C146.026 56.7122 145.835 55.8723 145.643 55.0325C145.553 54.6657 145.404 54.2511 145.208 53.8949C145.069 53.5866 144.825 53.2889 144.4 53.3314C144.081 53.3633 143.852 53.762 143.905 54.2935C144.155 56.255 144.453 58.158 144.702 60.1195C144.803 60.5926 144.963 61.1135 145.218 61.5175C145.531 61.9694 145.574 62.3946 145.415 62.9475C145.143 63.9946 144.814 64.994 144.484 65.9933C143.947 67.6039 143.362 69.273 142.932 70.873C142.437 72.9089 141.438 74.7268 140.322 76.449C140.152 76.8955 139.758 77.257 139.891 78.049Z" fill="#277D2A"/>
<path d="M162.999 47.6603C163.329 47.7347 163.563 47.9261 163.775 47.9049C164.886 47.7401 165.997 47.5754 167.05 47.3628C167.262 47.3415 167.454 47.1076 167.656 46.9801C167.847 46.7462 167.698 46.3316 167.475 46.2465C167.417 46.1987 167.252 46.1615 167.146 46.1721C165.822 46.3581 164.557 46.5919 163.382 47.1925C163.276 47.2032 163.191 47.4264 162.999 47.6603Z" fill="#277D2A"/>
<path d="M158.31 63.054C157.502 62.4905 156.764 62.0812 155.902 62.0599C155.796 62.0705 155.594 62.1981 155.546 62.2566C155.451 62.3735 155.53 62.634 155.589 62.6818C156.28 63.1496 156.912 63.5696 157.651 63.9789C157.874 64.064 158.193 64.0321 158.268 63.7025C158.411 63.5271 158.332 63.2666 158.31 63.054Z" fill="#277D2A"/>
<path d="M149.349 47.5215C149.051 47.766 148.849 47.8936 148.812 48.0584C148.498 48.6803 148.514 49.3767 148.588 50.1208C148.62 50.4398 148.854 50.6312 149.232 50.6471C149.609 50.6631 149.859 50.477 149.827 50.1581C149.955 49.2863 149.87 48.4358 149.349 47.5215Z" fill="#277D2A"/>
<path d="M161.442 45.5073C161.654 45.4861 161.925 45.5127 162.021 45.3957C162.664 44.8482 163.143 44.2635 163.387 43.4875C163.435 43.429 163.377 43.3811 163.425 43.3227C163.355 43.1685 163.286 43.0144 163.228 42.9665C163.111 42.8708 162.898 42.8921 162.792 42.9027C162.638 42.9718 162.436 43.0994 162.351 43.3226C161.931 43.9552 161.288 44.5027 161.442 45.5073Z" fill="#277D2A"/>
<path d="M138.483 63.4255C138.499 64.1219 138.542 64.5471 138.595 65.0787C138.606 65.185 138.781 65.3285 138.887 65.3179C138.994 65.3073 139.206 65.286 139.302 65.1691C139.398 65.0522 139.493 64.9352 139.531 64.7704C139.584 64.2282 139.398 63.9784 138.483 63.4255Z" fill="#277D2A"/>
<path d="M171.441 178.835C173.632 176.039 174.61 172.934 174.153 169.437C173.669 166.21 172.367 163.387 170.437 160.735C168.566 158.13 165.999 156.615 162.927 155.956C161.996 155.78 161.045 155.392 160.104 155.11C159.163 154.829 158.164 154.499 157.223 154.217C156.67 154.058 156.032 154.122 155.442 154.127C155.065 154.111 154.581 154.106 154.204 154.09C150.855 153.888 147.835 154.834 145.273 157.13C144.88 157.491 144.534 157.794 144.258 158.251C143.827 158.778 143.455 159.352 142.732 159.639C142.318 159.788 142.052 160.351 141.775 160.808C140.92 162.451 140.287 164.178 139.713 165.954C139.431 166.895 139.325 167.979 139.372 168.994C139.495 172.901 140.765 176.479 142.923 179.806C144.188 181.72 146.027 182.932 148.191 183.628C150.248 184.336 152.411 185.032 154.564 185.622C155.893 186.026 157.286 185.994 158.657 185.75C163.042 185.043 166.886 183.209 170.235 180.19C170.665 179.664 171.107 179.244 171.441 178.835ZM143.561 162.562C143.811 160.229 144.747 158.847 146.294 157.672C148.782 155.705 151.657 154.935 154.719 155.488C158.711 156.216 162.124 158.13 164.649 161.367C167.046 164.402 167.822 167.868 166.695 171.632C166.057 173.843 164.962 175.778 163.362 177.495C159.742 181.561 155.244 182.762 150.019 181.513C147.101 180.785 144.938 179.014 143.683 176.133C142.647 173.821 142.083 171.408 141.887 168.904C141.685 166.884 142.084 164.965 142.589 163.035C142.817 162.637 143.136 162.605 143.561 162.562ZM163.543 157.827C163.873 157.901 163.979 157.891 164.144 157.928C165.6 158.534 166.972 159.363 168.056 160.543C169.922 162.558 171.229 164.897 171.92 167.512C172.51 169.655 172.675 171.839 171.931 174.061C171.356 175.837 170.49 177.373 169.108 178.585C167.582 179.972 166.057 181.359 164.169 182.353C162.176 183.358 160.103 184.102 157.902 184.644C157.169 184.825 156.483 184.947 155.707 184.703C155.542 184.665 155.367 184.522 155.026 184.341C155.712 184.219 156.185 184.118 156.611 184.075C158.88 183.687 160.884 182.789 162.623 181.38C165.849 178.749 167.986 175.422 168.927 171.409C169.411 169.266 169.363 167.177 168.619 165.104C167.785 162.664 166.498 160.538 164.548 158.747C164.303 158.449 164.011 158.21 163.543 157.827Z" fill="#277D2A"/>
<path d="M125.386 201.478C124.775 202.344 124.222 203.258 123.611 204.125C123.467 204.3 123.382 204.523 123.239 204.699C122.165 205.773 121.702 207.054 121.367 208.537C121.096 209.584 120.883 210.679 120.671 211.774C120.224 213.751 120.416 215.665 121.149 217.632C122.239 220.476 124.078 222.761 126.417 224.675C127.528 225.584 128.771 226.211 130.09 226.509C131.36 226.865 132.62 227.115 133.88 227.365C136.447 227.806 138.882 227.456 141.183 226.313C143.283 225.298 145.569 224.532 147.669 223.517C148.641 223.044 149.662 222.512 150.635 222.039C150.789 221.97 150.991 221.843 151.087 221.726C152.447 220.301 153.984 219.02 155.169 217.452C155.924 216.41 156.62 215.321 157.141 214.087C157.832 212.408 158.136 210.606 157.849 208.809C157.62 207.06 157.237 205.38 156.584 203.674C154.24 197.949 149.897 194.786 143.72 194.222C140.573 193.893 137.65 194.722 134.806 195.811C133.929 196.168 132.993 196.476 132.057 196.784C129.416 197.746 127.204 199.256 125.386 201.478ZM125.928 203.678C126.263 203.269 126.55 202.918 126.885 202.509C130.208 198.687 136.31 197.433 139.877 198.204C142.125 198.677 143.954 199.783 145.315 201.579C147.478 204.423 148.716 207.682 148.913 211.259C149.051 214.789 147.733 217.712 145.181 220.115C143.905 221.316 142.385 222.22 140.854 223.017C136.867 225.026 132.965 224.665 129.08 222.852C126.768 221.741 124.971 219.88 123.626 217.706C122.478 215.888 121.957 213.9 122.335 211.769C122.547 210.674 122.654 209.589 122.866 208.494C122.967 207.894 122.951 207.197 123.722 206.852C123.876 206.783 123.961 206.559 123.999 206.395C124.376 205.337 125.152 204.508 125.928 203.678ZM144.454 197.263C144.725 197.29 144.937 197.268 145.161 197.353C146.915 197.715 148.547 198.464 150.046 199.496C151.885 200.708 153.283 202.34 154.239 204.392C154.93 205.933 155.361 207.554 155.579 209.197C155.818 211.052 155.409 212.865 154.553 214.507C153.516 216.49 152.001 217.984 150.321 219.44C150.178 219.615 149.859 219.647 149.55 219.786C149.731 219.445 149.827 219.328 149.97 219.153C151.161 217.101 151.916 214.986 151.943 212.567C152.033 207.565 150.417 203.217 147.095 199.522C146.266 198.746 145.341 198.087 144.454 197.263Z" fill="#277D2A"/>
<path d="M133.625 208.707C133.498 208.505 133.477 208.293 133.36 208.197C131.802 207.118 129.968 206.496 128.023 206.368C127.858 206.331 127.55 206.469 127.406 206.644C127.215 206.878 127.247 207.197 127.481 207.389C127.842 207.782 128.193 208.069 128.602 208.404C129.07 208.787 129.692 209.1 130.181 209.696C129.67 209.962 129.197 210.063 128.793 210.318C128.331 210.525 127.927 210.78 127.534 211.142C127.14 211.503 127.252 212.082 127.757 212.3C128.038 212.433 128.262 212.518 128.533 212.545C129.24 212.635 129.936 212.619 130.585 212.662C130.691 212.651 130.835 212.476 130.824 212.37C130.813 212.263 130.792 212.051 130.686 212.061C130.51 211.918 130.239 211.891 130.016 211.806C129.686 211.732 129.298 211.609 128.804 211.498C129.054 211.312 129.091 211.147 129.245 211.078C129.66 210.929 130.122 210.722 130.537 210.573C131.674 210.137 131.823 209.478 130.829 208.665C130.42 208.33 130.021 208.101 129.612 207.766C129.437 207.623 129.213 207.538 128.756 207.261C129.24 207.266 129.453 207.245 129.617 207.282C130.606 207.506 131.451 207.904 132.307 208.409C132.754 208.58 133.104 208.867 133.625 208.707Z" fill="#277D2A"/>
<path d="M135.72 203.881C135.848 204.083 135.965 204.178 136.034 204.333C136.23 204.689 136.501 204.715 136.831 204.79C137.267 204.853 137.788 204.694 138.5 204.301C138.474 203.498 137.644 203.796 137.187 203.519C137.203 203.142 137.278 202.812 137.187 202.446C137.123 201.808 136.608 201.483 135.991 201.76C135.789 201.887 135.587 202.015 135.433 202.084C134.327 202.839 133.844 203.907 133.487 205.178C133.45 205.342 133.413 205.507 133.471 205.555C133.541 205.709 133.61 205.863 133.833 205.948C133.891 205.996 134.152 205.917 134.2 205.858C134.535 205.449 134.763 205.05 135.098 204.641C135.289 204.407 135.481 204.173 135.72 203.881Z" fill="#277D2A"/>
<path d="M141.216 210.525C140.764 210.839 140.562 210.967 140.313 211.153C139.919 211.514 139.749 211.961 140.063 212.412C140.376 212.864 140.738 213.258 141.099 213.651C141.275 213.795 141.546 213.821 141.748 213.694C141.998 213.508 141.918 213.247 141.79 213.045C141.535 212.641 141.338 212.285 141.025 211.833C141.594 211.615 142.056 211.408 142.46 211.153C142.97 210.887 142.965 210.297 142.497 209.914C142.439 209.866 142.38 209.818 142.263 209.723C140.584 209.032 138.947 208.766 137.208 209.101C137.028 209.441 137.107 209.701 137.378 209.728C137.814 209.792 138.192 209.808 138.628 209.872C139.451 210.058 140.265 210.137 141.216 210.525Z" fill="#277D2A"/>
<path d="M133.381 218.073C133.827 218.243 134.109 218.376 134.391 218.509C134.689 218.265 134.667 218.052 134.54 217.85C134.412 217.648 134.226 217.398 133.944 217.265C133.487 216.989 132.956 217.042 132.562 217.403C132.323 217.696 132.094 218.094 131.807 218.445C131.297 217.637 131.377 216.824 131.494 215.846C131.186 215.984 130.973 216.005 130.936 216.17C130.803 216.452 130.67 216.734 130.596 217.063C130.479 218.041 130.68 218.987 131.095 219.912C131.233 220.221 131.467 220.412 131.845 220.428C132.164 220.396 132.307 220.221 132.44 219.939C132.801 219.259 133.067 218.695 133.381 218.073Z" fill="#277D2A"/>
<path d="M137.798 206.948C137.915 207.044 138.032 207.139 138.138 207.129C138.798 207.277 139.425 207.107 139.797 206.533C139.988 206.299 140.004 205.922 139.76 205.624C139.574 205.375 139.127 205.204 138.877 205.39C138.473 205.646 138.08 206.007 137.793 206.358C137.649 206.533 137.788 206.842 137.798 206.948Z" fill="#277D2A"/>
<path d="M127.437 216.627C127.474 216.463 127.549 216.133 127.565 215.756C127.581 215.378 127.23 215.091 126.852 215.075C126.533 215.107 126.284 215.293 126.268 215.67C126.193 216 126.225 216.319 126.257 216.638C126.278 216.851 126.464 217.1 126.629 217.138C126.794 217.175 126.996 217.047 127.256 216.968C127.256 216.968 127.246 216.861 127.437 216.627Z" fill="#277D2A"/>
<path d="M137.579 216.043C137.696 216.139 137.813 216.234 137.978 216.271C138.318 216.452 138.781 216.245 138.797 215.867C138.85 215.325 138.467 214.719 137.973 214.608C137.643 214.533 137.383 214.613 137.25 214.895C137.165 215.118 137.186 215.331 137.207 215.543C137.229 215.756 137.404 215.899 137.579 216.043Z" fill="#277D2A"/>
<path d="M135.767 219.929C136.176 220.264 136.591 220.115 136.665 219.785C136.777 219.291 136.734 218.866 136.479 218.462C136.293 218.212 136.011 218.079 135.761 218.265C135.607 218.334 135.416 218.568 135.379 218.733C135.267 219.227 135.522 219.631 135.767 219.929Z" fill="#277D2A"/>
<path d="M129.734 204.157C130.144 204.492 130.452 204.353 130.585 204.072C130.707 203.684 130.665 203.258 130.362 202.913C130.234 202.711 129.846 202.589 129.644 202.716C129.501 202.892 129.309 203.126 129.32 203.232C129.469 203.646 129.665 204.003 129.734 204.157Z" fill="#277D2A"/>
<path d="M161.098 167.735C160.518 167.847 159.88 167.91 159.359 168.07C158.684 168.298 158.498 169.122 158.977 169.611C159.28 169.957 159.646 169.867 159.806 169.314C159.854 169.255 159.843 169.149 159.939 169.032C160.625 168.91 161.358 168.729 162.033 168.501C162.448 168.352 162.852 168.097 163.256 167.841C163.601 167.538 163.442 167.018 163.043 166.789C162.926 166.693 162.703 166.608 162.538 166.571C160.97 166.459 159.296 166.358 157.728 166.247C157.621 166.257 157.478 166.433 157.43 166.491C157.441 166.597 157.462 166.81 157.568 166.799C158.015 166.97 158.461 167.14 158.897 167.203C159.604 167.294 160.359 167.326 161.114 167.358C161.076 167.522 161.087 167.629 161.098 167.735Z" fill="#277D2A"/>
<path d="M150.758 167.963C151.008 168.851 150.354 169.292 150.253 169.893C150.439 170.143 150.546 170.132 150.689 169.957C150.785 169.84 150.928 169.664 151.024 169.547C151.577 168.633 151.641 168.197 151.109 167.177C151.736 167.007 152.273 167.544 152.959 167.421C153.14 167.081 152.917 166.996 152.8 166.9C152.518 166.767 152.295 166.682 152.013 166.549C150.625 166.098 149.164 165.975 147.675 166.124C146.931 166.198 146.527 166.454 146.607 166.714C146.708 167.187 147.202 167.299 147.58 167.315C148.287 167.405 148.994 167.496 149.594 167.597C149.993 167.825 150.322 167.9 150.758 167.963Z" fill="#277D2A"/>
<path d="M154.404 171.142C153.373 171.568 153.634 172.562 152.98 173.003C152.719 172.009 153.448 171.238 153.527 170.425C153.294 170.233 153.139 170.302 153.044 170.419C151.837 171.775 151.736 173.449 152.225 175.118C152.294 175.273 152.586 175.512 152.693 175.501C152.857 175.538 153.155 175.294 153.192 175.129C153.448 174.459 153.596 173.8 153.745 173.141C153.953 172.53 154.16 171.918 154.404 171.142Z" fill="#277D2A"/>
<path d="M153.215 162.457C153.369 161.314 153.013 160.437 152.55 159.57C152.481 159.416 152.2 159.283 152.035 159.246C151.716 159.278 151.583 159.559 151.556 159.831C151.524 160.585 151.647 161.271 151.934 161.994C152.38 162.164 152.768 162.286 153.215 162.457Z" fill="#277D2A"/>
<path d="M146.575 171.764C146.904 171.838 147.08 171.982 147.292 171.961C147.872 171.849 148.382 171.583 148.951 171.365C149.057 171.355 149.19 171.073 149.121 170.919C149.052 170.765 148.924 170.563 148.807 170.467C148.079 170.164 147.345 170.345 146.739 170.727C146.692 170.786 146.596 170.903 146.548 170.961C146.522 171.232 146.601 171.493 146.575 171.764Z" fill="#277D2A"/>
<path d="M157.222 173.545C157.572 173.832 157.817 174.13 158.163 173.827C158.412 173.641 158.535 173.253 158.279 172.849C158.083 172.493 157.838 172.195 157.487 171.908C157.254 171.717 156.781 171.817 156.637 171.993C156.446 172.227 156.419 172.498 156.605 172.748C156.802 173.104 156.988 173.354 157.222 173.545Z" fill="#277D2A"/>
<path d="M157.531 161.596C157.244 161.946 157.345 162.419 157.696 162.706C157.988 162.946 158.461 162.845 158.807 162.542C159.046 162.249 159.051 161.766 158.817 161.574C158.408 161.239 157.877 161.293 157.531 161.596Z" fill="#277D2A"/>
<path d="M148.642 161.84C148.94 162.669 148.94 162.669 149.982 163.424C150.386 163.169 150.189 162.813 149.955 162.621C149.7 162.217 149.328 161.718 148.642 161.84Z" fill="#277D2A"/>
<path d="M80.7772 205.292C83.3605 207.504 88.3838 208.881 92.5779 206.26C93.1361 205.936 93.6942 205.612 94.1354 205.192C95.7302 203.959 96.7614 202.46 97.208 200.482C97.7291 198.175 97.66 195.874 96.9425 193.53C96.0974 190.983 94.4283 189.325 92.0098 188.224C91.5048 188.006 91.0477 187.73 90.5799 187.347C89.7613 186.677 88.8098 186.289 87.7095 186.56C86.6091 186.831 85.5088 187.103 84.4297 187.586C82.213 188.506 80.4269 189.973 78.9438 191.785C76.1689 195.177 76.7109 199.525 78.3427 202.422C79.0497 203.586 79.8417 204.527 80.7772 205.292ZM92.3924 189.904C94.0881 191.292 95.098 192.801 95.4434 194.646C95.656 195.698 95.7145 196.82 95.7144 197.894C95.6346 200.854 94.3481 203.023 91.6318 204.315C91.5839 204.373 91.5839 204.373 91.4776 204.384C88.251 205.941 85.2689 205.649 82.3773 203.576C78.9594 201.072 77.737 195.288 82.2235 191.833C84.2701 190.287 86.4868 189.367 88.9586 188.851C89.8569 188.708 90.7287 188.836 91.4782 189.351C91.8768 189.58 92.2755 189.808 92.3924 189.904Z" fill="#277D2A"/>
<path d="M89.1287 194.847C88.4643 195.182 87.954 195.448 87.5021 195.762C86.944 196.086 86.6675 196.543 86.8376 197.17C87.0077 197.798 87.417 198.132 88.0655 198.175C88.6077 198.228 89.1977 198.223 89.8356 198.159C89.9472 198.739 90.0588 199.318 90.2183 199.839C90.4202 200.785 91.0156 201.37 91.6641 201.412C92.4189 201.444 93.1684 200.886 93.5671 200.041C93.7851 199.536 93.8861 198.935 93.7745 198.356C93.615 197.835 93.7267 197.341 94.0031 196.884C94.4869 195.815 94.5082 194.954 93.7162 194.013C93.5301 193.763 93.4982 193.444 93.36 193.136C93.2112 192.721 93.0039 192.259 92.7488 191.855C91.9834 190.643 90.713 190.287 89.3734 190.85C88.4485 191.265 88.1561 192.099 88.5706 193.024C88.6504 193.285 88.8843 193.476 88.964 193.737C88.9587 194.22 89.0384 194.481 89.1287 194.847ZM90.4576 197.399C90.0801 197.383 89.6921 197.261 89.421 197.234C89.0436 197.218 88.6183 197.261 88.1931 197.303C88.0868 197.314 87.9114 197.17 87.8423 197.016C87.8316 196.91 87.9167 196.687 87.9645 196.628C88.3685 196.373 88.7832 196.224 89.1872 195.969C90.1493 195.39 90.346 194.672 89.7082 193.662C89.5221 193.412 89.3361 193.162 89.1501 192.913C88.9534 192.556 89.0757 192.168 89.4318 191.972C90.394 191.392 91.3933 191.722 91.9248 192.743C92.063 193.051 92.1534 193.418 92.2916 193.726C92.4404 194.141 92.5414 194.614 92.8337 194.853C93.4291 195.438 93.3865 196.086 93.0144 196.66C92.6529 197.341 92.5041 198 92.6848 198.733C92.7857 199.206 92.6263 199.759 92.2914 200.169C92.0043 200.519 91.4621 200.466 91.3133 200.052C91.1538 199.531 91.0528 199.058 90.8934 198.537C90.7552 198.228 90.6649 197.862 90.4576 197.399Z" fill="#277D2A"/>
<path d="M91.3294 195.379C90.9361 195.741 90.9041 196.495 91.2549 196.782C91.3719 196.878 91.643 196.905 91.7971 196.836C92.249 196.522 92.2225 195.719 91.7069 195.395C91.6484 195.347 91.4358 195.368 91.3294 195.379Z" fill="#277D2A"/>
<path d="M126.363 108.662C123.843 111.383 122.881 117.331 126.219 121.722C128.138 124.268 130.615 125.417 133.756 125.156C136.579 124.928 139.231 124.072 141.342 122.089C141.64 121.845 141.985 121.542 142.166 121.202C143.893 118.613 144.904 115.828 144.808 112.723C144.707 110.103 143.692 108.003 141.406 106.621C141.231 106.477 140.997 106.286 140.784 106.307C139.301 105.972 137.94 105.249 136.372 105.138C135.182 105.042 134.002 105.053 132.811 104.957C131.843 104.946 130.897 105.148 130.089 105.658C128.771 106.434 127.415 107.375 126.363 108.662ZM136.808 106.275C136.92 106.855 136.962 107.28 137.552 107.275C137.823 107.301 138.094 107.328 138.424 107.402C141.156 107.881 142.671 109.608 142.947 112.372C143.203 114.924 142.517 117.194 141.172 119.315C140.475 120.404 139.651 121.292 138.525 121.834C136.733 122.711 134.851 123.221 132.858 123.152C130.014 123.168 127.989 121.706 126.729 119.309C124.81 115.689 125.805 111.133 129.042 108.609C129.435 108.247 129.887 107.933 130.291 107.678C130.897 107.296 131.562 106.961 132.247 106.839C133.714 106.477 135.144 106.28 136.808 106.275Z" fill="#277D2A"/>
<path d="M154.616 103.958C152.606 104.266 151.4 105.622 150.719 107.408C149.348 110.874 149.688 114.276 151.67 117.46C152.436 118.672 153.43 119.485 154.817 119.937C156.263 120.437 157.688 120.724 159.187 120.681C159.67 120.687 160.154 120.692 160.569 120.543C163.657 119.751 166.07 118.114 167.495 115.18C168.521 113.091 168.521 110.943 167.66 108.775C166.948 107.02 165.688 105.697 163.806 105.133C163.525 105 163.301 104.915 162.913 104.793C163.2 104.442 163.488 104.091 163.668 103.751C163.945 103.294 163.822 102.608 163.472 102.321C163.062 101.986 162.579 101.981 162.175 102.236C161.925 102.422 161.723 102.55 161.473 102.736C161.271 102.863 161.069 102.991 160.819 103.177C160.564 102.773 160.309 102.369 160.006 102.023C159.458 101.38 159.081 101.364 158.331 101.922C158.177 101.991 158.034 102.167 157.89 102.342C157.492 102.114 157.141 101.827 156.742 101.598C156.12 101.284 155.387 101.465 155.073 102.087C154.807 102.65 154.765 103.299 154.616 103.958ZM160.484 105.734C159.942 105.681 159.389 105.521 158.741 105.479C158.034 105.388 157.327 105.298 156.63 105.314C156.524 105.324 156.428 105.441 156.072 105.638C157.226 105.898 158.108 106.132 158.98 106.26C159.804 106.446 160.628 106.632 161.377 106.074C161.531 106.005 161.85 105.973 162.015 106.01C163.285 106.366 164.412 106.898 165.273 107.993C167.426 110.731 166.57 114.521 164.46 116.503C161.956 118.848 159.011 119.464 155.742 118.449C154.578 118.082 153.759 117.412 153.074 116.46C151.437 114.047 151.182 111.496 152.154 108.875C152.399 108.099 152.798 107.254 153.451 106.813C154.403 106.127 155.121 105.25 156.003 104.41C156.152 103.751 155.216 102.985 156.216 102.241C156.625 102.576 157.034 102.911 157.444 103.246C157.736 103.485 158.066 103.56 158.422 103.363C158.682 103.283 158.943 103.203 159.251 103.065C159.48 103.74 159.697 104.309 160.309 104.516C160.872 104.782 160.644 105.181 160.484 105.734Z" fill="#277D2A"/>
<path d="M139.349 110.209C139.349 110.209 139.328 109.996 139.307 109.784C139.158 108.295 138.185 107.695 136.835 108.152C136.208 108.322 135.825 108.789 135.782 109.438C135.719 109.874 135.713 110.358 135.718 110.948C135.022 110.964 134.374 110.921 133.736 110.985C132.992 111.059 132.386 111.442 132.141 112.218C131.896 112.994 132.019 113.68 132.556 114.217C132.859 114.562 133.305 114.732 133.799 114.844C134.246 115.014 134.777 114.961 135.213 115.025C135.649 115.088 135.787 115.397 135.771 115.774C135.756 116.152 135.585 116.598 135.628 117.023C135.468 118.65 136.457 119.947 138.046 120.271C139.306 120.521 140.683 119.793 140.874 118.485C141.151 116.954 141.544 115.519 142.209 114.111C142.56 113.324 142.31 112.436 141.608 111.862C140.848 111.24 140.109 110.831 139.349 110.209ZM139.769 111.724C140.12 112.011 140.529 112.346 140.938 112.681C141.289 112.968 141.332 113.393 141.162 113.84C140.991 114.286 140.763 114.685 140.534 115.083C140.114 115.716 139.907 116.327 139.934 117.13C139.955 117.342 139.928 117.614 139.95 117.826C139.822 118.698 139.237 119.293 138.424 119.214C137.398 119.155 136.686 118.475 136.696 117.507C136.712 117.13 136.835 116.742 136.898 116.306C137.042 115.057 136.473 114.201 135.272 113.999C134.836 113.935 134.352 113.93 133.858 113.818C133.364 113.706 133.108 113.302 133.183 112.973C133.247 112.537 133.497 112.351 133.922 112.308C134.453 112.255 134.996 112.308 135.479 112.314C136.223 112.239 136.723 111.867 136.814 111.16C136.925 110.666 136.872 110.134 136.925 109.592C137.127 109.465 137.281 109.395 137.436 109.326C138.073 109.263 138.376 109.608 138.158 110.113C138.111 110.172 138.073 110.336 137.978 110.453C137.808 110.9 137.271 111.437 137.749 111.926C138.297 112.569 138.812 111.819 139.344 111.766C139.392 111.708 139.45 111.756 139.769 111.724Z" fill="#277D2A"/>
<path d="M139.009 113.249C138.599 112.914 138.02 113.026 137.733 113.377C137.398 113.786 137.462 114.424 137.93 114.807C138.339 115.142 139.025 115.02 139.301 114.562C139.578 114.105 139.466 113.526 139.009 113.249Z" fill="#277D2A"/>
<path d="M247.228 105.06C247.436 103.375 246.957 101.813 245.804 100.478C245.012 99.5374 244.018 98.7241 242.939 98.134C240.558 96.8688 238.075 96.2043 235.359 96.4221C234.827 96.4753 234.402 96.5178 233.918 96.5124C231.085 96.6346 228.268 96.3794 225.61 95.5713C223.787 95.0556 222.022 94.5878 220.124 94.4016C216.116 94.0507 212.263 94.7044 208.52 95.9375C204.624 97.2396 201.121 99.2542 197.814 101.625C193.461 104.798 189.41 108.317 185.615 112.24C184.445 113.43 183.228 114.68 182.058 115.87C180.495 117.422 178.677 118.57 176.546 119.267C176.025 119.426 175.504 119.586 175.041 119.793C174.733 119.931 174.483 120.117 174.233 120.303C173.84 120.665 174.069 121.34 174.515 121.51C174.845 121.584 175.116 121.611 175.435 121.579C176.556 121.521 177.726 121.404 178.858 121.452C180.203 121.478 181.596 121.446 182.962 121.686C183.786 121.872 184.578 121.739 185.29 121.345C186.465 120.745 187.703 120.782 188.889 121.361C190.967 122.281 193.045 123.201 195.124 124.121C197.659 125.317 200.195 126.513 202.73 127.709C204.421 128.506 206.111 129.304 207.934 129.819C212.697 131.276 217.534 131.329 222.26 129.73C224.806 128.884 227.097 127.635 229.319 126.232C233.311 123.739 236.815 120.651 240.201 117.467C242.455 115.309 244.076 112.731 245.485 110.174C246.388 108.473 246.973 106.804 247.228 105.06ZM186.284 115.716C188.421 113.462 190.452 111.219 192.775 109.215C195.932 106.43 199.218 103.847 202.689 101.513C205.698 99.3872 208.914 97.7235 212.464 96.7243C215.649 95.8154 218.934 95.3797 222.208 95.9114C223.08 96.039 223.962 96.2729 224.786 96.459C227.221 97.182 229.777 97.517 232.228 97.8626C233.265 98.0274 234.386 97.969 235.449 97.8627C238.224 97.6927 240.669 98.522 242.907 99.9626C243.082 100.106 243.316 100.298 243.55 100.489C245.304 101.924 245.862 103.747 245.118 105.969C244.581 107.58 243.763 109.058 242.721 110.45C241.269 112.582 239.526 114.474 237.49 116.127C234.061 118.886 230.622 121.538 226.88 123.845C224.86 125.121 222.818 126.184 220.591 126.997C216.349 128.602 211.969 128.825 207.568 127.762C205.697 127.305 203.852 126.577 202.055 125.79C198.792 124.291 195.586 122.839 192.285 121.505C191.111 121.032 189.946 120.665 188.735 120.357C187.629 120.038 186.507 120.096 185.487 120.628C184.668 121.032 183.818 121.117 182.887 120.941C182.228 120.792 181.521 120.702 180.814 120.612C182.93 119.219 184.578 117.444 186.284 115.716Z" fill="#277D2A"/>
<path d="M213.921 101.626C214.081 102.147 213.852 102.546 213.634 103.051C213.15 104.119 212.667 105.188 212.124 106.208C212.039 106.432 211.954 106.655 211.869 106.878C212.114 107.176 212.316 107.048 212.528 107.027C215.027 106.24 217.578 105.985 220.162 106.049C223.394 106.156 226.594 105.943 229.772 105.518C231.415 105.3 233.02 105.247 234.673 105.135C235.051 105.151 235.476 105.109 235.79 105.561C235.529 105.64 235.269 105.72 235.008 105.8C232.632 106.199 230.304 106.539 227.869 106.889C225.802 107.15 223.782 107.352 221.762 107.554C220.167 107.713 218.466 107.883 216.855 108.42C216.441 108.569 216.026 108.718 215.457 108.935C215.75 109.175 215.819 109.329 216.042 109.414C218.142 110.546 220.241 111.679 222.399 112.859C222.798 113.087 223.186 113.21 223.526 113.39C223.51 113.768 223.25 113.847 223.085 113.81C222.708 113.794 222.32 113.672 221.932 113.55C219.311 112.577 216.834 111.429 214.479 109.892C214.362 109.797 214.139 109.712 213.963 109.568C211.757 110.594 209.807 112.024 207.877 113.666C208.86 114.373 209.727 114.984 210.593 115.596C212.209 116.723 213.825 117.85 215.382 118.929C215.675 119.168 215.909 119.359 216.153 119.657C216.329 119.801 216.158 120.247 215.84 120.279C215.521 120.311 215.249 120.284 214.92 120.21C214.473 120.04 214.133 119.859 213.735 119.631C211.332 118.153 208.94 116.781 206.814 114.846C206.755 114.798 206.649 114.809 206.532 114.713C206.224 114.851 205.926 115.096 205.57 115.293C200.674 118.413 195.305 119.486 189.639 118.657C189.203 118.593 188.873 118.519 188.485 118.396C187.592 118.056 187.438 117.051 188.246 116.541C188.65 116.286 189.113 116.079 189.586 115.978C190.319 115.797 191.122 115.771 191.808 115.648C193.392 115.383 194.986 115.223 196.57 114.957C198.994 114.5 201.259 113.522 203.327 112.188C204.183 111.619 205.086 110.992 205.99 110.365C207.048 109.669 208.058 109.031 209.174 108.382C209.684 108.117 209.971 107.766 210.189 107.261C210.71 106.028 211.29 104.842 211.869 103.657C212.289 103.024 212.72 102.498 213.15 101.972C213.236 101.749 213.342 101.738 213.921 101.626Z" fill="#277D2A"/>
<path d="M233.238 112.258C233.143 112.375 232.999 112.551 232.834 112.514C232.574 112.593 232.303 112.567 232.079 112.482C231.303 112.237 230.538 112.099 229.81 111.796C229.422 111.674 229.177 111.376 228.933 111.078C228.874 111.03 228.901 110.759 228.938 110.594C228.986 110.536 229.14 110.467 229.246 110.456C229.4 110.387 229.565 110.424 229.624 110.472C230.751 111.004 231.925 111.477 232.994 111.961C233.111 112.056 233.121 112.163 233.238 112.258Z" fill="#277D2A"/>
<path d="M222.033 120.465C221.517 120.141 221.06 119.865 220.603 119.588C220.427 119.445 220.241 119.195 220.162 118.934C220.093 118.78 220.332 118.488 220.544 118.467C220.651 118.456 220.816 118.493 220.932 118.589C221.788 119.094 222.655 119.705 223.511 120.21C223.569 120.258 223.569 120.258 223.627 120.306C223.697 120.46 223.718 120.673 223.622 120.79C223.526 120.907 223.314 120.928 223.207 120.938C222.936 120.912 222.703 120.721 222.479 120.635C222.208 120.609 222.091 120.513 222.033 120.465Z" fill="#277D2A"/>
<path d="M202.306 108.425C202.168 108.116 201.934 107.925 201.961 107.654C201.865 106.697 201.934 105.777 202.227 104.943C202.274 104.884 202.264 104.778 202.37 104.767C202.524 104.698 202.572 104.64 202.737 104.677C202.843 104.666 202.912 104.821 203.029 104.916C203.04 105.023 203.109 105.177 203.013 105.294C202.886 106.165 202.71 107.096 202.593 108.074C202.487 108.084 202.391 108.201 202.306 108.425Z" fill="#277D2A"/>
</svg>
