<svg width="549" height="328" viewBox="0 0 549 328" fill="none" xmlns="http://www.w3.org/2000/svg">
<path d="M548.153 327.128H534.311C533.559 326.493 534.828 325.058 536.144 324.964C536.708 324.917 537.436 325.035 538.259 325.223C538.447 322.683 539.528 311.323 543.64 311.77C548.247 312.287 543.64 316.779 542.348 319.437C541.384 321.413 540.374 324.235 539.904 325.576C540.28 325.646 540.656 325.74 541.055 325.811C541.666 323.929 543.946 317.626 546.837 317.979C550.221 318.402 548.858 320.942 546.46 322.448C544.698 323.553 542.536 325.129 541.502 325.881C542.371 326.023 543.288 326.117 544.204 326.093C546.554 326.07 547.706 326.752 548.153 327.128Z" fill="#A8D29F"/>
<path d="M11.7255 326.046C10.5505 324.188 6.97839 319.366 2.25475 320.001C-2.9154 320.707 7.96542 324.094 11.279 326.046C10.5505 326.046 9.91597 325.999 9.44596 325.834C7.21339 325.035 3.40629 326.564 2.20775 327.104H23.3349C23.1939 326.587 22.8178 325.764 21.8308 325.176C21.4783 324.964 20.7733 324.941 19.8803 325.011C21.1493 323.529 22.0188 318.778 18.5172 320.001C15.9556 320.895 15.9556 323.788 16.2142 325.505C15.6736 325.599 15.1096 325.67 14.5691 325.764C13.5116 320.401 9.79847 304.643 2.23125 304.22C-5.42997 303.796 8.71744 320.566 13.4411 325.905C12.8301 325.952 12.2425 326.023 11.7255 326.046Z" fill="#A8D29F"/>
<path d="M152.33 160.702L154.093 158.585C154.093 158.585 155.479 153.576 161.049 154.516C161.049 154.516 163.328 155.081 162.388 156.492C161.472 157.903 161.613 157.245 160.367 159.267C159.122 161.29 157.03 162.56 155.315 162.254L153.388 162.701L152.33 160.702Z" fill="#FFB27D"/>
<path d="M155.103 160.232C153.928 158.632 153.599 158.562 153.599 158.562C153.599 158.562 136.326 166.535 134.752 167.405C130.616 169.663 107.044 168.534 107.044 168.534L103.778 181.87C103.778 181.87 133.13 179.753 138.676 176.766C145.257 173.191 156.114 162.842 156.114 162.842C156.114 162.842 156.02 161.478 155.103 160.232Z" fill="#1E3D70"/>
<path d="M236.135 50.3709L229.696 118.766L222.293 197.628C220.742 213.998 206.101 226.158 189.744 224.605C173.388 223.053 161.238 208.4 162.789 192.03L167.066 146.567L176.631 44.7732C178.182 28.4034 193.528 8.74091 209.885 10.2697C209.885 10.2697 236.981 15.9615 236.135 50.3709Z" fill="#F7B284"/>
<path d="M183.422 65.7058C183.422 65.7058 193.809 51.2647 227.603 47.8073C227.603 47.7838 214.584 67.5639 183.422 65.7058Z" fill="#E8A070"/>
<path d="M177.123 92.5888C177.123 92.5888 189.343 75.6076 229.107 71.5151C229.13 71.5151 213.808 94.7762 177.123 92.5888Z" fill="#E8A070"/>
<path d="M174.703 118.319C174.703 118.319 186.923 101.338 226.687 97.2458C226.71 97.2458 211.388 120.53 174.703 118.319Z" fill="#E8A070"/>
<path d="M190.495 40.8219C190.495 40.8219 197.78 30.6849 221.493 28.2623C221.493 28.2623 212.374 42.139 190.495 40.8219Z" fill="#E8A070"/>
<path d="M229.694 118.766L222.291 197.628C220.74 213.998 206.1 226.158 189.743 224.605C173.387 223.053 161.237 208.4 162.788 192.03L167.065 146.567C171.366 142.733 176.301 140.381 181.964 140.616C202.128 141.392 221.657 125.893 229.694 118.766Z" fill="#EFA97A"/>
<path d="M255.286 101.362C255.263 101.668 255.263 101.832 255.263 101.832C255.263 101.832 255.216 101.668 255.122 101.385C254.323 98.9157 250.398 86.709 246.85 73.1145C241.915 54.3222 237.661 32.8722 243.254 30.873C253.853 27.1099 255.803 57.1446 255.85 79.3238C255.85 90.2369 255.404 99.245 255.286 101.362Z" fill="#A8D29F"/>
<path d="M265.65 76.9482C261.82 85.4624 258.506 92.6124 256.579 96.893C255.756 98.7511 255.192 100.092 254.981 100.727C255.169 99.6683 255.662 96.8224 256.391 92.777C257.472 86.7089 259.023 77.9596 260.715 68.4811C264.851 45.3847 269.904 17.8666 271.079 13.9388C273.147 7.00047 282.735 -7.76994 289.174 5.07185C293.358 13.4449 277.213 51.3117 265.65 76.9482Z" fill="#A8D29F"/>
<path d="M266.425 89.0845C262.477 93.271 259.14 96.6578 257.284 98.5394C256.273 99.5743 255.686 100.139 255.686 100.139C255.686 100.139 256.696 97.9749 258.435 94.5175C260.057 91.2483 262.336 86.8266 264.992 82.005C273.687 66.1762 286.448 45.8787 294.391 47.0546C303.415 48.3953 280.784 73.9377 266.425 89.0845Z" fill="#A8D29F"/>
<path d="M255.286 101.362C255.239 101.362 255.169 101.362 255.122 101.385C254.323 98.9157 250.398 86.7089 246.85 73.1145C248.518 75.6076 251.526 78.9474 255.85 79.3237C255.85 90.2369 255.404 99.245 255.286 101.362Z" fill="#82B378"/>
<path d="M265.65 76.9482C261.819 85.4624 258.506 92.6124 256.579 96.893C256.438 95.6935 256.367 94.3058 256.367 92.8006C257.448 86.7325 258.999 77.9831 260.691 68.5046C261.396 71.7974 262.783 75.49 265.65 76.9482Z" fill="#82B378"/>
<path d="M266.426 89.0844C262.478 93.2709 259.141 96.6578 257.284 98.5393C257.472 97.4574 257.872 96.0698 258.436 94.5175C260.057 91.2482 262.337 86.8265 264.992 82.0049C265.039 84.0276 265.321 87.0617 266.426 89.0844Z" fill="#82B378"/>
<path d="M254.981 100.75C254.934 101.056 254.911 101.197 254.911 101.197C254.864 101.174 254.887 101.032 254.981 100.75Z" fill="#A8D29F"/>
<path d="M260.292 131.279C253.641 150.118 245.369 170.651 245.369 170.651L226.686 165.053C226.686 165.053 228.872 151.106 232.091 135.583C235.828 117.496 240.974 97.2458 245.651 94.4705C247.79 93.2004 250.046 92.5654 252.278 92.4008C253.406 92.3067 254.534 92.3537 255.615 92.4948C255.874 92.5184 256.132 92.5654 256.391 92.6124C257.049 92.73 257.683 92.8711 258.294 93.0593C258.529 93.1299 258.788 93.2004 259.023 93.2945C259.845 93.5767 260.644 93.906 261.42 94.3059C264.663 95.9522 267.201 98.4453 268.282 101.103C269.41 103.784 265.321 117.049 260.292 131.279Z" fill="#ED7D2B"/>
<path d="M259.329 149.389C256.603 164.677 257.473 180.882 261.891 197.675C262.619 200.474 264.57 202.732 267.084 203.908C268.212 204.449 269.434 204.755 270.727 204.825C273.547 204.402 278.388 198.475 280.621 191.466C281.232 189.537 281.655 187.538 281.796 185.539C282.83 169.922 286.12 150.824 292.113 140.452C298.246 129.844 306.73 116.979 319.491 107.148C320.713 106.183 348.961 78.7122 348.961 78.7122C351.616 74.9491 347.386 71.7504 347.386 71.7504C347.386 71.7504 344.778 74.8079 336.388 81.3699C327.998 87.932 311.101 84.0747 311.078 84.0747C306.283 82.6871 300.996 83.6514 296.954 86.9677C290.726 92.0714 282.595 99.9035 275.333 110.534C267.178 122.482 261.773 135.559 259.329 149.389Z" fill="#FFB93E"/>
<path d="M281.796 185.515C282.83 169.898 286.121 150.8 292.113 140.428C298.247 129.821 306.731 116.955 319.491 107.124C319.703 106.912 328.116 98.6334 316.789 93.8354C305.72 89.155 270.657 140.898 280.598 191.466C281.232 189.537 281.655 187.538 281.796 185.515Z" fill="#FFA412"/>
<path d="M182.692 137.041C181.376 139.111 179.755 141.11 177.851 142.992C170.637 150.095 159.309 155.387 144.739 155.246C144.739 155.246 138.629 149.413 135.644 141.98C133.576 136.83 132.095 129.233 135.644 123.611C137.947 119.989 140.885 118.272 143.869 117.355C148.945 115.803 154.139 116.603 156.419 114.345C158.651 112.11 161.847 110.182 165.349 109.076C165.913 108.888 166.5 108.723 167.088 108.606C167.323 108.559 167.582 108.488 167.817 108.441C167.817 108.441 167.817 108.441 167.84 108.441C173.222 107.383 178.979 108.418 182.998 113.239C183.938 114.345 184.761 115.709 185.489 117.332C188.051 123.071 186.946 130.385 182.692 137.041Z" fill="#A8D29F"/>
<path d="M140.297 122.765C140.297 122.765 135.479 126.551 136.96 130.738C138.44 134.924 142.248 132.996 143.423 130.103C144.621 127.186 143.47 121.354 140.297 122.765Z" fill="#D1F2C9"/>
<path d="M182.998 113.216C183.938 114.321 184.76 115.685 185.489 117.308C188.05 123.07 191.576 138.382 187.345 145.061L181.658 150.259C174.444 157.362 159.333 155.387 144.762 155.269C144.762 155.269 138.652 149.436 135.667 142.004C135.667 142.004 153.692 149.154 170.683 134.242C178.392 127.445 181.682 119.684 182.998 113.216Z" fill="#95C38B"/>
<path d="M155.479 105.595C152.494 103.831 149.486 106.324 145.985 107.689C142.483 109.053 135.762 109.029 135.762 109.029C135.762 109.029 138.535 105.031 143.07 101.079C147.606 97.1282 155.479 105.595 155.479 105.595Z" fill="#A8D29F"/>
<path d="M155.479 105.595C152.682 103.29 147.512 101.973 144.974 103.008C142.459 104.043 135.762 109.029 135.762 109.029C135.762 109.029 138.535 105.031 143.07 101.079C147.606 97.1282 155.479 105.595 155.479 105.595Z" fill="#82B378"/>
<path d="M156.442 114.345C158.675 112.11 161.871 110.182 165.373 109.076C159.427 111.311 156.137 118.86 153.881 117.967C151.46 117.026 144.175 117.332 143.893 117.355C148.969 115.803 154.163 116.603 156.442 114.345Z" fill="#95C38B"/>
<path d="M167.817 108.441C167.629 108.488 167.394 108.559 167.088 108.606C167.323 108.535 167.582 108.488 167.817 108.441Z" fill="#95C38B"/>
<path d="M154.28 117.826C152.377 113.616 153.411 108.371 154.609 104.725C155.573 101.832 157.406 97.9043 158.299 96.0463C158.487 95.6465 159.051 95.6935 159.192 96.1169L159.544 97.2223C159.897 98.3277 159.779 99.5272 159.168 100.515C157.335 103.573 153.622 110.699 155.291 116.556C155.502 117.214 154.633 118.578 154.28 117.826Z" fill="#82B378"/>
<path d="M260.292 131.279C253.641 150.118 245.369 170.651 245.369 170.651L226.686 165.053C226.686 165.053 228.871 151.106 232.091 135.583V135.559C232.091 135.559 235.874 144.097 244.875 143.909C250.022 143.815 256.061 137.065 260.292 131.279Z" fill="#DB6F26"/>
<path d="M298.927 142.898L319.89 292.272C322.498 310.805 308.116 327.34 289.433 327.34H257.871C241.938 327.34 229.53 313.487 231.245 297.634L248.988 158.679L298.927 142.898Z" fill="#FCECDB"/>
<path d="M188.873 142.898C188.873 142.898 239.658 160.232 298.903 142.898L281.442 327.81H170.895L188.873 142.898Z" fill="#FCECDB"/>
<path d="M188.873 142.898L209.836 292.272C212.445 310.805 198.062 327.34 179.379 327.34H147.794C131.861 327.34 119.452 313.487 121.168 297.634L136.185 142.898C136.185 142.898 143.212 147.978 161.19 147.978C179.003 147.978 188.873 142.898 188.873 142.898Z" fill="#F9DDBF"/>
<path d="M250.468 205.225C247.93 205.225 245.298 205.013 242.525 204.567C220.176 200.968 213.29 161.502 213.008 159.832L217.45 159.079C217.473 159.22 219.142 168.911 223.278 178.836C226.968 187.679 233.43 198.545 243.23 200.121C254.393 201.932 263.441 199.698 269.41 193.653C276.484 186.503 278.998 174.508 276.484 159.832L280.925 159.079C283.698 175.214 280.737 188.62 272.63 196.828C267.107 202.379 259.54 205.225 250.468 205.225Z" fill="#F9DDBF"/>
<path d="M215.57 163.477C217.737 163.477 219.494 161.719 219.494 159.55C219.494 157.38 217.737 155.622 215.57 155.622C213.402 155.622 211.645 157.38 211.645 159.55C211.645 161.719 213.402 163.477 215.57 163.477Z" fill="#F9DDBF"/>
<path d="M278.928 163.477C281.095 163.477 282.852 161.719 282.852 159.55C282.852 157.38 281.095 155.622 278.928 155.622C276.76 155.622 275.003 157.38 275.003 159.55C275.003 161.719 276.76 163.477 278.928 163.477Z" fill="#F9DDBF"/>
<path d="M251.456 224.535L259.07 228.815L267.389 216.115H257.096L251.456 224.535Z" fill="#F9DDBF"/>
<path d="M266.307 228.204L263.276 229.921L272.982 230.344L276.695 222.888L273.875 224.37L269.081 216.467C269.081 216.467 263.957 224.088 263.91 224.253C263.91 224.253 266.331 228.204 266.495 228.321L266.307 228.204Z" fill="#F9DDBF"/>
<path d="M278.67 231.99L271.126 236.389L277.824 250.007L283.064 241.14L278.67 231.99Z" fill="#F9DDBF"/>
<path d="M268 241.939L268.047 239.47L262.76 247.608L267.295 254.593L267.225 251.3L276.672 251.277C276.672 251.277 272.066 242.057 271.949 241.939H268Z" fill="#F9DDBF"/>
<path d="M258.646 251.3L258.552 242.269L244.452 241.939L249.081 251.3H258.646Z" fill="#F9DDBF"/>
<path d="M254.933 235.965L257.753 237.988L254.04 229.027L245.721 228.815L248.259 230.744L244.146 240.34C244.146 240.34 252.818 240.481 252.983 240.458C252.983 240.458 254.933 235.965 254.957 235.777L254.933 235.965Z" fill="#F9DDBF"/>
<path d="M94.166 165.97C94.166 165.97 99.3362 172.133 105.94 169.545C105.94 169.545 107.35 166.112 107.373 163.571C107.373 163.266 107.373 162.96 107.373 162.678C107.42 159.832 107.514 158.233 107.514 158.233C107.209 158.115 97.4326 154.093 97.4326 154.422C97.5971 162.137 94.166 165.97 94.166 165.97Z" fill="#FFB27D"/>
<path d="M98.42 156.257C99.36 157.997 102.603 161.431 107.397 162.678C107.444 159.832 107.538 158.232 107.538 158.232C107.256 158.162 98.138 155.739 98.42 156.257Z" fill="#ED975D"/>
<path d="M109.582 157.927C109.582 157.927 98.5842 160.514 97.0801 153.623C95.5761 146.731 93.132 142.427 100.112 140.499C107.068 138.546 109.018 140.875 110.076 143.062C111.11 145.25 112.403 157.08 109.582 157.927Z" fill="#FFB27D"/>
<path d="M97.4322 155.504C97.2912 155.598 94.9176 156.327 90.429 147.39C89.724 145.979 89.254 142.945 90.8755 140.263C92.5206 137.582 98.3252 135.465 103.166 134.548C108.008 133.631 109.159 136.359 110.311 139.087C111.509 141.957 114.964 144.332 114.964 144.332C110.804 146.661 105.775 143.321 104.036 143.885C102.297 144.426 101.686 147.178 101.545 148.048C101.404 148.919 101.216 149.648 99.0303 148.872C96.8447 148.095 98.0432 151.976 98.3957 152.705C98.3957 152.729 98.7012 154.705 97.4322 155.504Z" fill="#A9453D"/>
<path d="M69.0911 327.175H62.4169C61.0303 327.175 59.4793 325.764 59.0798 323.224C58.6803 320.66 55.8132 319.272 55.2022 317.156C54.5912 315.062 57.7637 312.099 57.7637 312.099L58.3043 311.417L58.8683 310.711L64.1559 311.958C64.1559 311.958 64.2969 313.204 64.3674 314.827C64.4144 315.98 64.4615 317.32 64.3909 318.496C64.2264 321.295 65.1665 324.306 67.6575 324.846C70.1251 325.364 69.0911 327.175 69.0911 327.175Z" fill="#2C3A64"/>
<path d="M115.482 327.175H97.8095C97.645 327.151 97.504 327.104 97.4335 327.057C96.2584 326.469 96.6345 321.954 96.7755 320.542C96.799 320.284 96.8225 320.143 96.8225 320.143C96.8225 320.143 103.027 315.18 103.896 318.967C103.92 319.084 103.943 319.202 103.99 319.319C105.071 322.871 109.889 324.494 112.662 324.941C114.777 325.293 115.341 326.54 115.482 327.175Z" fill="#2C3A64"/>
<path d="M111.909 225.24C111.909 225.24 110.969 237.024 109.865 251.183C108.361 270.422 106.551 294.036 106.363 298.504C106.058 306.266 104.812 318.708 104.812 318.708C104.812 318.708 101.874 321.671 95.9523 320.425C95.9523 320.425 90.6882 302.691 89.1841 283.899C89.1606 283.593 89.1371 283.287 89.1136 282.981C87.7271 263.86 85.5415 223.617 85.5415 223.617L111.909 225.24Z" fill="#2B478B"/>
<path d="M111.91 225.24C111.91 225.24 110.97 237.024 109.865 251.183L89.208 283.899C89.1845 283.593 89.161 283.287 89.1375 282.981C87.751 263.86 85.5654 223.617 85.5654 223.617L111.91 225.24Z" fill="#233862"/>
<path d="M107.609 226.628C107.609 226.628 90.6176 269.293 79.4312 289.332C68.2449 309.37 64.7668 314.968 64.7668 314.968C64.7668 314.968 58.3511 312.405 57.7871 310.664C57.7871 310.664 62.0642 271.974 69.5375 262.543C73.7676 257.204 78.7262 241.21 78.9612 235.613C79.1962 230.015 80.4653 218.937 80.4653 218.937L107.609 226.628Z" fill="#2B478B"/>
<path d="M115.504 191.395C115.434 195.041 115.222 199.133 114.94 203.296C114.917 203.532 114.917 203.79 114.893 204.025C114.705 206.613 114.517 209.2 114.282 211.716C114.188 212.728 114.094 213.716 114 214.703L113.977 214.845C113.977 215.221 113.93 215.621 113.883 215.973C112.943 225.428 111.979 232.884 111.791 233.002C111.58 233.143 111.321 233.213 111.063 233.19C108.595 232.884 101.192 233.449 95.1526 232.132C90.053 231.05 85.6583 229.003 81.0052 226.252C80.3942 225.875 78.9841 224.911 79.1016 224.205C79.2191 223.406 79.4307 222.253 79.6892 220.819C80.6057 215.785 82.1802 207.154 82.7208 197.04C82.8148 195.159 82.9793 193.3 83.1673 191.466C83.6843 186.691 84.5068 182.176 85.6348 178.154C87.7029 170.674 91.886 165.1 95.6931 162.866C96.1866 162.584 97.7847 163.736 100.252 165.335C102.532 166.794 104.694 166.888 107.02 166.041L109.277 169.687C111.768 172.58 114.4 176.437 115.128 181.917C115.175 182.317 115.222 182.74 115.269 183.21C115.504 185.398 115.575 188.22 115.504 191.395Z" fill="#2A4E96"/>
<path d="M115.504 191.395C115.434 195.041 115.222 199.133 114.94 203.296C114.917 203.532 114.917 203.79 114.893 204.026C100.746 195.159 98.584 178.953 98.584 178.953C105.54 179.259 111.063 180.859 115.316 183.14C115.504 185.398 115.575 188.22 115.504 191.395Z" fill="#1E3D70"/>
<path d="M159.451 174.273C159.663 173.826 159.639 173.356 159.851 172.509C160.062 171.662 160.18 169.945 160.509 169.969C160.838 170.016 161.12 170.58 161.049 171.027C161.002 171.309 161.096 171.921 161.237 172.344C162.013 171.874 163.258 170.839 163.705 170.181C165.585 167.523 166.642 167.052 167.136 169.593C167.418 171.004 167.253 172.697 166.337 174.72C165.185 177.26 163.047 177.613 161.002 177.895C160.438 177.966 159.005 178.977 159.005 178.977L156.725 175.802C156.725 175.802 159.146 174.908 159.451 174.273Z" fill="#FFB27D"/>
<path d="M159.803 176.507C159.075 174.532 157.947 174.673 157.947 174.673C157.947 174.673 136.937 179.918 135.034 180.129C133.154 180.365 112.403 172.015 112.403 172.015C112.403 172.015 104.248 168.346 100.417 171.686C97.1037 174.602 96.9391 178.271 97.7147 181.376C98.6312 185.069 101.757 187.797 105.54 188.267C114.001 189.349 130.898 191.372 134.423 190.878C142.295 189.773 160.156 179.471 160.156 179.471C160.156 179.471 160.367 178.06 159.803 176.507Z" fill="#2A4E96"/>
<path d="M297.658 240.904L304.896 244.621L306.353 239.587C306.353 239.587 305.437 237.847 305.014 235.001C304.849 233.802 304.755 232.414 304.873 230.862L298.974 233.896C298.974 233.896 299.115 234.437 299.209 235.26C299.303 236.13 299.35 237.306 299.115 238.411C298.88 239.329 298.457 240.246 297.658 240.904Z" fill="#FFB27D"/>
<path d="M310.584 241.916C310.584 241.916 317.282 233.261 320.525 230.556C320.525 230.556 324.966 219.572 325.342 218.843C325.695 218.114 328.021 219.455 328.021 219.455C328.021 219.455 326.376 230.133 324.661 233.308C322.945 236.483 317.587 247.09 313.827 247.49C310.043 247.89 310.584 241.916 310.584 241.916Z" fill="#FFB27D"/>
<path d="M316.529 320.919C316.529 320.919 316.67 322.565 315.448 323.765C314.673 324.517 314.203 325.482 314.156 326.422C314.109 327.222 314.978 327.763 315.66 327.316L322.827 322.777C323.438 322.4 323.579 321.554 323.133 320.989C322.733 320.495 322.287 319.907 321.981 319.437C321.276 318.426 319.702 318.261 319.702 318.261L316.529 320.919Z" fill="#2C3A64"/>
<path d="M296.506 314.968C296.506 314.968 297.258 316.45 296.553 318.026C296.107 319.014 296.036 320.072 296.318 320.966C296.553 321.742 297.564 321.907 298.057 321.248L303.063 314.38C303.486 313.792 303.321 312.969 302.687 312.616C302.146 312.287 301.512 311.911 301.042 311.605C300.008 310.923 298.48 311.346 298.48 311.346L296.506 314.968Z" fill="#2C3A64"/>
<path d="M284.098 300.08C285.156 304.032 295.966 316.85 295.966 316.85C295.966 316.85 300.995 313.487 300.995 310.899C300.995 310.899 295.52 299.469 295.52 298.105C295.52 297.775 296.272 296.482 297.376 294.647C299.303 291.496 302.382 286.815 304.756 282.958C306.8 279.642 308.328 276.937 308.163 276.349C307.717 274.679 292.23 271.739 292.23 271.739C292.23 271.739 283.041 296.129 284.098 300.08Z" fill="#35488B"/>
<path d="M297.4 294.647C299.327 291.495 302.405 286.815 304.779 282.958C304.497 278.136 303.134 273.903 300.525 273.903C294.062 273.903 295.049 274.397 295.049 274.397C295.049 274.397 293.381 288.697 297.4 294.647Z" fill="#2C3A64"/>
<path d="M302.217 274.891C302.217 274.891 300.807 301.468 303.04 304.808C305.272 308.148 315.048 322.259 315.048 322.259C315.048 322.259 322.71 320.307 322.31 317.955C322.31 317.955 314.085 302.056 314.085 299.892C314.085 297.728 318.01 278.23 313.873 274.891C309.737 271.551 302.217 274.891 302.217 274.891Z" fill="#35488B"/>
<path d="M297.141 242.692C297.141 242.692 287.506 234.084 286.895 232.908C286.308 231.732 283.558 221.148 283.558 221.148L281.255 221.43C281.255 221.43 281.701 234.107 282.665 236.577C283.628 239.046 295.003 249.56 295.003 249.56L297.141 242.692Z" fill="#FFB27D"/>
<path d="M291.642 247.278C291.595 246.667 287.976 244.221 287.976 244.221C287.224 239.634 290.138 236.342 290.138 236.342L294.509 239.446C295.355 239.493 295.707 239.799 295.707 239.799C296.436 239.611 298.598 239.776 298.598 239.776C298.574 240.81 298.833 241.798 300.666 242.033C303.087 242.339 305.272 240.693 306.377 239.564C306.377 239.564 307.857 239.446 309.69 240.034C309.69 240.034 310.583 239.587 311.547 239.54L315.119 236.318C315.119 236.318 319.302 237.518 319.96 243.844C319.96 243.844 315.26 247.42 314.907 250.265L314.79 251.347L314.343 255.158L313.544 261.814L315.941 275.079C315.965 275.196 315.965 275.314 315.965 275.432C315.965 276.325 315.354 277.125 314.461 277.337C314.461 277.337 314.249 277.36 313.873 277.431C311.335 277.784 301.065 279.007 293.005 276.819C291.195 276.325 289.997 274.585 290.138 272.727L291.853 251.3C291.83 251.324 291.665 247.89 291.642 247.278Z" fill="#FFB93E"/>
<path d="M310.584 267.411C310.748 272.045 311.195 275.972 313.85 277.431C314.226 277.384 314.438 277.337 314.438 277.337C315.331 277.125 315.942 276.325 315.942 275.431C315.942 275.314 315.942 275.196 315.918 275.079L313.521 261.814L314.32 255.157C314.273 255.04 314.25 254.969 314.25 254.969C314.25 254.969 310.396 261.484 310.584 267.411Z" fill="#FFA412"/>
<path d="M299.092 238.388C302.452 238.294 305.014 235.001 305.014 235.001L299.186 235.236C299.28 236.083 299.327 237.259 299.092 238.388Z" fill="#EA9C68"/>
<path d="M297.47 236.506C297.47 236.506 304.168 238.27 306.471 232.955C308.962 227.192 306.236 223.006 303.956 222.724C299.421 222.159 296.788 223.9 295.989 225.711C295.19 227.545 293.757 235.566 297.47 236.506Z" fill="#FFB27D"/>
<path d="M300.102 233.519C300.102 233.519 299.82 234.201 298.058 233.825C298.058 233.825 296.577 233.496 296.742 232.72C296.742 232.696 298.293 232.367 300.102 233.519Z" fill="white"/>
<path d="M305.273 234.813C305.273 234.813 306.048 232.508 305.954 231.285C305.954 231.285 307.693 229.051 306.683 228.51C305.672 227.969 305.108 229.286 304.873 229.027C304.638 228.768 304.286 224.394 303.04 224.535C301.795 224.676 297.236 226.087 295.215 224.37C293.217 222.63 298.082 215.88 306.33 218.49C314.579 221.054 312.911 230.227 305.273 234.813Z" fill="#2C3A64"/>
<path d="M310.42 222.042C310.42 222.042 310.796 220.936 310.396 220.137C310.396 220.137 310.373 221.242 309.95 221.712C309.503 222.206 310.42 222.042 310.42 222.042Z" fill="#2C3A64"/>
<path d="M310.231 221.266C310.231 221.266 311.241 221.148 311.735 221.924C311.735 221.924 311.006 221.43 310.301 221.948L310.231 221.266Z" fill="#2C3A64"/>
<path d="M283.581 221.124C283.581 221.124 283.534 220.137 283.863 219.29C284.192 218.443 284.004 216.279 283.581 216.397C283.158 216.515 283.346 217.291 282.9 217.22C282.43 217.126 281.701 214.586 281.114 214.821C280.526 215.056 280.08 215.903 280.268 217.738C280.456 219.572 281.302 221.407 281.302 221.407L283.581 221.124Z" fill="#FFB27D"/>
<path d="M325.389 218.843C325.389 218.843 325.624 217.738 325.436 216.75C325.248 215.762 325.859 213.386 326.306 213.598C326.729 213.81 326.376 214.656 326.917 214.633C327.434 214.609 328.75 211.952 329.361 212.328C329.972 212.704 330.301 213.716 329.737 215.738C329.173 217.738 327.88 219.596 327.88 219.596L325.389 218.843Z" fill="#FFB27D"/>
<path d="M384.001 172.909C383.366 174.038 383.695 195.276 383.061 197.064C381.063 202.779 382.567 217.361 381.486 218.725C380.405 220.089 379.23 223.029 379.818 224.417C380.405 225.781 380.593 227.545 381.909 227.498C383.249 227.451 391.121 180.576 391.192 179.377C391.286 178.154 384.001 172.909 384.001 172.909Z" fill="#FFB27D"/>
<path d="M417.3 206.448C417.3 206.448 418.992 208.541 418.875 209.529C418.734 210.517 417.3 212.869 417.3 212.869C417.3 212.869 413.634 205.484 413.892 204.896C414.151 204.308 416.384 203.861 416.384 203.861L417.3 206.448Z" fill="#FFB27D"/>
<path d="M376.762 321.601L380.263 322.918C380.263 322.918 395.515 301.75 397.395 283.122C397.724 279.806 397.63 276.584 396.902 273.597C396.902 273.597 397.043 272.75 397.301 271.245C397.419 270.539 397.56 269.693 397.748 268.728C398.241 265.882 398.923 262.002 399.698 257.556C401.484 247.372 403.811 234.342 405.621 224.746L404.68 224.441L394.434 221.148L392.319 214.421L384.705 212.422C384.705 212.422 383.013 215.762 381.485 231.497C381.203 233.566 380.945 235.848 380.757 238.317C380.169 245.867 380.122 255.204 381.485 265.906C381.838 268.634 382.284 271.48 382.825 274.373C383.224 276.49 383.295 279.406 383.107 282.723C382.355 297.94 376.762 321.601 376.762 321.601Z" fill="#2A4E96"/>
<path d="M380.757 238.294L397.301 271.221C397.419 270.516 397.56 269.669 397.748 268.705C398.241 265.859 398.923 261.978 399.698 257.533C401.484 247.349 403.811 234.319 405.621 224.723L404.681 224.417L394.434 221.124L392.319 214.398L384.705 212.398C384.705 212.398 383.013 215.738 381.485 231.473C381.203 233.566 380.968 235.824 380.757 238.294Z" fill="#1E3D70"/>
<path d="M388.042 216.632L388.418 213.339C394.834 215.056 411.99 208.565 411.99 208.565C411.99 208.565 418.217 214.045 417.395 227.145C416.995 233.543 416.267 260.732 415.515 268.799C415.233 271.715 414.998 273.785 414.904 274.632C414.88 274.891 414.951 275.126 415.092 275.337C416.22 277.242 417.136 279.218 417.888 281.241C425.362 301.139 416.737 325.646 416.737 325.646L414.504 324.752C414.504 324.752 409.593 297.469 405.621 285.427C404.939 283.381 404.305 281.782 403.694 280.818C401.955 278.019 400.357 273.456 398.9 268.023C396.15 257.745 393.918 244.385 392.461 234.06C392.249 234.084 388.042 216.632 388.042 216.632Z" fill="#2A4E96"/>
<path d="M415.397 168.957C415.397 168.981 415.373 169.004 415.373 169.028C413.423 173.567 409.71 179.471 403.506 180.106C401.602 180.294 399.487 180.012 397.113 179.024C394.387 177.895 392.296 176.507 390.698 174.955C393.353 170.063 396.432 166.464 396.573 166.3C396.573 166.3 396.972 166.276 397.654 166.229C397.912 165.994 398.124 165.218 398.288 164.183C398.406 163.501 398.476 162.725 398.547 161.925C398.617 161.078 398.688 160.185 398.712 159.408C398.782 157.856 398.805 156.657 398.805 156.657L407.548 155.739L408.065 155.692C407.83 158.327 407.924 160.584 408.206 162.395C408.394 163.666 408.699 164.7 409.005 165.477C409.24 166.041 409.498 166.464 409.733 166.723C410.391 166.864 411.19 167.052 411.942 167.264C412.718 167.476 414.034 167.876 415.326 168.934C415.397 168.957 415.397 168.957 415.397 168.957Z" fill="#FFB27D"/>
<path d="M407.759 160.843C407.759 160.843 403.506 164.442 398.312 164.206C398.43 163.524 398.5 162.748 398.571 161.949C398.641 161.102 398.712 160.208 398.735 159.432C400.991 159.361 403.976 159.761 407.759 160.843Z" fill="#ED985F"/>
<path d="M418.17 141.463C418.476 141.087 421.813 137.159 428.299 141.58C428.299 141.58 424.915 139.675 423.364 140.64C423.364 140.64 426.725 140.499 428.041 142.31C429.357 144.121 428.158 147.884 427.43 148.895C426.701 149.906 423.388 152.4 422.095 151.859C421.602 151.647 421.155 151.271 420.755 150.894C420.708 151.553 420.638 152.282 420.497 153.035C419.204 160.091 412.883 163.242 411.167 161.102C410.063 159.738 407.948 161.784 407.948 161.784L402.542 141.204C402.589 141.228 414.927 134.689 418.17 141.463Z" fill="#2C3A64"/>
<path d="M413.117 151.082C412.577 153.035 411.354 155.316 410.203 158.091C408.323 162.631 402.753 161.902 399.463 161.008C397.983 160.608 396.996 160.161 396.996 160.161C394.34 158.82 397.701 147.249 399.134 145.273C400.568 143.297 402.918 141.322 409.498 144.473C413.329 146.308 413.869 148.378 413.117 151.082Z" fill="#FFB27D"/>
<path d="M403.741 327.504H421.413C421.413 327.504 421.836 324.799 420.92 322.753C420.027 320.801 418.64 319.907 418.969 317.532C417.841 318.684 416.008 319.978 413.447 319.649C413.141 320.166 411.425 322.871 410.368 323.624C409.263 324.447 404.117 324.141 403.741 327.504Z" fill="#233862"/>
<path d="M365.787 327.504H383.46C383.46 327.504 384.118 324.682 382.966 322.753C381.932 321.06 382.332 320.096 383.084 318.684C382.285 319.014 381.251 319.319 380.099 319.249C379.23 319.202 378.289 318.802 377.467 318.332C376.715 319.202 373.448 322.894 372.438 323.623C371.286 324.447 366.14 324.141 365.787 327.504Z" fill="#233862"/>
<path d="M400.968 141.722C403.412 140.404 404.469 141.345 404.916 142.239C411.99 141.439 416.149 146.143 416.149 146.143C414.927 151.153 414.857 156.774 414.857 156.774C414.857 156.774 412.436 157.174 408.465 154.211C407.243 153.293 406.444 151.835 405.879 150.236C406.444 153.999 407.995 157.174 407.995 157.174C403.694 152.541 404.587 144.285 404.704 143.415C403.811 143.721 402.025 144.473 401.132 145.532C399.91 146.99 398.265 150.353 397.302 149.812C397.302 149.859 397.278 143.697 400.968 141.722Z" fill="#2C3A64"/>
<path d="M418.006 182.669C417.794 182.364 417.677 182.293 417.559 182.223C417.442 182.152 417.324 182.105 417.136 181.823C416.549 180.976 416.032 180.2 415.703 179.471C415.35 178.671 415.209 177.942 415.397 177.236C415.538 176.695 415.75 176.178 415.985 175.661C416.102 175.425 416.22 175.167 416.337 174.931C417.653 172.415 419.604 170.416 419.604 170.416C417.207 168.322 411.99 167.264 411.99 167.264C411.99 167.264 411.919 167.546 411.755 167.993C410.65 170.98 405.363 175.049 404.47 175.731C403.365 176.578 392.508 176.225 392.32 174.485C392.132 172.768 396.409 166.558 396.573 166.323C391.497 166.535 389.406 167.452 389.406 167.452C389.406 167.452 385.434 168.628 382.026 175.214C382.026 175.214 383.977 176.672 386.256 177.378C385.904 178.483 385.692 179.682 385.739 180.929C385.739 181.164 385.739 181.399 385.786 181.635C390.111 204.496 383.178 213.527 383.178 213.527C381.016 217.526 415.303 223.735 416.713 219.901C417.324 219.008 417.63 217.855 417.7 216.538C417.865 213.457 416.784 209.553 415.656 206.401C415.28 205.319 414.88 204.331 414.528 203.508C414.293 202.967 414.128 202.403 414.011 201.838C413.682 200.403 413.682 198.922 414.034 197.487C415.327 191.795 416.972 185.798 418.006 182.669Z" fill="#B5453C"/>
<path d="M429.568 197.064L416.408 203.814L417.324 206.424C417.324 206.424 436.83 203.978 437.981 199.18L429.568 197.064Z" fill="#FFB27D"/>
<path d="M414.528 203.485C414.88 204.308 415.256 205.296 415.656 206.377C415.632 206.425 415.632 206.448 415.632 206.448C404.023 197.558 415.703 179.494 415.703 179.494C416.032 180.223 416.549 181 417.136 181.846C417.324 182.129 417.442 182.176 417.559 182.246C417.677 182.317 417.794 182.387 418.006 182.693C416.972 185.821 415.327 191.819 414.011 197.487C413.682 198.922 413.682 200.403 413.987 201.838C414.128 202.379 414.293 202.944 414.528 203.485Z" fill="#9E3530"/>
<path d="M419.604 170.416C419.604 170.416 436.337 185.421 437.982 199.18C437.982 199.18 435.585 200.051 432.529 199.18C429.474 198.31 412.93 179.824 413.423 177.636C413.917 175.449 419.604 170.416 419.604 170.416Z" fill="#FFB27D"/>
<path d="M416.384 168.605C416.384 168.605 423.199 170.863 426.254 175.378C426.254 175.378 423.692 181.211 413.893 182.764C413.893 182.764 407.406 173.897 416.384 168.605Z" fill="#B5453C"/>
<path d="M442.565 242.363C442.565 242.363 433.399 248.337 430.438 251.347C430.438 251.347 419.135 254.899 418.383 255.204C417.631 255.51 418.759 257.909 418.759 257.909C418.759 257.909 429.522 257.157 432.812 255.698C436.102 254.24 447.124 249.771 447.829 246.032C448.534 242.316 442.565 242.363 442.565 242.363Z" fill="#EA9C68"/>
<path d="M453.35 311.84L455.418 322.8H459.131L460.095 309.441L453.35 311.84Z" fill="#FFB27D"/>
<path d="M436.547 310.852L434.197 322.941L437.487 323.059L443.692 311.299L436.547 310.852Z" fill="#FFB27D"/>
<path d="M455.325 322.377C455.325 322.377 454.432 323.976 452.763 324.353C451.706 324.588 450.813 325.129 450.249 325.905C449.779 326.563 450.225 327.481 451.048 327.481H459.532C460.26 327.481 460.824 326.846 460.754 326.14C460.683 325.505 460.613 324.776 460.589 324.212C460.519 322.988 459.202 321.883 459.202 321.883C459.202 321.883 458.027 322.542 457.581 322.612C456.617 322.753 455.325 322.377 455.325 322.377Z" fill="#B2443B"/>
<path d="M434.292 322.377C434.292 322.377 433.423 324 431.754 324.353C430.697 324.588 429.803 325.152 429.239 325.905C428.769 326.563 429.239 327.481 430.038 327.457L438.522 327.41C439.251 327.41 439.815 326.775 439.721 326.07C439.65 325.434 439.58 324.705 439.556 324.141C439.486 322.918 438.146 321.812 438.146 321.812C438.146 321.812 436.971 322.471 436.525 322.565C435.585 322.753 434.292 322.377 434.292 322.377Z" fill="#B2443B"/>
<path d="M434.597 311.37C434.597 311.37 438.122 312.475 442.023 312.828C445.689 313.157 449.685 312.828 451.377 310.288C451.87 309.559 452.129 308.265 452.246 306.619C452.951 296.505 447.616 272.327 447.616 272.327H441.389C441.389 272.797 434.597 311.37 434.597 311.37Z" fill="#F99746"/>
<path d="M442.047 312.828C445.713 313.157 449.708 312.828 451.4 310.288C451.894 309.559 452.152 308.265 452.27 306.619C452.27 306.595 452.27 306.572 452.246 306.572C451.259 302.856 448.533 279.877 448.533 279.877C448.533 279.877 439.227 304.431 442.047 312.828Z" fill="#ED7D2B"/>
<path d="M461.271 273.715C461.271 273.715 464.067 292.53 465.336 312.64C465.336 312.64 456.524 316.262 448.369 313.369L446.865 275.055L461.271 273.715Z" fill="#F99746"/>
<path d="M457.087 219.125C457.087 219.125 457.651 216.632 460.025 216.491C460.025 216.491 459.273 216.938 459.155 217.408C459.155 217.408 460.518 216.256 462.657 217.032C464.772 217.808 467.944 219.972 466.346 225.005C464.748 230.038 467.991 231.285 469.307 234.531C470.6 237.776 466.182 238.411 467.098 240.952C468.015 243.492 465.289 249.489 458.309 246.855C451.353 244.244 449.755 234.178 452.716 231.732C455.677 229.309 457.087 219.125 457.087 219.125Z" fill="#B2443B"/>
<path d="M454.972 219.008C454.972 219.008 458.098 218.584 460.025 220.607C461.082 221.712 460.001 223.265 460.001 223.265L454.972 219.008Z" fill="#F99F46"/>
<path d="M445.478 223.853C445.549 223.759 448.016 219.831 452.669 219.031C456.429 218.396 459.954 221.054 460.542 224.84C461.129 228.627 460.542 233.543 454.338 235.307L445.478 223.853Z" fill="#B2443B"/>
<path d="M446.63 240.74L453.633 244.903L455.396 239.964C455.396 239.964 454.573 238.176 454.338 235.307C454.244 234.107 454.244 232.696 454.456 231.167L448.369 233.802C448.369 233.802 448.486 234.366 448.51 235.166C448.557 236.036 448.533 237.212 448.204 238.317C447.946 239.258 447.452 240.152 446.63 240.74Z" fill="#FFB27D"/>
<path d="M448.228 238.317C451.589 238.435 454.362 235.307 454.362 235.307L448.534 235.166C448.557 236.036 448.534 237.212 448.228 238.317Z" fill="#EA9C68"/>
<path d="M446.724 236.342C446.724 236.342 453.304 238.529 455.936 233.355C458.78 227.78 456.335 223.429 454.079 222.982C449.591 222.136 446.841 223.688 445.948 225.475C445.008 227.263 443.081 235.166 446.724 236.342Z" fill="#FFB27D"/>
<path d="M449.544 233.519C449.544 233.519 449.215 234.201 447.476 233.684C447.476 233.684 446.019 233.261 446.23 232.484C446.254 232.508 447.805 232.273 449.544 233.519Z" fill="white"/>
<path d="M437.794 245.608L443.363 241.069C444.021 240.505 444.867 240.105 445.925 239.964C446.324 239.917 447.147 239.752 447.617 239.705C447.546 240.74 447.546 241.587 449.356 241.892C451.776 242.316 454.173 240.857 455.325 239.776C457.205 240.128 458.122 240.364 459.626 240.952C460.495 241.304 461.177 241.916 461.623 242.692C462.023 243.398 462.187 244.221 462.093 245.067L460.237 261.084C460.237 261.084 462.446 274.726 462.07 274.749C459.532 274.985 448.392 277.219 440.449 274.679C439.157 274.255 442.259 267.058 441.624 252.288C437.206 249.654 437.794 245.608 437.794 245.608Z" fill="#35488B"/>
<path d="M451.306 223.617C451.306 223.617 451.212 228.792 454.196 230.485C454.196 230.485 453.021 228.063 453.421 226.557C453.421 226.557 454.196 231.167 456.546 231.967C458.896 232.767 460.072 223.406 455.23 221.524C450.366 219.643 445.572 221.877 445.008 225.17C444.444 228.463 444.867 229.145 444.867 229.145C444.867 229.145 447.123 222.888 451.306 223.617Z" fill="#B2443B"/>
<path d="M462.07 274.773C462.446 274.726 460.237 261.108 460.237 261.108L462.093 245.091C462.187 244.244 462.023 243.421 461.623 242.715C461.506 242.739 461.365 242.786 461.247 242.904C457.346 246.196 453.774 259.509 453.774 259.509C453.774 259.509 451.87 270.304 462.07 274.773Z" fill="#2C3A64"/>
<path d="M462.634 246.879C462.634 246.879 465.948 259.391 465.336 261.696C464.725 264.001 458.286 269.34 457.205 269.669L456.43 267.623C456.43 267.623 461.341 260.849 460.918 260.12C460.025 258.544 456.43 249.301 456.43 249.301L462.634 246.879Z" fill="#FFB27D"/>
<path d="M457.37 251.747C457.37 251.747 461.177 252.406 464.89 248.572C464.89 248.572 461.741 239.329 457.793 241.21C453.868 243.068 454.831 249.513 457.37 251.747Z" fill="#35488B"/>
<path d="M456.429 267.646C456.429 267.646 453.186 268.282 453.045 269.34C452.928 270.187 454.408 271.551 455.207 271.269C456.006 270.986 457.205 269.693 457.205 269.693L456.429 267.646Z" fill="#FFB27D"/>
<path d="M418.382 255.205C418.382 255.205 413.611 252.735 413.188 253.605C412.765 254.499 413.776 257.11 414.786 257.439C415.797 257.768 418.781 257.909 418.781 257.909L418.382 255.205Z" fill="#EA9C68"/>
</svg>
