<svg width="234" height="260" viewBox="0 0 234 260" fill="none" xmlns="http://www.w3.org/2000/svg">
<g clip-path="url(#clip0)">
<path d="M57.4118 221.314C61.0091 223.865 64.8292 226.435 69.19 227.93C75.7739 230.197 82.5143 232.209 89.4873 233.074C93.3933 233.587 97.3183 233.877 101.215 233.447C108.648 232.6 115.106 229.516 120.686 224.606C122.778 222.72 124.665 220.592 126.415 218.497C129.151 215.365 131.768 212.042 134.557 208.824C136.757 206.184 139.076 203.734 141.309 201.232C142.556 199.767 144.159 198.872 146.216 198.958C147.467 199.02 148.534 198.617 149.62 197.992C151.379 196.84 153.237 196.101 155.115 195.139C156.665 194.329 158.282 193.794 159.865 193.121C160.33 192.936 160.709 192.699 161.088 192.462C161.71 192.022 161.497 190.837 160.795 190.642C160.402 190.519 159.871 190.428 159.373 190.476C158.567 190.452 157.794 190.565 157.022 190.679C153.76 191.029 150.47 190.658 147.427 189.501C145.034 188.623 142.692 187.66 140.298 186.783C132.743 183.804 125.045 181.441 117.186 179.917C111.227 178.735 105.126 178.169 99.049 178.907C93.109 179.612 87.5054 181.108 82.4039 184.084C79.9053 185.487 77.7811 187.235 75.6047 189.069C72.4089 191.804 68.7725 193.917 64.8659 195.513C64.2116 195.817 63.472 196.068 62.87 196.285C58.9824 197.659 56.0284 200.19 53.6526 203.308C52.4908 204.825 51.7224 206.465 51.21 208.261C50.503 210.76 50.7915 213.163 52.1277 215.387C53.4639 217.61 55.2316 219.512 57.4118 221.314ZM152.029 195.01C151.133 195.517 150.184 196.11 149.374 196.669C148.269 197.517 147.065 197.953 145.676 197.924C143.927 197.909 142.395 198.497 141.134 199.601C139.683 200.824 138.232 202.046 137.037 203.425C133.386 207.288 129.853 211.34 126.287 215.255C124.348 217.468 122.323 219.629 120.062 221.411C114.761 225.671 108.687 227.936 101.908 228.479C98.3388 228.758 94.8594 228.505 91.3469 228.116C84.8195 227.289 78.5198 225.899 72.1538 224.233C68.4233 223.241 64.8684 221.771 61.4889 219.821C59.3561 218.517 57.2754 217.128 55.5077 215.226C53.1287 212.6 52.6886 209.869 54.2063 206.812C54.415 206.47 54.5384 206.077 54.747 205.736C56.9191 202.375 59.7546 199.655 63.5568 198.229C65.0881 197.642 66.6195 197.054 67.947 196.225C71.1711 194.211 74.3098 192.145 77.2638 189.615C78.2832 188.714 79.3358 187.951 80.4737 187.241C84.665 184.412 89.3253 182.924 94.3219 182.229C99.731 181.434 105.182 181.72 110.662 182.726C116.81 183.79 122.92 185.299 128.959 187.116C133.424 188.44 137.576 190.276 141.833 191.941C144.909 193.236 148.26 194.464 152.029 195.01Z" fill="#277D2A"/>
<path d="M54.9315 153.103C58.6805 155.981 62.6049 158.381 67.032 160.15C70.8951 161.692 74.8864 162.257 78.9728 161.708C80.7411 161.5 82.3387 161.188 84.1259 160.757C86.4631 160.193 88.8003 159.63 91.0522 159.014C92.1521 158.749 93.2519 158.484 94.3518 158.219C97.9785 157.271 101.51 157.438 105.018 158.411C107.26 158.961 109.417 159.46 111.659 160.01C112.583 160.224 113.455 160.523 114.067 161.248C114.185 161.438 114.441 161.594 114.749 161.666C115.484 161.998 116.328 161.576 116.437 160.822C116.475 160.377 116.565 159.846 116.466 159.433C116.267 158.608 116.016 157.869 115.765 157.129C113.832 152.431 110.899 148.41 107.292 144.916C105.88 143.583 104.259 142.592 102.448 141.719C100.552 140.794 98.7416 139.922 96.8457 138.997C92.9353 136.957 89.4945 134.15 86.3477 131.054C83.2008 127.957 80.2437 124.742 76.8028 121.935C72.035 117.848 66.7124 114.476 60.8491 112.18C59.6356 111.672 58.3179 111.335 57.0001 110.998C54.758 110.448 52.5442 110.618 50.3918 111.646C46.8455 113.228 43.9105 115.536 41.7054 118.759C40.2115 121.01 39.5045 123.508 39.6365 126.168C39.8723 130.766 40.9852 135.08 43.1979 139.129C45.0221 142.472 47.363 145.544 50.0502 148.242C51.6472 150.039 53.3155 151.528 54.9315 153.103ZM112.536 159.726C108.772 158.597 105.435 157.728 102.202 156.689C100.543 156.144 98.8985 155.959 97.2677 156.134C94.5893 156.488 91.9108 156.843 89.0949 157.231C86.279 157.619 83.4109 158.092 80.6139 158.258C76.2384 158.512 71.958 157.653 67.9955 155.699C61.1796 152.469 55.2315 148.011 50.3409 142.208C48.0994 139.548 46.0997 136.684 44.6168 133.55C43.4371 131.071 42.6698 128.492 42.5046 125.695C42.3156 123.704 42.6574 121.803 43.786 120.149C45.6451 117.3 48.1676 115.092 51.1639 113.642C52.8518 112.799 54.6722 112.505 56.6061 112.985C57.9239 113.321 59.1563 113.606 60.4219 114.028C67.2427 116.675 73.1957 120.55 78.3662 125.704C80.968 128.35 83.4654 131.167 86.0151 133.898C88.9723 137.113 92.1191 140.209 95.8208 142.59C97.1858 143.424 98.5508 144.259 99.9158 145.094C101.707 146.189 103.428 147.593 104.873 149.063C107.508 151.846 109.849 154.919 111.948 158.195C111.996 158.693 112.147 159.02 112.536 159.726Z" fill="#277D2A"/>
<path d="M95.1492 189.885C95.2628 190.658 95.8078 191.108 96.4382 191.611C97.732 192.754 99.078 193.811 100.372 194.954C100.661 195.248 100.865 195.49 101.068 195.732C100.926 196.348 100.618 196.277 100.258 196.291C96.361 196.721 92.7484 198.028 89.2352 199.748C84.8782 201.89 80.4217 203.619 75.8136 205.021C73.5096 205.722 71.1865 206.646 68.8634 207.569C68.2613 207.787 67.7114 207.92 67.6353 208.811C68.1331 208.764 68.4934 208.75 68.8205 208.598C72.2244 207.632 75.7658 206.633 79.2219 205.581C82.128 204.662 85.0863 203.658 87.9071 202.687C90.2633 201.901 92.6196 201.114 95.0231 200.826C95.6583 200.745 96.3789 200.717 97.2369 200.656C97.0614 201.135 96.9902 201.443 96.8337 201.699C94.6997 204.613 92.4804 207.476 90.3133 210.253C89.8628 210.798 89.4645 211.258 89.0661 211.718C89.3362 212.235 89.6965 212.221 89.9383 212.017C90.4551 211.747 90.9387 211.339 91.4224 210.932C94.3622 208.041 97.013 204.856 99.204 201.273C99.3605 201.017 99.4649 200.846 99.7588 200.557C103.395 200.553 106.921 201.303 110.6 202.38C109.746 203.968 108.911 205.333 108.162 206.75C106.649 209.224 105.169 211.836 103.657 214.31C103.396 214.737 103.168 215.301 102.993 215.779C102.869 216.173 103.329 216.571 103.793 216.386C104.258 216.202 104.637 215.965 104.931 215.676C105.415 215.268 105.78 214.671 106.231 214.126C108.592 210.647 111.039 207.22 112.718 203.324C112.771 203.239 112.875 203.068 113.065 202.95C113.596 203.04 114.179 203.045 114.71 203.135C123.361 204.322 131.282 202.485 138.508 197.761C139.025 197.491 139.508 197.083 139.907 196.624C140.893 195.586 140.476 194.159 139.106 193.907C138.353 193.798 137.632 193.826 136.945 193.992C135.845 194.257 134.778 194.66 133.678 194.925C131.374 195.626 129.07 196.327 126.818 196.942C123.244 197.804 119.556 197.893 115.925 197.314C114.332 197.043 112.791 196.687 111.146 196.502C109.331 196.213 107.463 196.008 105.596 195.804C104.704 195.728 104.14 195.5 103.477 194.86C101.979 193.475 100.515 192.228 98.9128 191.014C98.1119 190.407 97.2066 189.971 96.3534 189.449C96.1969 189.705 95.9741 189.686 95.1492 189.885Z" fill="#277D2A"/>
<path d="M75.5121 216.441C75.7349 216.46 75.9909 216.616 76.2137 216.635C76.6261 216.536 76.9532 216.384 77.2472 216.095C78.1623 215.365 79.0774 214.635 79.8741 213.716C80.2202 213.342 80.5001 212.692 80.6756 212.213C80.78 212.043 80.4909 211.749 80.3724 211.559C80.2871 211.507 79.979 211.436 79.7893 211.554C79.6518 211.587 79.4622 211.706 79.2725 211.824C78.0776 213.203 76.8826 214.583 75.6355 216.047C75.5502 215.995 75.5833 216.132 75.5121 216.441Z" fill="#277D2A"/>
<path d="M95.9375 220.608C96.4071 219.84 96.9097 219.21 97.3271 218.527C97.5357 218.186 97.5216 217.826 97.5596 217.38C97.6308 217.072 97.0668 216.844 96.7396 216.996C96.55 217.115 96.3604 217.233 96.256 217.404C95.4735 218.683 94.6057 219.911 93.771 221.276C93.7188 221.361 93.7188 221.361 93.752 221.499C93.8183 221.774 93.8845 222.049 94.0552 222.153C94.2258 222.257 94.5861 222.243 94.7757 222.125C95.155 221.888 95.3637 221.547 95.6577 221.257C95.7289 220.949 95.8854 220.693 95.9375 220.608Z" fill="#277D2A"/>
<path d="M115.182 191.82C115.22 191.374 115.258 190.929 115.244 190.568C114.775 189.227 114.064 188.089 113.216 186.984C113.131 186.932 112.96 186.827 112.875 186.775C112.652 186.756 112.429 186.737 112.377 186.823C112.239 186.856 112.168 187.164 112.201 187.301C112.182 187.524 112.301 187.714 112.471 187.818C113.182 188.956 113.978 190.146 114.741 191.199C114.755 191.559 114.926 191.663 115.182 191.82Z" fill="#277D2A"/>
<path d="M99.5256 150.716C99.2887 150.336 99.1371 150.009 98.9665 149.905C98.2508 149.35 97.6205 148.848 96.8526 148.378C92.056 145.679 86.842 143.663 81.5569 141.955C80.0685 141.514 78.6133 141.21 77.0537 141.077C74.0199 140.863 71.5789 139.488 69.4178 137.463C69.6939 133.178 68.1305 129.409 66.0173 125.772C65.1217 124.17 64.0887 122.6 63.1079 120.945C62.871 120.566 62.4444 120.305 61.9086 120.798C62.1075 121.623 62.8563 122.315 63.1927 123.107C63.529 123.899 64.0029 124.657 64.3914 125.364C64.8131 126.208 65.2347 127.052 65.5711 127.844C65.9928 128.687 66.277 129.564 66.5612 130.442C66.8975 131.233 67.0964 132.058 67.3806 132.935C67.5795 133.76 67.949 134.689 67.7164 135.836C67.2045 135.523 66.8633 135.315 66.6595 135.073C65.5694 134.172 64.5315 133.186 63.4746 132.422C62.8443 131.92 62.1617 131.502 61.4792 131.085C61.2233 130.928 60.8299 130.805 60.5217 130.734C59.8202 130.539 59.1801 131.203 59.4311 131.942C59.649 132.544 59.9191 133.061 60.1892 133.578C60.4592 134.095 60.7293 134.612 61.2031 135.37C60.2788 135.157 59.6104 135.1 58.9942 134.957C56.5625 134.525 54.1829 134.008 51.7511 133.576C51.2202 133.486 50.7225 133.533 50.1725 133.665C50.0351 133.699 49.7411 133.988 49.7221 134.21C49.703 134.433 49.9068 134.675 50.0253 134.865C50.1437 135.054 50.3665 135.073 50.5372 135.178C53.2058 135.989 55.8555 137.023 58.6475 137.441C60.0696 137.607 61.5438 137.688 63.3262 137.841C63.7859 138.239 64.3119 138.912 64.8901 139.5C66.0133 140.539 67.0844 141.662 68.2076 142.701C69.2976 143.602 70.4399 144.417 71.7386 144.977C72.0467 145.048 72.2505 145.29 72.8145 145.518C72.2124 145.736 71.8331 145.973 71.506 146.124C70.4393 146.527 69.3726 146.93 68.3059 147.332C67.8413 147.517 67.3245 147.787 66.893 148.109C66.5137 148.346 66.1676 148.721 66.3002 149.271C66.3996 149.683 66.9636 149.911 67.6511 149.745C70.1779 149.063 72.6194 148.329 75.1463 147.647C75.7484 147.429 76.4026 147.126 76.8863 146.718C77.4221 146.225 77.972 146.093 78.7257 146.202C80.1478 146.368 81.5177 146.62 82.8876 146.872C85.0966 147.285 87.3908 147.75 89.5666 148.025C92.3255 148.306 94.8898 149.288 97.3498 150.44C97.966 150.583 98.5111 151.033 99.5256 150.716Z" fill="#277D2A"/>
<path d="M55.503 125.907C55.5411 125.461 55.7498 125.12 55.6835 124.845C55.2667 123.418 54.8499 121.991 54.381 120.649C54.3147 120.374 53.9734 120.166 53.7696 119.924C53.4284 119.715 52.9116 119.985 52.8404 120.293C52.7882 120.379 52.7692 120.601 52.8024 120.739C53.2854 122.441 53.8207 124.057 54.8205 125.489C54.8537 125.627 55.1618 125.698 55.503 125.907Z" fill="#277D2A"/>
<path d="M76.5355 129.273C75.9426 130.435 75.5394 131.477 75.6671 132.61C75.7002 132.748 75.904 132.99 75.9893 133.042C76.1599 133.146 76.4871 132.995 76.5392 132.909C77.0278 131.919 77.4641 131.013 77.8673 129.971C77.9385 129.662 77.8391 129.25 77.3935 129.212C77.1376 129.055 76.8104 129.207 76.5355 129.273Z" fill="#277D2A"/>
<path d="M57.7876 143.831C58.162 144.177 58.3658 144.419 58.5886 144.438C59.4607 144.737 60.3709 144.59 61.3333 144.358C61.7457 144.259 61.9544 143.917 61.9071 143.42C61.8599 142.922 61.5708 142.628 61.1583 142.727C59.9922 142.718 58.8923 142.983 57.7876 143.831Z" fill="#277D2A"/>
<path d="M52.9615 128.338C52.8952 128.063 52.8811 127.703 52.7104 127.598C51.8763 126.854 51.0232 126.332 49.9614 126.152C49.876 126.1 49.8239 126.185 49.7386 126.133C49.5489 126.251 49.3593 126.37 49.3071 126.455C49.2028 126.626 49.269 126.901 49.3022 127.038C49.4207 127.228 49.6244 127.469 49.9325 127.541C50.8379 127.977 51.672 128.722 52.9615 128.338Z" fill="#277D2A"/>
<path d="M80.6051 155.205C81.5153 155.058 82.0652 154.925 82.7526 154.76C82.8901 154.726 83.0466 154.471 83.0135 154.333C82.9803 154.196 82.914 153.921 82.7434 153.816C82.5728 153.712 82.4022 153.608 82.1794 153.589C81.4588 153.617 81.1648 153.906 80.6051 155.205Z" fill="#277D2A"/>
<path d="M115.55 5.08857C113.303 5.12115 111.34 6.0308 109.799 7.78435C108.708 8.99288 107.821 10.4432 107.242 11.9648C106.014 15.3159 105.591 18.691 106.367 22.2134C106.533 22.9008 106.666 23.4507 106.746 24.086C107.418 27.779 107.593 31.5192 107.013 35.1503C106.667 37.6342 106.372 40.0328 106.471 42.5547C106.735 47.8736 108.289 52.8088 110.582 57.493C112.993 62.3668 116.268 66.5962 119.974 70.5033C124.922 75.6385 130.267 80.314 136.097 84.582C137.87 85.9003 139.728 87.2708 141.5 88.5891C143.818 90.3579 145.652 92.5343 146.95 95.2035C147.253 95.8578 147.556 96.512 147.912 97.081C148.149 97.4603 148.438 97.7543 148.727 98.0483C149.272 98.4988 150.116 98.0771 150.258 97.4609C150.296 97.0153 150.282 96.655 150.183 96.2425C149.903 94.7824 149.539 93.2701 149.397 91.7768C149.189 90.0086 148.895 88.1882 148.962 86.3536C149.057 85.2397 148.74 84.2251 148.096 83.3622C147.096 81.9303 146.921 80.2995 147.466 78.6405C148.297 75.7491 149.127 72.8576 149.957 69.9661C151.068 66.4253 152.178 62.8845 153.288 59.3437C154.028 56.9831 154.768 54.6226 155.115 52.1387C156.164 45.6303 155.36 39.2779 152.408 33.3705C150.84 30.1845 148.788 27.406 146.547 24.746C142.557 19.9618 137.874 15.9265 133.087 12.0617C129.85 9.49627 126.177 7.83613 122.57 6.45096C120.176 5.57333 117.882 5.10816 115.55 5.08857ZM140.535 83.0757C137.193 80.6809 133.885 78.4236 130.838 75.7397C126.615 72.1026 122.634 68.2618 118.947 64.1318C115.615 60.5709 112.853 56.6545 110.901 52.179C109.134 48.1681 107.969 43.9393 108.074 39.5497C108.084 38.3835 108.231 37.1842 108.326 36.0703C108.834 32.7473 108.812 29.3342 108.822 26.0585C108.851 24.6696 108.571 23.2095 108.24 21.8346C107.516 18.227 108.161 14.8709 109.646 11.6762C109.802 11.4203 110.011 11.079 110.22 10.7378C111.785 8.17834 114.075 7.11709 117.123 7.6915C119.332 8.10451 121.417 8.91094 123.432 10.0255C126.489 11.5433 129.285 13.4876 131.821 15.8585C136.058 19.8558 140.157 23.8863 143.858 28.3765C145.896 30.7947 147.659 33.2791 149.127 36.0527C151.999 41.3249 153.083 47.0279 152.484 52.9912C152.222 55.5273 151.601 58.0775 150.894 60.5756C149.518 65.126 148.194 69.5912 147.041 74.1607C146.633 75.7865 146.362 77.3793 146.177 79.0241C145.958 80.5316 146.238 81.9917 147.119 83.2339C147.797 84.2343 148.062 85.3342 148 86.5857C147.924 87.4768 147.933 88.4202 147.942 89.3635C145.734 86.841 143.108 85.001 140.535 83.0757Z" fill="#277D2A"/>
<path d="M117.064 49.3838C117.719 49.0806 118.283 49.3083 118.984 49.5028C120.473 49.9441 121.961 50.3854 123.397 50.9119C123.705 50.9831 124.013 51.0543 124.322 51.1255C124.668 50.7511 124.464 50.5093 124.398 50.2343C122.915 47.1005 122.119 43.8009 121.736 40.4019C121.292 36.1448 120.435 31.9872 119.303 27.8959C118.72 25.7815 118.361 23.6862 117.916 21.5386C117.868 21.0408 117.736 20.4909 118.272 19.9981C118.423 20.3252 118.575 20.6523 118.726 20.9794C119.678 24.0231 120.545 27.0145 121.445 30.1435C122.16 32.8078 122.79 35.42 123.42 38.0321C123.917 40.0943 124.447 42.2941 125.442 44.309C125.712 44.8258 125.982 45.3426 126.371 46.049C126.632 45.6224 126.821 45.504 126.892 45.1959C127.998 42.2381 129.103 39.2804 130.261 36.2373C130.488 35.6733 130.578 35.1424 130.754 34.6636C131.252 34.6163 131.403 34.9435 131.384 35.1663C131.432 35.664 131.341 36.1949 131.251 36.7258C130.449 40.3379 129.391 43.7934 127.802 47.1587C127.698 47.3293 127.627 47.6374 127.47 47.8933C129.214 50.6006 131.441 52.9003 133.944 55.1337C134.693 53.7166 135.338 52.47 135.983 51.2234C137.169 48.9009 138.354 46.5784 139.488 44.3412C139.749 43.9146 139.958 43.5734 140.304 43.199C140.46 42.943 141.076 43.0854 141.176 43.4979C141.275 43.9103 141.289 44.2706 141.251 44.7162C141.109 45.3324 140.933 45.8111 140.706 46.3752C139.202 49.7927 137.836 53.177 135.683 56.3146C135.631 56.3999 135.664 56.5374 135.56 56.708C135.797 57.0873 136.171 57.4335 136.493 57.8649C141.469 63.7207 143.847 70.5666 143.783 78.1465C143.778 78.7296 143.74 79.1752 143.65 79.7061C143.365 80.9386 142.076 81.3222 141.261 80.3549C140.853 79.8713 140.498 79.3023 140.28 78.7002C139.91 77.771 139.731 76.7233 139.446 75.8463C138.812 73.8172 138.315 71.755 137.68 69.7259C136.643 66.6301 134.951 63.8375 132.828 61.3672C131.927 60.3477 130.942 59.2761 129.956 58.2045C128.852 56.9432 127.833 55.7342 126.781 54.3876C126.34 53.7665 125.828 53.4535 125.127 53.2589C123.416 52.7986 121.757 52.253 120.098 51.7074C119.192 51.2711 118.424 50.8016 117.657 50.3321C117.349 50.2609 117.315 50.1234 117.064 49.3838Z" fill="#277D2A"/>
<path d="M127.515 22.1337C127.685 22.238 127.941 22.3945 127.922 22.6173C128.074 22.9445 128.088 23.3048 128.017 23.6129C127.836 24.6747 127.793 25.7033 127.528 26.713C127.437 27.2439 127.091 27.6183 126.745 27.9927C126.693 28.078 126.333 28.0921 126.11 28.0731C126.024 28.021 125.906 27.8313 125.873 27.6938C125.754 27.5042 125.773 27.2814 125.826 27.1961C126.319 25.6224 126.727 23.9965 127.168 22.5081C127.273 22.3375 127.41 22.3043 127.515 22.1337Z" fill="#277D2A"/>
<path d="M140.301 35.344C139.969 36.0787 139.689 36.7281 139.409 37.3775C139.252 37.6334 138.958 37.9225 138.631 38.0741C138.442 38.1926 138.015 37.9317 137.949 37.6568C137.916 37.5193 137.935 37.2965 138.039 37.1258C138.547 35.9124 139.192 34.6659 139.699 33.4524C139.751 33.3671 139.751 33.3671 139.804 33.2818C139.993 33.1633 140.268 33.0971 140.439 33.2014C140.609 33.3057 140.676 33.5807 140.709 33.7182C140.723 34.0785 140.514 34.4197 140.443 34.7278C140.457 35.0881 140.353 35.2587 140.301 35.344Z" fill="#277D2A"/>
<path d="M128.077 63.3853C127.698 63.6222 127.489 63.9635 127.129 63.9776C125.892 64.2759 124.673 64.3515 123.526 64.1189C123.441 64.0667 123.303 64.0998 123.27 63.9624C123.152 63.7727 123.066 63.7205 123.085 63.4978C123.052 63.3603 123.242 63.2418 123.346 63.0712C123.484 63.038 123.673 62.9196 123.844 63.0239C125.01 63.0337 126.262 63.0957 127.565 63.0723C127.598 63.2098 127.769 63.3141 128.077 63.3853Z" fill="#277D2A"/>
</g>
<defs>
<clipPath id="clip0">
<rect width="218.5" height="140.4" fill="white" transform="matrix(-0.521678 0.853143 0.853143 0.521678 114.219 0.172363)"/>
</clipPath>
</defs>
</svg>
