<svg width="241" height="179" viewBox="0 0 241 179" fill="none" xmlns="http://www.w3.org/2000/svg">
<g clip-path="url(#clip0)">
<path d="M12.6222 106.281C13.1447 110.66 13.8025 115.217 15.6209 119.453C18.3578 125.856 21.3894 132.204 25.4277 137.954C27.6685 141.194 30.0872 144.299 33.0212 146.899C38.637 151.842 45.2569 154.56 52.642 155.403C55.4436 155.687 58.2878 155.659 61.0151 155.55C65.1738 155.477 69.3936 155.188 73.6505 155.096C77.0842 154.955 80.4568 155.03 83.8108 155.007C85.7335 154.949 87.4728 155.536 88.7897 157.119C89.5836 158.088 90.5979 158.609 91.7902 158.994C93.8243 159.526 95.6194 160.408 97.5923 161.154C99.2334 161.76 100.715 162.599 102.276 163.322C102.725 163.542 103.155 163.665 103.586 163.787C104.329 163.952 105.065 162.998 104.738 162.348C104.566 161.973 104.276 161.519 103.907 161.182C103.384 160.568 102.782 160.072 102.179 159.575C99.7307 157.392 97.7979 154.704 96.614 151.671C95.6584 149.307 94.801 146.925 93.8453 144.561C90.9839 136.961 87.57 129.668 83.4257 122.818C80.3036 117.608 76.629 112.705 72.0036 108.694C67.4951 104.763 62.6252 101.613 56.9956 99.8273C54.2791 98.916 51.5572 98.5145 48.737 98.1317C44.5652 97.5972 40.5581 96.3192 36.7529 94.4942C36.0891 94.2126 35.4066 93.8327 34.841 93.5326C31.2138 91.5721 27.3553 91.0802 23.4489 91.4115C21.5448 91.5679 19.8133 92.0987 18.1375 92.9244C15.811 94.0765 14.2226 95.9033 13.4707 98.3862C12.7187 100.869 12.4952 103.456 12.6222 106.281ZM95.617 158.78C94.6398 158.456 93.5643 158.15 92.6057 157.924C91.2354 157.674 90.1042 157.074 89.1935 156.025C88.0306 154.718 86.5675 153.977 84.9025 153.783C83.0223 153.528 81.1422 153.272 79.3178 153.312C74.004 153.197 68.6291 153.297 63.3338 153.28C60.3914 153.327 57.4304 153.277 54.5917 152.795C47.8758 151.724 42.1216 148.741 37.1697 144.08C34.5676 141.62 32.4197 138.871 30.3515 136.005C26.5841 130.611 23.3876 125.007 20.3506 119.17C18.5825 115.739 17.2872 112.116 16.4646 108.303C16.0002 105.846 15.6342 103.371 15.8577 100.785C16.2088 97.258 17.9379 95.0993 21.223 94.173C21.6161 94.0987 21.9906 93.9262 22.3836 93.8519C26.3326 93.2072 30.2522 93.484 33.8608 95.3462C35.3239 96.0873 36.7871 96.8285 38.2927 97.2563C41.9493 98.2952 45.5873 99.2359 49.4458 99.7278C50.7975 99.8794 52.0695 100.148 53.36 100.514C58.27 101.724 62.5 104.181 66.3687 107.419C70.5878 110.895 74.0341 115.129 76.9651 119.867C80.3023 125.139 83.2837 130.682 85.9888 136.378C88.0037 140.577 89.429 144.887 91.0509 149.161C92.1551 152.31 93.493 155.619 95.617 158.78Z" fill="#277D2A"/>
<path d="M61.5298 58.669C61.9115 63.38 62.7658 67.9 64.4248 72.3697C65.8741 76.2683 68.1335 79.6067 71.2826 82.2682C72.6235 83.4395 73.9272 84.4143 75.4461 85.4503C77.4322 86.8049 79.4184 88.1596 81.386 89.416C82.3207 90.0535 83.2553 90.691 84.19 91.3285C87.3259 93.3818 89.5721 96.1121 91.2048 99.3655C92.3012 101.397 93.3791 103.331 94.4755 105.362C94.9374 106.191 95.3011 107.038 95.1735 107.978C95.1124 108.193 95.1681 108.488 95.3221 108.764C95.5689 109.532 96.4479 109.875 97.08 109.45C97.4359 109.179 97.89 108.89 98.1291 108.539C98.6072 107.838 98.987 107.156 99.3669 106.473C101.553 101.887 102.566 97.0145 102.737 91.9954C102.777 90.0542 102.424 88.1873 101.856 86.2592C101.269 84.2329 100.701 82.3048 100.115 80.2785C99.0027 76.0108 98.7751 71.5759 98.959 67.165C99.143 62.7541 99.542 58.4043 99.3144 53.9694C99.1455 47.6916 98.0736 41.4826 95.8412 35.5948C95.4032 34.3545 94.7688 33.1515 94.1343 31.9484C93.0378 29.9167 91.4261 28.3894 89.2195 27.4835C85.6666 25.9161 81.986 25.2888 78.1167 25.8166C75.4451 26.2199 73.1186 27.372 71.2355 29.2545C67.9845 32.5151 65.5328 36.2351 64.0157 40.5927C62.7617 44.1882 62.0547 47.9856 61.8576 51.7884C61.5969 54.1784 61.6125 56.4144 61.5298 58.669ZM95.2747 105.822C93.5864 102.274 91.9908 99.2169 90.5918 96.1229C89.8831 94.5268 88.9167 93.1829 87.6926 92.0912C85.6321 90.3435 83.5717 88.5958 81.3944 86.7684C79.2171 84.941 76.9416 83.1322 74.9422 81.1693C71.8171 78.0963 69.5817 74.3463 68.3714 70.0971C66.1924 62.8762 65.5058 55.4749 66.5267 47.9544C66.9947 44.5076 67.776 41.1032 69.1043 37.9008C70.151 35.3622 71.5482 33.0627 73.5111 31.0633C74.8603 29.5871 76.499 28.5649 78.4828 28.2917C81.8422 27.7585 85.1723 28.1467 88.2578 29.3954C90.0157 30.0808 91.4549 31.2336 92.3973 32.9891C93.0318 34.1922 93.6477 35.297 94.184 36.5187C96.7986 43.3519 97.9208 50.3655 97.5691 57.6577C97.3534 61.3623 96.9411 65.1039 96.6272 68.827C96.2281 73.1768 96.0442 77.5877 96.7631 81.9298C97.0603 83.5019 97.3574 85.0741 97.6546 86.6462C98.0447 88.7097 98.1585 90.9271 98.0387 92.9852C97.7433 96.8066 97.0362 100.604 96.0159 104.359C95.6786 104.728 95.5378 105.06 95.2747 105.822Z" fill="#277D2A"/>
<path d="M61.2471 113.17C60.7505 113.772 60.7822 114.479 60.8325 115.283C60.8535 117.01 60.9727 118.717 60.9937 120.443C60.9697 120.855 60.9272 121.168 60.8846 121.482C60.3322 121.79 60.1782 121.513 59.926 121.256C56.992 118.655 53.5984 116.854 49.9658 115.404C45.4543 113.611 41.1817 111.467 37.05 108.991C34.9842 107.753 32.7404 106.651 30.4966 105.548C29.931 105.248 29.4637 104.93 28.7519 105.471C29.121 105.808 29.3732 106.066 29.7051 106.207C32.7056 108.082 35.823 110.037 38.9218 111.894C41.5532 113.432 44.2829 114.951 46.8958 116.391C49.0599 117.611 51.224 118.83 53.0508 120.418C53.5367 120.835 54.0412 121.35 54.6625 121.945C54.1898 122.136 53.9136 122.29 53.6188 122.346C50.0257 122.72 46.414 122.996 42.9007 123.253C42.1943 123.284 41.5861 123.298 40.978 123.311C40.7761 123.858 41.0283 124.115 41.3417 124.158C41.8887 124.36 42.5154 124.445 43.1421 124.53C47.2582 124.77 51.3983 124.598 55.5253 123.818C55.82 123.762 56.0166 123.725 56.4282 123.749C58.8709 126.442 60.6815 129.56 62.3513 133.01C60.6012 133.442 59.029 133.74 57.4754 134.135C54.6259 134.674 51.6967 135.329 48.8471 135.868C48.3558 135.961 47.7848 136.17 47.3121 136.361C46.9376 136.534 46.9508 137.142 47.3996 137.363C47.8484 137.583 48.2785 137.705 48.6901 137.729C49.3169 137.814 50.0047 137.684 50.7111 137.653C54.8751 137.069 59.0578 136.584 63.0733 135.214C63.1715 135.196 63.368 135.158 63.5831 135.219C63.8725 135.674 64.2602 136.109 64.5496 136.563C69.4745 143.774 76.1526 148.415 84.5041 150.601C85.0511 150.803 85.6778 150.888 86.2859 150.875C87.7173 150.91 88.4956 149.643 87.7628 148.459C87.338 147.827 86.8336 147.312 86.2494 146.913C85.3147 146.276 84.3004 145.755 83.3657 145.117C81.2999 143.88 79.234 142.642 77.2664 141.385C74.2287 139.313 71.6878 136.639 69.6806 133.558C68.8125 132.196 68.0426 130.815 67.0762 129.471C66.0726 127.93 64.9708 126.408 63.869 124.887C63.3273 124.175 63.1176 123.604 63.147 122.682C63.1686 120.643 63.1105 118.72 62.9355 116.718C62.8481 115.717 62.5641 114.753 62.3783 113.77C62.0836 113.826 61.9481 113.648 61.2471 113.17Z" fill="#277D2A"/>
<path d="M28.3813 116.431C28.5167 116.609 28.5724 116.903 28.7079 117.081C29.0584 117.32 29.3903 117.461 29.8019 117.485C30.957 117.674 32.1122 117.863 33.3285 117.836C33.8383 117.842 34.5076 117.613 34.9803 117.422C35.1768 117.385 35.2008 116.974 35.2619 116.758C35.2433 116.66 35.0894 116.384 34.8743 116.323C34.7574 116.243 34.5423 116.182 34.3272 116.121C32.5028 116.161 30.6784 116.2 28.7558 116.258C28.7372 116.16 28.6575 116.277 28.3813 116.431Z" fill="#277D2A"/>
<path d="M38.9978 134.371C39.8822 134.204 40.6868 134.154 41.4729 134.005C41.8659 133.931 42.1236 133.678 42.4795 133.408C42.7557 133.254 42.546 132.683 42.214 132.542C41.9989 132.481 41.7839 132.42 41.5873 132.457C40.1134 132.735 38.621 132.916 37.0488 133.213C36.9505 133.231 36.9505 133.231 36.8709 133.348C36.7115 133.582 36.5521 133.816 36.5893 134.012C36.6264 134.209 36.8786 134.466 37.0937 134.527C37.5239 134.65 37.917 134.575 38.3286 134.599C38.6048 134.445 38.8996 134.39 38.9978 134.371Z" fill="#277D2A"/>
<path d="M73.2565 129.32C73.6124 129.05 73.9683 128.779 74.2259 128.526C74.906 127.278 75.2726 125.988 75.5225 124.618C75.5039 124.519 75.4668 124.323 75.4482 124.225C75.3128 124.047 75.1774 123.869 75.0791 123.887C74.9623 123.808 74.6861 123.962 74.6064 124.078C74.4284 124.214 74.3673 124.429 74.4045 124.625C74.0378 125.916 73.6897 127.305 73.4213 128.577C73.1636 128.829 73.2008 129.026 73.2565 129.32Z" fill="#277D2A"/>
<path d="M93.2248 90.1297C93.347 89.6995 93.4878 89.3676 93.4507 89.171C93.3818 88.2681 93.3314 87.4635 93.1643 86.5791C91.9462 81.212 89.9421 75.9934 87.6618 70.9288C86.9902 69.5292 86.2388 68.2464 85.291 67.0008C83.4139 64.6078 82.7956 61.8751 82.8465 58.9141C86.2089 56.2431 87.9542 52.5548 89.2322 48.5477C89.8194 46.8084 90.2898 44.9894 90.8584 43.1518C90.9806 42.7216 90.8877 42.2303 90.1627 42.1638C89.6846 42.8648 89.6738 43.8846 89.3125 44.6652C88.9513 45.4459 88.7068 46.3063 88.4438 47.0684C88.1011 47.9474 87.7583 48.8263 87.3971 49.607C87.0543 50.4859 86.5948 51.2852 86.1352 52.0845C85.774 52.8651 85.2958 53.5661 84.8363 54.3654C84.3582 55.0664 83.9172 55.9639 82.9106 56.5613C82.7992 55.9717 82.7249 55.5787 82.7674 55.2653C82.7039 53.8525 82.7387 52.4212 82.5955 51.1252C82.5452 50.3206 82.3966 49.5345 82.248 48.7484C82.1923 48.4536 82.0197 48.0791 81.8657 47.8029C81.5392 47.1523 80.6177 47.1229 80.2379 47.8053C79.9377 48.3709 79.7358 48.9179 79.5339 49.465C79.3319 50.012 79.13 50.559 78.8856 51.4194C78.4236 50.5908 78.0174 50.0569 77.7095 49.5045C76.3979 47.4117 75.1847 45.3003 73.8732 43.2075C73.5838 42.7533 73.2147 42.416 72.7474 42.0972C72.6305 42.0175 72.2189 41.9936 72.041 42.129C71.863 42.2644 71.8205 42.5777 71.7594 42.7928C71.6983 43.0079 71.8337 43.1859 71.8708 43.3824C73.0601 45.9054 74.0714 48.5638 75.6352 50.9143C76.4662 52.0802 77.3955 53.2276 78.4787 54.6512C78.4919 55.2593 78.3457 56.1011 78.2978 56.9243C78.2816 58.4539 78.1672 60.0021 78.151 61.5318C78.2145 62.9446 78.3763 64.3388 78.8328 65.6773C78.9868 65.9535 78.9442 66.2668 79.1539 66.8378C78.5883 66.5376 78.1581 66.4154 77.8262 66.2746C76.8119 65.7539 75.7975 65.2333 74.7832 64.7126C74.3344 64.4921 73.7874 64.2902 73.2589 64.1866C72.8288 64.0643 72.3189 64.0589 72.0001 64.5263C71.7611 64.8768 71.9708 65.4478 72.5549 65.8462C74.7562 67.262 76.9389 68.5795 79.1401 69.9953C79.7057 70.2955 80.3696 70.5771 80.9963 70.6622C81.7213 70.7287 82.1886 71.0474 82.6134 71.6795C83.4444 72.8455 84.1771 74.03 84.9099 75.2145C86.086 77.1294 87.2807 79.1425 88.5365 80.9405C90.18 83.1742 91.1727 85.7343 91.969 88.3316C92.2769 88.884 92.3087 89.5904 93.2248 90.1297Z" fill="#277D2A"/>
<path d="M82.0769 40.8427C82.4328 40.5718 82.8258 40.4976 82.9852 40.2639C83.7635 38.9973 84.5418 37.7307 85.2218 36.4827C85.3812 36.249 85.3069 35.856 85.3494 35.5426C85.2751 35.1496 84.7281 34.9477 84.4519 35.1017C84.3536 35.1202 84.1757 35.2556 84.096 35.3725C83.1583 36.8727 82.3189 38.3544 81.9283 40.0566C81.8486 40.1734 82.0026 40.4496 82.0769 40.8427Z" fill="#277D2A"/>
<path d="M93.6941 58.6955C92.4353 59.0352 91.3916 59.436 90.6372 60.291C90.5576 60.4078 90.515 60.7212 90.5336 60.8194C90.5707 61.016 90.9027 61.1567 91.0009 61.1382C92.0632 60.8356 93.0272 60.5516 94.071 60.1508C94.3472 59.9968 94.5862 59.6463 94.3154 59.2904C94.2597 58.9956 93.9278 58.8548 93.6941 58.6955Z" fill="#277D2A"/>
<path d="M70.3201 54.5648C70.3147 55.0747 70.2722 55.388 70.4076 55.566C70.7713 56.4132 71.4908 56.9896 72.3087 57.5474C72.6592 57.7864 73.0522 57.7121 73.3895 57.3431C73.7268 56.974 73.7508 56.5624 73.4003 56.3233C72.625 55.4522 71.6904 54.8147 70.3201 54.5648Z" fill="#277D2A"/>
<path d="M78.5688 40.5898C78.7282 40.3561 78.9859 40.1039 78.9487 39.9073C78.9409 38.7893 78.7552 37.8067 78.1764 36.8984C78.1579 36.8002 78.0596 36.8187 78.041 36.7205C77.8259 36.6594 77.6108 36.5983 77.5126 36.6168C77.316 36.654 77.1567 36.8876 77.077 37.0045C77.0159 37.2196 76.9733 37.5329 77.1273 37.8091C77.4113 38.7732 77.4191 39.8912 78.5688 40.5898Z" fill="#277D2A"/>
<path d="M77.1998 79.1143C77.9194 79.6907 78.3867 80.0094 78.9709 80.4079C79.0877 80.4876 79.3825 80.4318 79.4622 80.315C79.5418 80.1982 79.7012 79.9645 79.6641 79.768C79.6269 79.5715 79.5898 79.375 79.4544 79.197C78.9499 78.6817 78.5383 78.6578 77.1998 79.1143Z" fill="#277D2A"/>
<path d="M211.946 4.28571C210.414 2.64164 208.423 1.79684 206.088 1.83098C204.461 1.83337 202.79 2.14911 201.274 2.74106C197.965 4.07894 195.179 6.03035 193.088 8.96975C192.69 9.55392 192.371 10.0213 191.954 10.5072C189.667 13.4837 187.011 16.1229 183.93 18.1301C181.856 19.5398 179.88 20.9311 178.077 22.6967C174.31 26.4618 171.694 30.9254 169.76 35.7689C167.765 40.8275 166.826 46.0933 166.416 51.4629C165.929 58.5772 166.05 65.6782 166.798 72.8644C167.01 75.0633 167.241 77.3604 167.453 79.5593C167.697 82.4645 167.314 85.2847 166.206 88.0384C165.924 88.7022 165.643 89.3661 165.459 90.0114C165.337 90.4416 165.313 90.8532 165.289 91.2648C165.321 91.9712 166.2 92.3139 166.752 92.0059C167.108 91.7351 167.366 91.4829 167.605 91.1324C168.5 89.9455 169.377 88.6603 170.389 87.5531C171.56 86.2122 172.713 84.7731 174.118 83.5915C175.007 82.9145 175.547 81.9984 175.754 80.9415C176.145 79.2394 177.236 78.0153 178.832 77.3065C181.533 75.9818 184.234 74.6571 186.935 73.3324C190.305 71.7794 193.676 70.2265 197.046 68.6735C199.293 67.6382 201.54 66.6029 203.614 65.1931C209.143 61.6036 213.313 56.7446 215.712 50.5919C217.022 47.2912 217.705 43.9055 218.173 40.4586C219.043 34.2898 218.892 28.1102 218.545 21.9677C218.275 17.8462 217.041 14.0087 215.647 10.4048C214.692 8.04116 213.497 6.02803 211.946 4.28571ZM170.893 75.1436C170.426 71.0592 169.879 67.0916 169.824 63.0312C169.687 57.4598 169.863 51.9308 170.451 46.4259C170.856 41.5662 171.905 36.8899 173.914 32.4394C175.701 28.4377 178.055 24.7362 181.38 21.8687C182.251 21.0934 183.239 20.3978 184.129 19.7208C186.934 17.8676 189.449 15.5603 191.884 13.3699C192.934 12.4592 193.829 11.2723 194.626 10.1039C196.814 7.14597 199.736 5.37251 203.101 4.32941C203.395 4.27369 203.788 4.1994 204.181 4.1251C207.129 3.56791 209.453 4.55351 211.072 7.19875C212.248 9.11363 213.05 11.2011 213.575 13.4425C214.502 16.7276 214.937 20.1056 214.88 23.5764C214.76 29.4001 214.523 35.1441 213.677 40.9013C213.252 44.0349 212.593 47.009 211.522 49.9592C209.54 55.6259 206.039 60.2567 201.216 63.8144C199.16 65.3225 196.852 66.5729 194.526 67.725C190.229 69.7585 186.03 71.7734 181.868 73.9849C180.389 74.7733 179.027 75.6415 177.683 76.6079C176.418 77.4575 175.523 78.6444 175.194 80.1315C174.907 81.3052 174.269 82.2399 173.3 83.0337C172.588 83.5754 171.895 84.2153 171.202 84.8551C171.59 81.5251 171.192 78.3436 170.893 75.1436Z" fill="#277D2A"/>
<path d="M180.122 35.1332C180.786 35.4148 180.996 35.9858 181.322 36.6365C181.994 38.0361 182.665 39.4357 183.239 40.8539C183.393 41.1301 183.547 41.4063 183.701 41.6825C184.211 41.6879 184.253 41.3746 184.413 41.1409C185.741 37.9385 187.653 35.1345 189.916 32.5695C192.774 29.3833 195.282 25.958 197.556 22.3733C198.732 20.5225 200.044 18.8497 201.338 17.0787C201.675 16.7096 201.994 16.2422 202.719 16.3088C202.578 16.6407 202.437 16.9726 202.297 17.3045C200.679 20.0528 199.043 22.7028 197.327 25.4697C195.831 27.7878 194.317 30.0076 192.803 32.2274C191.608 33.9799 190.333 35.8493 189.507 37.9391C189.305 38.4861 189.103 39.0331 188.84 39.7952C189.331 39.7024 189.546 39.7635 189.822 39.6095C192.757 38.4442 195.692 37.2788 198.724 36.0949C199.295 35.8852 199.75 35.5959 200.222 35.4047C200.591 35.7421 200.451 36.074 200.273 36.2094C199.935 36.5785 199.481 36.8678 199.027 37.1572C195.811 38.9864 192.539 40.5208 188.977 41.6011C188.781 41.6382 188.505 41.7922 188.21 41.8479C187.373 44.9575 187.163 48.1521 187.186 51.5061C188.74 51.1107 190.097 50.7524 191.454 50.3941C193.971 49.7147 196.489 49.0353 198.908 48.3744C199.4 48.2816 199.793 48.2073 200.302 48.2127C200.597 48.157 200.905 48.7094 200.666 49.0599C200.427 49.4104 200.169 49.6626 199.814 49.9334C199.261 50.2414 198.788 50.4325 198.217 50.6422C194.675 51.8207 191.249 53.0789 187.478 53.5882C187.379 53.6067 187.3 53.7236 187.103 53.7607C186.981 54.1909 186.976 54.7008 186.872 55.2292C185.87 62.848 182.39 69.2049 176.727 74.2443C176.292 74.6319 175.936 74.9028 175.482 75.1921C174.377 75.8081 173.227 75.1095 173.397 73.856C173.482 73.2293 173.666 72.584 173.966 72.0185C174.407 71.1209 175.063 70.2845 175.522 69.4853C176.601 67.6531 177.796 65.9006 178.875 64.0684C180.474 61.2219 181.409 58.0937 181.816 54.8619C181.967 53.5103 182.1 52.0603 182.233 50.6104C182.428 48.9454 182.64 47.3786 182.933 45.695C183.097 44.9515 182.986 44.3619 182.659 43.7112C181.852 42.1337 181.144 40.5375 180.435 38.9414C180.151 37.9774 179.984 37.093 179.817 36.2087C179.663 35.9325 179.742 35.8157 180.122 35.1332Z" fill="#277D2A"/>
<path d="M207.338 24.595C207.375 24.7915 207.431 25.0863 207.253 25.2217C207.112 25.5536 206.854 25.8058 206.578 25.9598C205.67 26.5386 204.878 27.197 203.952 27.6776C203.497 27.9669 202.987 27.9615 202.478 27.9562C202.379 27.9747 202.127 27.7171 201.992 27.5391C201.973 27.4409 202.034 27.2258 202.114 27.109C202.175 26.8939 202.353 26.7585 202.451 26.7399C203.949 26.0497 205.428 25.2612 206.828 24.5896C207.025 24.5524 207.141 24.6321 207.338 24.595Z" fill="#277D2A"/>
<path d="M206.125 42.9396C205.357 43.1864 204.688 43.4147 204.019 43.643C203.724 43.6987 203.312 43.6747 202.98 43.5339C202.765 43.4728 202.672 42.9815 202.832 42.7478C202.911 42.631 203.089 42.4956 203.286 42.4585C204.526 42.0205 205.883 41.6622 207.123 41.2242C207.222 41.2057 207.222 41.2057 207.32 41.1871C207.535 41.2482 207.769 41.4076 207.806 41.6041C207.843 41.8006 207.684 42.0343 207.604 42.1511C207.346 42.4034 206.953 42.4776 206.677 42.6316C206.419 42.8839 206.223 42.921 206.125 42.9396Z" fill="#277D2A"/>
<path d="M177.131 52.6942C176.701 52.5719 176.308 52.6462 176.056 52.3886C175.004 51.6714 174.131 50.8188 173.533 49.8122C173.515 49.714 173.398 49.6343 173.478 49.5175C173.539 49.3024 173.52 49.2041 173.698 49.0687C173.778 48.9519 173.993 49.013 174.189 48.9758C174.306 49.0555 174.521 49.1166 174.558 49.3132C175.334 50.1843 176.128 51.1537 177.02 52.1046C176.94 52.2214 176.977 52.4179 177.131 52.6942Z" fill="#277D2A"/>
</g>
<defs>
<clipPath id="clip0">
<rect width="218.5" height="140.4" fill="white" transform="matrix(-0.982601 0.185731 0.185731 0.982601 214.698 0)"/>
</clipPath>
</defs>
</svg>
