<svg width="417" height="153" viewBox="0 0 417 153" fill="none" xmlns="http://www.w3.org/2000/svg">
<path d="M201.971 122.209C201.869 122.108 201.768 122.006 201.566 121.905C201.464 121.804 201.464 121.703 201.363 121.703C201.161 121.5 200.958 121.399 200.756 121.399C200.655 121.399 200.553 121.5 200.452 121.601C200.351 121.703 200.351 121.804 200.351 121.905C200.25 121.905 200.047 121.804 199.946 121.905C199.642 122.006 199.338 122.108 199.136 122.31C198.832 122.512 198.427 122.715 198.124 123.018C196.706 124.233 194.985 124.84 192.859 125.144C191.341 125.346 189.62 125.245 187.696 124.941C187.494 124.941 187.19 124.84 186.988 124.84L186.684 124.739C185.671 124.536 184.76 124.132 183.748 123.524C182.027 122.411 180.508 120.994 179.091 119.173C178.686 118.667 178.281 117.958 177.978 117.149C177.876 116.946 177.775 116.744 177.674 116.541C177.573 116.339 177.269 116.238 177.066 116.238C177.168 116.136 177.168 116.035 177.269 115.833V115.732L177.168 115.63C176.965 115.327 176.661 115.124 176.358 114.922C176.257 114.821 176.054 114.72 175.953 114.618L175.852 114.517L175.143 114.618C174.637 114.72 174.029 114.72 173.523 114.821C173.321 114.821 173.017 114.922 172.713 115.023C172.511 115.124 172.308 115.226 172.308 115.428L172.207 115.732C171.903 116.541 171.498 117.351 171.296 118.262C171.093 119.274 170.992 120.185 170.992 120.994C170.992 123.018 171.397 125.042 172.106 126.965C172.814 128.787 173.827 130.406 175.042 131.924C176.864 134.05 179.091 135.264 181.825 135.77C182.837 135.972 183.849 135.972 184.862 135.972C186.988 135.972 189.114 135.669 191.442 134.96C192.353 134.758 193.163 134.454 193.872 134.151C195.896 133.442 197.617 132.329 199.237 130.811C200.655 129.394 201.566 127.775 201.971 126.156C202.173 125.447 202.274 124.739 202.376 124.03L202.477 123.423C202.578 123.018 202.679 122.411 201.971 122.209ZM173.118 116.643V116.744C173.118 116.845 173.118 116.946 173.017 117.047C172.713 118.565 172.713 119.982 172.814 121.399C173.118 123.828 173.827 126.257 175.143 128.888C175.852 130.305 176.864 131.519 178.281 132.329C179.597 133.139 180.812 133.847 182.128 134.353C181.723 134.252 181.318 134.151 180.913 134.05C178.787 133.544 176.965 132.329 175.649 130.609C173.321 127.674 172.106 124.334 172.005 120.792C172.005 119.375 172.207 117.958 172.814 116.541L173.118 116.643ZM175.244 115.327C174.839 115.327 174.333 115.428 173.928 115.428C173.827 115.428 173.827 115.428 173.827 115.428C174.232 115.327 174.535 115.327 174.94 115.226C175.143 115.226 175.244 115.226 175.447 115.124L175.548 115.226C175.447 115.327 175.345 115.327 175.244 115.327ZM176.661 117.351C176.763 117.553 176.763 117.655 176.864 117.857C177.066 118.363 177.269 118.869 177.573 119.274C178.99 121.5 180.61 123.221 182.634 124.536C184.052 125.447 185.368 126.054 186.684 126.257L187.393 126.358C188.607 126.561 189.721 126.763 190.936 126.763C191.24 126.763 191.442 126.763 191.746 126.763C192.758 126.763 193.77 126.662 194.783 126.358C196.808 125.852 198.326 125.042 199.541 123.727C199.642 123.626 199.743 123.524 199.845 123.322C199.946 123.221 200.047 123.12 200.148 123.018C200.351 122.816 200.452 122.715 200.553 122.512C200.655 122.614 200.655 122.715 200.756 122.816C200.553 122.917 200.452 123.12 200.351 123.221V123.322C199.642 124.536 199.035 125.852 198.326 127.067C197.82 127.876 197.314 128.483 196.706 128.888C196.605 128.989 196.504 129.091 196.403 129.091L196.301 129.192C195.694 129.597 195.087 129.9 194.479 129.799C193.77 129.799 193.163 129.9 192.556 130.305C191.847 130.71 191.138 131.013 190.227 131.317C189.012 131.621 187.899 131.621 186.886 131.216C185.975 130.811 185.165 130.609 184.355 130.609C183.141 130.507 182.027 130.001 181.015 129.192C180.104 128.382 179.192 127.775 178.382 127.37C178.18 127.269 177.978 127.067 177.775 126.965C177.37 126.662 177.066 126.257 176.965 125.751C176.864 125.245 176.661 124.638 176.56 124.132C176.358 123.423 176.155 122.715 175.953 122.006C175.75 121.399 175.649 120.994 175.852 120.488C175.953 120.286 175.953 119.881 175.852 119.577C175.75 119.274 175.548 118.97 175.345 118.667L175.143 118.363C175.042 118.262 174.94 118.262 174.839 118.161H174.535L174.434 118.363C174.434 118.464 174.333 118.565 174.333 118.667C174.333 118.869 174.434 119.071 174.434 119.173C174.637 119.679 174.738 120.185 174.637 120.792C174.535 121.095 174.637 121.5 174.738 122.006C175.042 123.018 175.345 124.132 175.649 125.548C175.953 126.763 176.661 127.775 177.775 128.382C178.787 128.888 179.699 129.597 180.61 130.305C181.521 131.115 182.736 131.519 183.95 131.621C184.862 131.722 185.773 131.924 186.684 132.329C187.393 132.633 188 132.734 188.607 132.734C188.709 132.734 188.81 132.734 188.81 132.734C190.025 132.734 191.341 132.43 192.556 131.722C192.758 131.621 192.859 131.519 193.062 131.418C193.467 131.115 193.872 131.013 194.378 131.013C194.378 131.013 194.378 131.013 194.479 131.013C195.491 131.013 196.2 130.507 196.605 130.103L196.808 130.001C197.111 129.799 197.314 129.495 197.617 129.293C197.921 128.989 198.225 128.686 198.427 128.281C199.237 126.965 199.946 125.65 200.655 124.334L200.857 124.03C200.452 126.156 199.845 127.876 197.415 130.001C195.998 131.216 194.277 132.127 192.454 132.633C190.936 133.038 189.316 133.341 187.797 133.341C185.064 133.442 182.533 132.734 179.8 131.216C178.079 130.204 176.965 128.989 176.155 127.269C175.244 125.245 174.738 123.524 174.434 121.905C174.232 120.589 174.131 119.173 174.434 117.655L174.535 116.744L174.94 116.643C175.447 116.541 175.852 116.44 176.257 116.339C176.358 116.339 176.358 116.339 176.56 116.238C176.56 116.339 176.459 116.44 176.459 116.541C176.459 116.946 176.56 117.149 176.661 117.351Z" fill="#277D2A"/>
<path d="M214.322 144.372L214.524 144.98C214.828 145.688 215.03 146.295 215.435 147.004C216.245 148.522 217.46 149.837 219.282 150.849C221.104 151.963 223.129 152.671 225.255 152.772C226.065 152.874 226.875 152.874 227.786 152.975C230.216 153.076 232.342 152.874 234.366 152.367C235.379 152.165 236.29 151.76 237.201 151.457C239.732 150.343 241.655 148.623 242.87 146.093C243.68 144.372 244.288 142.551 244.49 140.628C244.794 138.503 244.693 136.478 244.186 134.556C243.984 133.746 243.68 132.835 243.275 131.924C242.87 131.115 242.263 130.406 241.757 129.698L241.554 129.495C241.453 129.394 241.25 129.192 241.048 129.192C240.744 129.192 240.441 129.192 240.238 129.192C239.732 129.293 239.124 129.293 238.618 129.394L237.91 129.495L237.808 129.597C237.707 129.698 237.606 129.9 237.505 130.001C237.302 130.305 236.999 130.507 236.897 130.912V131.013L236.999 131.115C237.1 131.216 237.201 131.317 237.302 131.418C237.1 131.418 236.897 131.621 236.796 131.823C236.695 132.025 236.695 132.228 236.695 132.43C236.594 133.24 236.391 133.948 236.087 134.657C235.176 136.782 234.063 138.503 232.645 140.021C231.835 140.83 231.026 141.437 230.114 141.842L229.811 141.943C229.608 142.045 229.305 142.146 229.102 142.247C227.179 143.057 225.66 143.563 224.141 143.765C222.016 144.069 220.092 143.765 218.472 142.956C218.169 142.753 217.764 142.652 217.359 142.45C217.055 142.348 216.852 142.348 216.448 142.348C216.346 142.348 216.245 142.348 216.144 142.45C216.144 142.348 216.043 142.247 215.941 142.247C215.84 142.146 215.739 142.146 215.638 142.146C215.435 142.247 215.334 142.348 215.131 142.551C215.03 142.652 215.03 142.753 215.03 142.854C214.929 143.057 214.828 143.158 214.726 143.259C214.018 143.664 214.322 144.17 214.322 144.372ZM241.453 130.811C242.364 132.025 242.972 133.341 243.275 134.758C244.085 138.3 243.68 141.741 242.162 145.182C241.25 147.206 239.833 148.825 237.808 149.837C237.505 150.04 237.1 150.242 236.695 150.343C237.91 149.534 238.922 148.623 240.036 147.51C241.149 146.295 241.858 144.878 242.263 143.36C242.87 140.527 243.073 137.997 242.769 135.568C242.567 134.151 242.162 132.835 241.554 131.418C241.554 131.317 241.453 131.216 241.453 131.115V131.013V130.811ZM238.72 130.305C238.922 130.204 239.125 130.204 239.327 130.204C239.732 130.204 240.036 130.103 240.441 130.103H240.339C239.833 130.103 239.428 130.204 239.023 130.305C238.821 130.305 238.821 130.305 238.72 130.305ZM238.112 131.924C238.112 131.823 238.011 131.722 238.011 131.621C238.112 131.621 238.213 131.621 238.315 131.621C238.72 131.621 239.226 131.621 239.631 131.519H240.036L240.339 132.329C240.947 133.746 241.25 135.062 241.352 136.478C241.453 138.098 241.352 139.919 240.947 142.045C240.643 143.866 239.732 145.384 238.416 146.7C236.189 148.825 233.759 150.141 231.127 150.748C229.608 151.052 227.988 151.153 226.369 151.153C224.445 151.153 222.522 150.647 220.902 149.736C218.067 148.319 217.055 146.801 216.144 144.777L216.346 145.081C217.359 146.194 218.472 147.307 219.485 148.421C219.788 148.724 220.193 148.927 220.497 149.23C220.801 149.433 221.104 149.635 221.509 149.736L221.712 149.837C222.218 150.141 223.129 150.445 224.04 150.242C224.04 150.242 224.04 150.242 224.141 150.242C224.546 150.141 225.053 150.141 225.458 150.343C225.66 150.445 225.862 150.445 225.964 150.546C227.381 150.849 228.697 150.849 229.912 150.546C230.013 150.546 230.013 150.546 230.114 150.445C230.722 150.242 231.228 150.04 231.836 149.534C232.645 148.927 233.455 148.522 234.265 148.218C235.48 147.813 236.391 147.105 237.201 146.093C237.91 145.081 238.618 144.271 239.529 143.563C240.542 142.652 240.947 141.64 240.947 140.324C240.846 138.907 240.846 137.794 240.947 136.681C240.947 136.175 240.947 135.77 240.744 135.466C240.542 134.96 240.441 134.454 240.542 133.847C240.542 133.645 240.542 133.544 240.542 133.341C240.542 133.24 240.441 133.139 240.441 133.038L240.339 132.835L240.137 132.936C240.036 133.038 239.934 133.038 239.934 133.139L239.833 133.442C239.732 133.746 239.631 134.151 239.631 134.454C239.631 134.758 239.631 135.062 239.833 135.264C240.137 135.669 240.137 136.074 240.137 136.681C240.137 137.389 240.036 138.098 240.036 138.907C240.036 139.413 240.036 140.021 240.036 140.527C240.036 141.033 239.833 141.539 239.529 141.943C239.327 142.146 239.226 142.348 239.023 142.45C238.315 143.057 237.606 143.866 236.897 144.878C236.087 145.992 235.075 146.7 233.961 147.105C233.152 147.307 232.443 147.712 231.633 148.319C230.722 149.028 229.71 149.331 228.393 149.23C227.381 149.23 226.571 149.028 225.863 148.825C225.154 148.623 224.546 148.522 223.838 148.724C223.23 148.927 222.623 148.825 221.914 148.522H221.813C221.712 148.421 221.611 148.421 221.408 148.319C220.699 148.117 219.991 147.611 219.383 146.902C218.472 145.89 217.46 144.777 216.549 143.765C216.549 143.765 216.549 143.765 216.448 143.664C216.346 143.563 216.245 143.36 215.941 143.36C215.941 143.259 216.043 143.158 216.043 143.057C216.144 143.259 216.346 143.36 216.549 143.462C216.65 143.563 216.751 143.563 216.954 143.664C217.055 143.765 217.257 143.866 217.359 143.968C218.776 144.98 220.497 145.486 222.623 145.384C223.635 145.384 224.648 145.283 225.66 144.98C225.964 144.878 226.166 144.878 226.47 144.777C227.685 144.474 228.798 143.968 229.811 143.563L230.418 143.259C231.633 142.753 232.848 141.842 233.961 140.628C235.581 138.907 236.796 136.883 237.606 134.252C237.808 133.746 237.808 133.24 237.91 132.734C237.91 132.532 238.011 132.329 238.011 132.127C238.112 132.329 238.112 132.127 238.112 131.924Z" fill="#277D2A"/>
<path d="M0.106266 110.064L0.308752 110.671C0.612462 111.38 0.814929 111.987 1.21988 112.695C2.02977 114.214 3.2446 115.529 5.06685 116.541C6.88911 117.654 8.91384 118.363 11.0398 118.464C11.8497 118.565 12.6596 118.565 13.5707 118.666C16.0004 118.768 18.1264 118.565 20.1511 118.059C21.1635 117.857 22.0746 117.452 22.9858 117.148C25.5167 116.035 27.4402 114.315 28.655 111.785C29.4649 110.064 30.0723 108.242 30.2748 106.32C30.5785 104.194 30.4773 102.17 29.9711 100.247C29.7686 99.4377 29.4649 98.5269 29.0599 97.6161C28.655 96.8064 28.0476 96.098 27.5414 95.3896L27.3389 95.1871C27.2377 95.0859 27.0352 94.8835 26.8327 94.8835C26.529 94.8835 26.2253 94.8835 26.0229 94.8835C25.5167 94.9847 24.9092 94.9848 24.4031 95.086L23.6944 95.1871L23.5932 95.2884C23.4919 95.3896 23.3907 95.592 23.2894 95.6932C23.087 95.9968 22.7833 96.1992 22.682 96.604V96.7052L22.7833 96.8064C22.8845 96.9076 22.9858 97.0088 23.087 97.11C22.8845 97.11 22.682 97.3124 22.5808 97.5149C22.4796 97.7173 22.4796 97.9197 22.4796 98.1221C22.3783 98.9317 22.1759 99.6401 21.8721 100.349C20.961 102.474 19.8474 104.194 18.4301 105.712C17.6202 106.522 16.8103 107.129 15.8992 107.534L15.5955 107.635C15.393 107.736 15.0893 107.838 14.8868 107.939C12.9633 108.748 11.4448 109.255 9.92623 109.457C7.80026 109.761 5.87676 109.457 4.25697 108.647C3.95326 108.445 3.54831 108.344 3.14336 108.141C2.83966 108.04 2.63719 108.04 2.23224 108.04C2.131 108.04 2.02975 108.04 1.92851 108.141C1.92851 108.04 1.8273 107.939 1.72606 107.939C1.62482 107.838 1.52357 107.838 1.42233 107.838C1.21986 107.939 1.11862 108.04 0.916147 108.242C0.81491 108.344 0.814935 108.445 0.814935 108.546C0.713698 108.748 0.612443 108.85 0.511207 108.951C-0.19745 109.457 0.00502961 109.963 0.106266 110.064ZM27.2377 96.604C28.1488 97.8185 28.7562 99.1341 29.0599 100.551C29.8698 104.093 29.4649 107.534 27.9463 110.975C27.0352 112.999 25.6179 114.618 23.5932 115.63C23.2895 115.833 22.8845 116.035 22.4796 116.136C23.6944 115.327 24.7068 114.416 25.8204 113.303C26.934 112.088 27.6426 110.671 28.0476 109.153C28.655 106.32 28.8575 103.789 28.5538 101.361C28.3513 99.9437 27.9463 98.6281 27.3389 97.2112C27.3389 97.11 27.2377 97.0088 27.2377 96.9076V96.8064V96.604ZM24.4031 95.9968C24.6055 95.8956 24.808 95.8956 25.0105 95.8956C25.4154 95.8956 25.7191 95.7944 26.1241 95.7944H26.0229C25.5167 95.7944 25.1117 95.8956 24.7068 95.9968C24.6055 95.9968 24.5043 95.9968 24.4031 95.9968ZM23.7956 97.7172C23.7956 97.616 23.6944 97.5148 23.6944 97.4136C23.7956 97.4136 23.8969 97.4136 23.9981 97.4136C24.4031 97.4136 24.9092 97.4136 25.3142 97.3124H25.7191L26.0229 98.1221C26.6303 99.5389 26.934 100.855 27.0352 102.271C27.1365 103.891 27.0352 105.712 26.6303 107.838C26.3266 109.659 25.4154 111.177 24.0994 112.493C21.8722 114.618 19.4425 115.934 16.8103 116.541C15.2918 116.845 13.672 116.946 12.0522 116.946C10.1287 116.946 8.20519 116.44 6.5854 115.529C3.75078 114.112 2.73843 112.594 1.8273 110.57L2.02976 110.874C3.04212 111.987 4.15573 113.1 5.1681 114.214C5.47181 114.517 5.87675 114.72 6.18046 115.023C6.48417 115.226 6.78788 115.428 7.19283 115.529L7.39532 115.63C7.9015 115.934 8.81262 116.238 9.72375 116.035C9.72375 116.035 9.72375 116.035 9.82499 116.035C10.2299 115.934 10.7361 115.934 11.1411 116.136C11.3435 116.238 11.546 116.238 11.6472 116.339C13.0645 116.642 14.3806 116.642 15.5955 116.339C15.6967 116.339 15.6967 116.339 15.7979 116.238C16.4054 116.035 16.9116 115.833 17.519 115.327C18.3289 114.72 19.1388 114.315 19.9487 114.011C21.1635 113.606 22.0746 112.898 22.8845 111.886C23.5932 110.874 24.3018 110.064 25.2129 109.356C26.2253 108.445 26.6303 107.433 26.6303 106.117C26.529 104.7 26.529 103.587 26.6303 102.474C26.6303 101.968 26.6303 101.563 26.4278 101.259C26.2253 100.753 26.1241 100.247 26.2253 99.6401C26.2253 99.4377 26.2253 99.3365 26.2253 99.1341C26.2253 99.0329 26.1241 98.9317 26.1241 98.8305L26.0229 98.6281L25.8204 98.7293C25.7191 98.8305 25.6179 98.8305 25.6179 98.9317L25.5167 99.2353C25.4154 99.5389 25.3142 99.9437 25.3142 100.247C25.3142 100.551 25.3142 100.855 25.5167 101.057C25.8204 101.462 25.8204 101.867 25.8204 102.474C25.8204 103.182 25.7191 103.891 25.7191 104.7C25.7191 105.206 25.7191 105.814 25.7191 106.32C25.7191 106.826 25.5166 107.332 25.2129 107.736C25.0105 107.939 24.9092 108.141 24.7068 108.242C23.9981 108.85 23.2895 109.659 22.5808 110.671C21.7709 111.785 20.7585 112.493 19.6449 112.898C18.835 113.1 18.1264 113.505 17.3165 114.112C16.4054 114.821 15.393 115.124 14.0769 115.023C13.0645 115.023 12.2546 114.821 11.546 114.618C10.8373 114.416 10.2299 114.315 9.52126 114.517C8.91384 114.72 8.30643 114.618 7.59777 114.315H7.49653C7.39529 114.214 7.29406 114.214 7.09159 114.112C6.38293 113.91 5.67427 113.404 5.06685 112.695C4.15573 111.683 3.14337 110.57 2.23224 109.558C2.23224 109.558 2.23224 109.558 2.131 109.457C2.02976 109.356 1.92853 109.153 1.62482 109.153C1.62482 109.052 1.72606 108.951 1.72606 108.85C1.8273 109.052 2.02977 109.153 2.23224 109.255C2.33348 109.356 2.43471 109.356 2.63718 109.457C2.73842 109.558 2.94089 109.659 3.04212 109.761C4.45943 110.773 6.18047 111.279 8.30644 111.177C9.31881 111.177 10.3312 111.076 11.3435 110.773C11.6472 110.671 11.8497 110.671 12.1534 110.57C13.3683 110.267 14.4819 109.761 15.4942 109.356L16.1016 109.052C17.3165 108.546 18.5313 107.635 19.6449 106.421C21.2647 104.7 22.4796 102.676 23.2894 100.045C23.4919 99.5389 23.4919 99.0329 23.5932 98.5269C23.5932 98.3245 23.6944 98.1221 23.6944 97.9197C23.8969 98.0209 23.8969 97.8184 23.7956 97.7172Z" fill="#277D2A"/>
<path d="M20.6572 35.7805C20.6572 33.554 20.9609 31.2263 21.8721 29.2022C22.0746 28.6962 22.3783 28.2914 22.7832 27.8866C23.2894 27.3806 23.8968 26.9758 24.5042 26.6721C25.0104 26.4697 25.5166 26.2673 26.0228 26.2673C26.7314 26.2673 27.4401 26.4697 28.0475 26.6721C30.5784 27.3806 32.8056 28.595 35.0328 29.9107C42.9293 34.3636 51.0282 38.6142 59.2284 42.5612C63.9865 44.8888 68.7446 47.1153 73.5028 49.3418C74.3127 49.7467 75.2238 50.1515 75.9324 50.6575C77.7547 51.7707 78.6658 53.39 78.1596 55.6165C77.7547 57.2358 77.451 58.855 76.7423 60.2719C74.2114 65.5345 70.3644 69.5826 64.6952 71.7079C57.6086 74.4404 50.4208 75.0477 43.1318 73.3272C34.5267 71.3031 27.7438 66.6477 24.403 58.1466C23.8968 57.0334 23.5931 55.8189 23.1881 54.6045C21.6696 49.3419 20.6572 43.978 20.6572 38.513C20.7585 37.7034 20.6572 36.6913 20.6572 35.7805ZM70.4657 51.6695C68.1372 50.7587 65.8088 49.8479 63.3791 48.937C63.3791 49.3418 63.3791 49.6455 63.3791 49.9491C63.3791 51.6695 62.7717 52.378 61.0507 52.2767C60.747 52.2767 60.4432 52.1755 60.1395 52.1755C59.8358 52.0743 59.6333 52.0743 58.9247 51.8719C59.4309 52.6816 59.7346 53.0864 59.9371 53.4912C60.342 54.3008 60.8482 55.1105 61.0507 56.0213C61.4556 57.6406 60.2407 59.1586 58.621 59.4622C58.216 59.5634 57.6086 59.4622 57.3049 59.1586C56.5962 58.6526 55.7864 58.0454 55.2802 57.3369C54.5715 56.5273 54.1665 55.5153 53.5591 54.6045C53.2554 54.1996 53.053 53.6936 52.7493 53.2888C52.1418 53.5924 52.4456 53.9972 52.4456 54.3008C52.4456 54.7056 52.4456 55.1105 52.4456 55.4141C52.4456 55.9201 52.2431 56.3249 51.7369 56.5273C51.2307 56.6285 50.7245 56.4261 50.522 56.0213C50.1171 55.3129 49.7121 54.5032 49.5097 53.6936C48.801 51.3659 49.0035 48.937 49.1047 46.5081C49.1047 46.2045 49.5097 45.9009 49.9146 45.2937C50.4208 48.7346 50.0159 51.9731 51.3319 55.4141C51.6357 54.1996 51.3319 53.39 51.4332 52.5804C51.4332 52.0744 51.3319 51.4671 51.8381 51.0623C52.2431 50.7587 52.8505 50.9611 53.4579 51.6695C53.9641 52.2767 54.369 52.884 54.8752 53.4912C55.6851 54.5032 56.495 55.5153 57.4061 56.5273C57.6086 56.7297 58.0135 56.8309 58.7222 57.1346C58.4185 56.3249 58.3173 55.9201 58.1148 55.5153C57.7098 54.9081 57.3049 54.402 56.9 53.7948C56.3938 52.9852 56.1913 52.0743 56.2925 51.1635C56.5962 49.7466 57.4061 49.0382 58.9247 49.1394C59.3296 49.1394 59.6333 49.2406 60.342 49.3418C59.3296 47.925 58.4185 46.9129 57.1024 46.3057C52.5468 44.1804 47.8899 42.0551 43.4355 40.0311C42.0182 40.5371 40.7021 41.0431 39.386 41.4479C37.7662 41.954 36.9563 43.0672 36.7539 44.6864C36.7539 44.8889 36.8551 45.0913 36.8551 45.3949C37.665 45.5973 38.3736 45.2937 39.0823 45.0913C39.8922 44.8888 40.8033 44.6864 41.6132 44.6864C42.2206 44.5852 42.9293 44.6865 43.233 45.2937C43.5367 45.9009 43.3342 46.5081 42.9293 47.0142C42.5243 47.5202 42.0182 47.925 41.7145 48.431C41.3095 49.0382 40.9046 49.5442 40.6009 50.2527C40.4996 50.4551 40.6008 50.8599 40.4996 51.2647C41.6132 51.0623 42.5243 50.8599 43.4355 50.7587C43.4355 51.0623 43.5367 51.2647 43.5367 51.3659C42.7268 52.4792 41.6132 52.884 40.2972 52.9852C39.386 52.9852 38.6774 52.378 38.6774 51.3659C38.7786 50.2527 39.0823 49.2406 39.6897 48.3298C39.9934 47.925 40.2972 47.5202 40.7021 46.8117C39.9934 46.9129 39.6897 47.0141 39.2848 47.1153C38.5761 47.3177 37.9687 47.5202 37.2601 47.6214C35.539 47.8238 34.3242 46.7105 34.4254 45.0913C34.5267 42.5612 35.944 40.7395 38.3736 39.8287C38.9811 39.6263 39.6897 39.4238 40.3984 39.2214C40.2971 39.019 40.1959 38.7154 39.9934 38.6142C36.5514 36.6913 32.9069 35.0721 31.4896 34.8697C31.1858 40.1323 31.692 45.2937 33.2106 50.3539C34.1217 53.1876 35.4378 55.8189 37.7662 57.843C39.386 59.361 40.9046 61.0815 42.8281 62.3971C45.5615 64.2188 48.4973 65.2309 51.7369 65.3321C54.9765 65.5345 58.0136 64.9272 60.9494 63.308C63.4803 61.8911 66.0112 60.4743 67.9347 58.2478C69.0483 57.0333 69.9595 55.6165 70.5669 54.0984C70.7694 53.5924 70.8706 53.0864 70.9718 52.5804C70.8706 51.872 70.6681 51.7707 70.4657 51.6695ZM72.6929 52.5804C72.5916 52.6816 72.4904 52.7828 72.4904 52.7828C71.1743 57.7418 67.8335 61.0815 63.4803 63.5104C61.1519 64.826 58.7222 66.1417 55.8876 66.4453C49.7122 67.0525 44.1441 65.6357 39.386 61.5875C38.4749 60.7779 37.5638 59.8671 36.5514 59.1586C34.2229 57.2358 32.6032 54.8069 31.4896 52.0744C29.7685 47.6214 28.7562 42.966 28.3512 38.2094C28.25 36.6913 28.25 35.2745 28.6549 33.8576C28.7562 33.4528 28.7562 33.048 28.7562 32.6432C27.6426 31.8335 26.529 30.9227 25.3141 30.3155C25.1116 30.6191 25.0104 30.7203 25.0104 30.8215C24.9092 32.4408 24.8079 34.06 24.8079 35.6793C25.0104 41.0431 25.6178 46.4069 26.9339 51.5683C27.5413 53.7948 28.3512 56.0213 29.1611 58.1466C30.5784 61.4863 33.0081 64.1176 36.0452 66.1417C39.4873 68.4694 43.233 69.6838 47.3837 70.0887C52.5468 70.5947 57.6086 70.0887 62.5692 68.267C68.4409 66.1417 72.1867 62.0935 74.3126 56.4261C74.7176 55.3129 75.2238 54.3008 75.1226 53.0864C74.3127 52.6816 73.5028 52.5804 72.6929 52.5804Z" fill="#277D2A"/>
<path d="M44.6504 54.6045C44.6504 55.2117 45.2578 55.8189 45.8652 55.7177C46.8776 55.7177 47.7887 54.8069 47.9912 53.896C48.0924 53.2888 47.6875 52.6816 46.9788 52.5804C45.8652 52.378 44.6504 53.4912 44.6504 54.6045Z" fill="#277D2A"/>
<path d="M33.7178 38.4119C33.7178 38.9179 34.1227 39.5251 34.5277 39.6263C35.0338 39.6263 35.54 39.2215 35.54 38.6143C35.54 38.1082 35.2363 37.7034 34.8313 37.6022C34.3252 37.501 33.7178 37.9059 33.7178 38.4119Z" fill="#277D2A"/>
<path d="M351.193 68.3683C351.092 67.9634 351.092 67.5586 350.99 67.1538C350.889 66.243 351.193 65.6358 351.902 65.1297C352.307 64.8261 352.711 64.6237 353.116 64.4213C353.623 64.0165 354.129 63.6117 354.534 63.2069C354.939 62.8021 354.837 62.296 354.23 62.0936C353.623 61.79 352.914 61.4864 352.307 61.1828C352.003 60.9804 351.598 60.8792 351.294 60.6768C350.383 60.1708 350.181 59.5635 350.383 58.5515C350.484 58.1467 350.585 57.7418 350.687 57.337C350.889 56.6286 350.687 56.1226 350.181 55.6166C349.674 55.2118 349.067 54.8069 348.561 54.3009C347.65 53.5925 346.84 52.7829 346.03 51.9732C344.41 50.2528 344.106 48.2287 344.916 46.0022C345.422 44.6865 346.131 44.1805 347.548 44.1805C348.46 44.1805 349.371 44.2817 350.181 44.3829C351.902 44.6865 353.521 44.5853 355.141 44.2817C355.951 44.1805 356.66 44.0793 357.47 44.0793C358.786 44.0793 359.798 44.4841 360.608 45.5974C360.912 46.0022 361.215 46.3058 361.418 46.7106C362.936 48.9371 365.062 50.0503 367.694 50.4552C368.707 50.5564 369.618 50.7588 370.63 50.9612C372.655 51.4672 373.364 52.5804 373.262 54.3009C373.262 54.4021 373.262 54.5033 373.262 54.6045C373.161 55.6166 373.465 56.4262 374.072 57.2358C374.275 57.5394 374.477 57.8431 374.68 58.1467C375.388 59.4623 375.085 60.5755 373.769 61.284C373.364 61.4864 373.06 61.6888 372.655 61.79C372.048 61.9924 371.44 62.1948 370.934 62.3972C370.529 62.5996 370.023 62.8021 369.719 63.1057C369.011 63.9153 368.099 64.4213 367.188 64.8261C366.277 65.2309 365.366 65.6358 364.455 66.0406C361.924 67.3562 359.798 69.1779 358.178 71.5056C358.077 71.6068 357.875 71.8092 358.178 72.1128C358.684 71.9104 359.292 71.6068 359.798 71.4044C362.43 70.0887 365.164 68.7731 367.796 67.4574C370.934 65.9394 373.971 64.1177 376.502 61.6888C377.818 60.3732 379.337 59.4623 381.058 58.6527C381.361 58.5515 381.665 58.3491 381.969 58.1467C382.07 57.337 381.766 56.7298 381.463 56.2238C381.159 55.7178 380.855 55.1105 380.653 54.5033C380.45 53.8961 380.45 53.2889 380.956 52.8841C381.766 52.2768 381.969 51.4672 382.07 50.5564C382.171 49.8479 382.273 49.2407 382.475 48.5323C382.88 47.2166 383.791 46.6094 385.107 46.5082C385.512 46.5082 385.816 46.5082 386.221 46.6094C386.828 46.7106 387.436 46.8118 388.043 46.913C389.157 47.2166 390.068 46.913 390.979 46.2046C391.586 45.6986 392.093 45.1925 392.599 44.6865C393.712 43.5733 394.826 42.3588 396.041 41.2456C397.559 39.8287 398.977 38.5131 400.596 37.1974C401.71 36.2866 402.925 35.477 404.342 34.8698C405.152 34.4649 406.063 34.1613 407.076 34.1613C408.797 34.1613 409.91 35.1733 409.91 36.995C409.91 38.1083 409.606 39.0191 409.1 40.0311C407.987 42.3588 406.569 44.4841 404.848 46.407C403.431 47.9251 401.912 49.2407 400.495 50.6576C400.293 50.86 399.888 50.9612 400.09 51.4672C401.305 51.0624 402.621 50.6576 403.836 50.2527C405.962 49.4431 408.088 48.6335 410.315 47.8239C411.226 47.5202 412.137 47.1154 413.15 46.913C413.757 46.7106 414.365 46.7106 414.972 46.7106C416.491 46.8118 417.3 48.0263 416.895 49.5443C416.693 50.1516 416.389 50.5564 415.984 50.9612C415.579 51.2648 415.174 51.6696 414.668 51.872C413.15 52.6816 411.631 53.3901 410.011 54.1997C409.202 54.6045 408.392 54.9081 407.582 55.3129C406.974 55.6166 406.468 55.9202 406.266 56.7298C406.468 56.9322 406.569 57.2358 406.772 57.337C407.379 57.843 408.088 58.3491 408.695 58.9563C409.404 59.5635 410.011 60.1707 410.315 60.9804C411.024 62.3972 410.72 63.5105 409.505 64.4213C408.999 64.8261 408.493 65.1297 407.885 65.4333C405.051 66.9514 402.115 68.0646 398.875 68.4695C395.636 68.9755 392.396 69.7851 389.258 70.696C381.969 72.9225 374.781 75.1489 367.593 77.5778C364.961 78.4887 362.228 79.1971 359.494 80.0067C358.077 80.4115 356.66 80.8163 355.242 81.12C354.939 81.2212 354.736 81.3224 354.331 81.5248C354.736 82.5368 355.04 83.3465 355.344 84.2573C355.647 85.1681 355.85 86.079 356.154 86.9898C356.457 86.9898 356.761 86.8886 357.065 86.8886C358.279 86.8886 359.596 86.6862 360.81 86.7874C364.252 87.091 367.695 87.6982 371.035 88.5079C373.566 89.1151 376.097 89.9247 378.527 90.7343C384.5 92.6572 390.574 94.2765 396.648 95.6933C398.065 95.9969 399.483 96.3006 401.103 96.3006C400.9 95.9969 400.799 95.6934 400.596 95.5922C399.888 94.9849 399.28 94.4789 398.572 93.8717C398.268 93.6693 397.964 93.4668 397.762 93.1632C397.256 92.6572 397.357 91.8476 398.065 91.4428C398.369 91.2404 398.774 91.2404 399.078 91.038C399.28 90.9368 399.483 90.8355 399.786 90.7343C399.078 90.4307 398.572 90.2283 398.065 90.0259C397.154 89.5199 397.053 88.5079 397.762 87.7994C398.167 87.3946 398.572 87.091 398.977 86.8886C399.888 86.3826 400.9 85.9777 401.811 85.5729C402.014 85.4717 402.216 85.2693 402.419 85.1681C401.811 84.8645 401.406 84.6621 400.9 84.3585C399.989 83.7513 399.786 82.8404 400.293 81.9296C400.596 81.4236 401.001 81.0188 401.406 80.6139C402.216 79.9055 403.127 79.2983 404.038 78.5899C405.456 77.4766 406.873 76.4646 408.189 75.2501C409.505 74.1369 410.518 72.8212 411.429 71.4044C411.53 71.3032 411.53 71.1008 411.732 70.696C410.416 71.1008 409.303 71.6068 408.189 72.0116C403.229 74.1369 398.977 77.173 396.041 81.8284C395.636 82.5368 395.028 83.144 394.421 83.7513C392.902 85.1681 391.08 85.4718 389.258 84.4597C388.752 84.2573 388.347 83.9537 387.942 83.5489C387.334 83.144 386.727 82.7392 386.018 82.5368C385.512 82.3344 385.006 82.0308 384.5 81.7272C384.095 81.5248 383.791 81.2212 383.487 81.0187C382.779 80.5127 382.273 80.6139 381.766 81.2212C381.463 81.626 381.159 82.0308 380.855 82.4356C380.248 83.3465 379.337 83.7513 378.324 83.6501C377.514 83.6501 376.806 83.5489 375.996 83.3465C372.756 82.5368 369.517 82.3344 366.176 82.5368C364.759 82.638 363.341 82.7392 361.924 82.8404C361.215 82.8404 360.608 82.9417 359.899 82.9417C359.697 82.9417 359.393 82.8404 359.191 82.7392C358.887 82.638 358.786 82.132 358.988 81.9296C359.191 81.7272 359.393 81.5248 359.596 81.5248C360.102 81.3224 360.709 81.2212 361.317 81.2212C363.139 81.0188 364.961 80.8164 366.783 80.7152C369.82 80.5127 372.959 80.614 375.996 81.3224C376.603 81.4236 377.109 81.5248 377.717 81.626C378.426 81.7272 378.932 81.5248 379.337 80.9176C379.64 80.5128 379.944 80.0067 380.248 79.7031C381.361 78.4887 382.981 78.2863 384.399 79.1971C384.702 79.3995 385.006 79.7031 385.31 79.8043C385.715 80.0067 386.12 80.3103 386.626 80.3103C387.537 80.3103 388.245 80.7152 388.954 81.2212C389.359 81.5248 389.764 81.7272 390.169 81.9296C391.181 82.4356 391.789 82.2332 392.396 81.3224C392.801 80.7152 393.206 80.0067 393.611 79.2983C394.421 77.7802 395.433 76.5658 396.749 75.4525C401.103 71.4044 406.367 69.2791 411.834 67.5586C412.137 67.4574 412.441 67.4574 412.745 67.3562C413.048 67.3562 413.352 67.3562 413.656 67.3562C414.871 67.5586 415.579 68.5707 415.276 69.7851C415.073 70.4936 414.77 71.3032 414.365 71.9104C412.542 75.1489 409.91 77.5778 407.076 79.8043C406.164 80.5127 405.152 81.2212 404.14 81.9296C403.937 82.132 403.735 82.3344 403.431 82.638C403.937 82.8404 404.342 83.0428 404.646 83.144C405.152 83.3464 405.658 83.5489 406.063 83.8525C407.076 84.5609 406.974 85.7754 405.962 86.4838C405.658 86.6862 405.253 86.8886 404.848 86.9898C403.633 87.3946 402.52 87.7994 401.305 88.2042C401.001 88.3054 400.596 88.3055 400.394 88.8115C400.799 88.9127 401.103 89.1151 401.508 89.2163C402.115 89.4187 402.824 89.6211 403.431 89.8235C403.937 90.0259 404.241 90.3295 404.241 90.8355C404.241 91.2404 403.937 91.6452 403.431 91.8476C403.026 91.9488 402.621 92.05 402.216 92.1512C401.609 92.2524 401.001 92.3536 400.394 92.4548C400.09 92.4548 399.888 92.556 399.483 92.6572C400.191 93.2644 400.9 93.7705 401.508 94.3777C402.014 94.8837 402.419 95.3897 402.722 95.997C403.026 96.7054 402.621 97.4138 401.912 97.6162C401.406 97.7174 400.9 97.7174 400.394 97.7174C397.559 97.6162 394.826 97.1102 392.093 96.4018C386.525 95.0861 381.058 93.4668 375.692 91.7464C371.238 90.3295 366.581 89.3175 361.924 88.6091C360.507 88.4066 359.089 88.3055 357.672 88.3055C357.166 88.3055 356.66 88.2043 356.255 88.5079C355.85 89.8235 355.647 91.1392 355.141 92.2524C354.433 93.8717 353.623 95.3897 352.813 96.9078C351.497 99.3367 349.674 101.26 347.346 102.778C343.296 105.409 338.842 107.332 333.983 107.838C330.237 108.243 326.491 108.647 322.745 108.951C318.089 109.356 313.33 109.255 308.674 109.255C294.602 109.052 280.53 108.749 266.458 108.445C258.663 108.243 250.766 108.04 242.971 107.939C232.847 107.838 222.825 107.332 212.802 106.016C209.664 105.611 206.526 105.105 203.489 103.992C202.274 103.587 201.16 103.081 200.047 102.575C199.237 102.17 198.427 101.563 197.819 100.956C196.706 99.8427 196.706 98.527 197.617 97.3126C198.022 96.8066 198.427 96.4018 198.933 95.997C199.743 95.3897 200.553 94.8837 201.464 94.3777C203.387 93.2644 205.513 92.3536 207.639 91.7464C211.183 90.6331 214.726 89.5199 218.37 88.7103C227.785 86.3826 237.201 83.9537 246.514 81.2212C254.714 78.8935 262.915 76.8694 271.216 74.6429C275.468 73.5297 279.821 72.5176 284.174 71.708C290.653 70.4936 297.133 69.3803 303.612 68.1659C309.483 67.0526 315.355 66.1418 321.227 65.6358C323.859 65.4334 326.491 65.3321 329.225 65.4333C330.743 65.5345 332.262 65.5346 333.78 65.5346C336.311 65.6358 338.842 65.6357 341.373 66.4454C342.385 65.8382 342.487 65.8382 343.6 66.1418C346.03 66.9514 348.055 68.3683 349.674 70.3923C349.978 70.7971 350.383 71.3032 350.889 71.9104C351.395 70.1899 351.395 69.9875 351.193 68.3683ZM200.857 100.652C202.78 101.664 204.805 102.272 206.931 102.676C212.499 103.79 218.168 104.194 223.837 104.599C230.316 105.004 236.796 105.207 243.275 105.207C251.88 105.207 260.384 105.611 268.989 105.814C284.782 106.219 300.575 106.623 316.368 106.522C322.543 106.522 328.617 105.814 334.793 104.903C339.146 104.296 342.891 102.373 346.435 99.8427C348.46 98.3246 349.776 96.3006 350.99 94.1753C351.699 92.8596 352.307 91.544 352.711 90.1271C353.116 88.7103 353.116 87.2934 352.509 85.8766C351.193 82.638 350.079 79.3995 348.966 76.161C348.257 73.9345 347.042 72.1128 345.22 70.5948C344.208 69.7851 343.195 68.9755 342.183 68.0647C341.879 68.2671 341.677 68.4695 341.373 68.5707C341.069 68.6719 340.766 68.5707 340.462 68.5707C339.956 68.5707 339.551 68.5707 339.045 68.5707C338.235 68.5707 337.425 68.5707 336.514 68.5707C335.299 68.5707 333.983 68.5707 332.768 68.5707C331.857 68.5707 330.946 68.5707 330.136 68.5707C327.402 68.3683 324.669 68.5707 321.834 68.8743C313.432 69.8863 305.13 71.5056 296.829 73.1249C296.525 73.2261 296.12 73.3272 295.715 73.4285C296.019 74.0357 296.323 74.5417 296.525 75.0477C296.728 75.5537 296.93 75.9586 297.133 76.4646C297.639 77.4766 297.841 78.6911 297.841 79.8043C297.841 80.3103 297.74 80.7152 297.639 81.2212C297.538 81.626 296.829 81.7272 296.626 81.3224C296.424 81.0188 296.221 80.6139 296.12 80.2091C295.614 78.7923 295.209 77.3754 294.703 75.8574C294.5 75.1489 294.298 74.4405 294.095 73.7321C293.589 73.8333 293.184 73.8333 292.779 73.9345C284.984 75.2501 277.29 76.9706 269.697 79.0959C262.408 81.12 255.018 82.9416 247.729 84.8645C242.262 86.2814 236.796 87.6982 231.329 88.8115C230.924 88.9127 230.519 89.0139 230.013 89.1151C230.316 89.5199 230.62 89.9247 230.823 90.2283C231.025 90.5319 231.228 90.9368 231.43 91.3416C231.632 91.7464 231.835 92.2524 231.936 92.6572C232.037 93.062 232.24 93.4669 232.341 93.8717C232.442 94.2765 232.645 94.7825 232.746 95.1873C233.151 96.6042 233.354 98.021 233.151 99.5391C233.05 100.248 232.847 100.855 232.645 101.462C232.544 101.867 232.139 102.069 231.734 101.968C231.43 101.867 231.228 101.664 231.126 101.361C231.025 101.057 231.025 100.754 231.025 100.45C230.823 99.0331 230.721 97.515 230.418 96.0982C230.114 94.5801 229.81 93.1632 229.405 91.6452C229.203 90.9367 228.899 90.1271 228.697 89.4187C228.595 89.4187 228.494 89.3175 228.393 89.3175C222.622 90.5319 216.852 91.7464 211.183 93.4669C209.462 93.9729 207.741 94.5801 206.02 95.1873C204.197 95.7945 202.578 96.7054 201.059 97.7174C200.35 98.2234 199.642 98.6283 199.338 99.4379C199.642 100.045 200.35 100.349 200.857 100.652ZM405.861 36.995C404.848 37.501 403.836 37.9059 403.026 38.6143C401.508 39.7275 400.09 40.942 398.774 42.2576C397.559 43.3709 396.446 44.6865 395.231 45.7998C394.421 46.6094 393.611 47.419 392.7 48.1275C391.283 49.2407 389.663 49.7467 387.841 49.3419C387.132 49.2407 386.525 49.1395 385.816 49.1395C385.613 49.1395 385.411 49.2407 385.208 49.2407C384.702 49.7467 384.702 50.2528 384.702 50.86C384.5 52.0744 384.297 53.2889 383.285 54.3009C383.487 54.7057 383.69 55.1105 383.791 55.5154C383.994 56.1226 384.297 56.831 384.297 57.4382C384.399 58.8551 383.892 59.9683 382.678 60.778C382.374 60.9804 382.07 61.1828 381.766 61.284C380.552 61.9924 379.337 62.7009 378.324 63.7129C375.692 66.243 372.655 68.1659 369.415 69.7851C365.872 71.6068 362.228 73.4285 358.684 75.1489C357.571 75.7562 356.457 76.3634 355.445 76.9706C354.837 77.3754 354.129 77.679 353.319 77.4766C353.319 78.2862 353.724 78.7923 353.825 79.5007C354.129 79.3995 354.331 79.3995 354.432 79.2983C356.052 78.3875 357.875 77.7802 359.697 77.173C363.038 76.0598 366.277 74.8453 369.618 73.7321C371.946 72.9225 374.275 72.0116 376.603 71.3032C380.855 69.8863 385.006 68.5707 389.258 67.255C392.396 66.243 395.535 65.5345 398.875 65.3321C402.014 65.1297 404.95 64.1177 407.683 62.802C407.784 62.7008 407.987 62.5996 408.088 62.5996C408.189 62.4984 408.189 62.3972 408.29 62.3972C408.189 61.79 407.683 61.284 407.177 60.8792C406.468 60.2719 405.861 59.7659 405.152 59.1587C403.633 57.8431 403.431 56.2238 404.848 54.6045C405.354 53.9973 405.962 53.5925 406.671 53.1877C407.379 52.6816 408.29 52.378 409.1 52.0744C410.315 51.4672 411.53 50.86 412.745 50.2527C412.441 49.9491 412.239 50.1515 412.036 50.1515C410.011 50.86 407.987 51.7708 405.861 52.378C403.127 53.2889 400.394 54.0985 397.661 55.0093C397.256 55.1105 396.851 55.2117 396.446 55.2117C395.231 55.2117 394.522 54.1997 395.028 53.0865C395.231 52.5805 395.636 52.0744 395.939 51.6696C396.749 50.7588 397.661 49.8479 398.572 49.0383C399.888 47.7227 401.305 46.5082 402.722 45.1925C404.241 43.6745 405.557 41.954 406.569 40.0311C407.076 39.1203 407.48 38.2095 407.48 37.0962C406.772 36.5902 406.266 36.7926 405.861 36.995ZM347.852 50.354C348.358 50.9612 348.966 51.5684 349.573 52.1756C350.181 52.7828 350.788 53.2889 351.497 53.7949C352.914 54.9081 353.319 56.325 352.813 57.9443C352.813 58.0455 352.711 58.2479 352.711 58.3491C352.711 58.4503 352.711 58.5515 352.711 58.7539C352.914 59.1587 353.42 59.2599 353.825 59.4623C354.433 59.7659 355.141 60.0695 355.749 60.4744C356.862 61.0816 357.166 62.0936 356.862 63.3081C356.558 64.3201 355.951 65.0285 355.141 65.6358C354.534 66.1418 353.926 66.5466 353.218 67.0526C353.319 68.4695 353.724 69.8863 353.42 71.3032C353.116 72.6188 353.015 73.9345 352.509 75.2501C352.61 75.1489 352.813 75.0477 352.914 74.8453C353.926 73.2261 354.939 71.5056 356.052 69.9875C358.178 66.8502 361.013 64.5225 364.556 63.0045C365.265 62.7008 365.872 62.3972 366.581 62.1948C367.188 61.9924 367.694 61.5876 368.201 61.1828C368.808 60.6768 369.517 60.3732 370.225 60.0695C370.934 59.7659 371.643 59.4623 372.453 59.2599C372.048 58.3491 371.541 57.5394 371.238 56.6286C370.934 55.819 370.934 54.9081 370.833 53.9973C370.124 53.5925 369.213 53.5925 368.403 53.3901C367.087 53.0865 365.872 52.7829 364.657 52.378C363.139 51.872 361.823 50.86 360.709 49.5443C360.203 48.9371 359.596 48.2287 359.191 47.6214C358.684 46.913 358.077 46.7106 357.267 46.8118C356.761 46.913 356.356 46.913 355.85 46.913C353.825 47.2166 351.8 47.2166 349.776 46.913C349.067 46.8118 348.46 46.8118 347.65 46.7106C346.84 48.0263 346.941 49.2407 347.852 50.354Z" fill="#277D2A"/>
<path d="M273.95 104.195C274.557 104.195 275.064 104.296 275.57 104.296C276.987 104.397 278.506 104.498 279.923 104.498C280.935 104.498 282.049 104.397 283.061 104.296C287.414 103.79 291.869 103.081 296.222 102.677C306.852 101.664 317.381 100.855 328.01 100.248C330.845 100.045 333.578 99.8428 336.413 99.5392C337.729 99.438 339.045 99.1343 340.361 98.7295C342.285 98.1223 343.905 97.0091 345.119 95.3898C345.828 94.479 346.334 93.4669 346.233 92.2525C346.233 91.9489 346.233 91.7465 346.132 91.4429C346.03 91.038 345.423 90.8356 345.119 91.2404C344.917 91.4428 344.714 91.7465 344.613 92.0501C343.702 94.3778 341.981 95.7946 339.653 96.5031C338.539 96.9079 337.324 97.1103 336.109 97.3127C330.845 98.3247 325.581 98.9319 320.316 99.438C312.319 100.248 304.22 101.158 296.222 101.664C292.071 101.968 287.921 102.069 283.77 101.563C281.037 101.26 278.404 101.563 275.671 102.069C275.266 102.17 274.861 102.272 274.456 102.373C274.152 102.474 273.849 102.575 273.646 102.778C273.343 102.98 273.039 103.284 273.241 103.689C273.444 103.79 273.748 103.992 273.95 104.195Z" fill="#277D2A"/>
<path d="M309.686 91.038C309.787 90.0259 309.989 89.1151 309.989 88.3054C310.192 85.3705 309.686 82.4356 308.572 79.7031C308.066 78.4887 307.56 77.2742 307.054 76.0598C306.851 75.5537 306.547 75.0477 306.244 74.5417C306.041 74.2381 305.839 74.0357 305.535 73.9345C305.231 73.7321 304.928 73.7321 304.624 73.9345C304.32 74.1369 304.219 74.4405 304.32 74.7441C304.421 75.0477 304.421 75.2501 304.523 75.4525C305.535 78.691 306.244 82.0308 306.851 85.3705C307.256 87.2934 307.459 89.3175 307.357 91.2404C307.357 91.6452 307.357 92.05 307.459 92.4548C307.56 92.9608 308.37 93.062 308.572 92.7584C309.078 92.2524 309.382 91.6452 309.686 91.038Z" fill="#277D2A"/>
<path d="M278.809 96.1993C278.809 95.2885 278.91 94.3777 278.91 93.3656C278.809 90.7343 278.1 88.103 277.088 85.6741C276.48 84.1561 275.771 82.638 274.962 81.12C274.759 80.6139 274.455 80.2091 274.05 79.8043C273.848 79.6019 273.544 79.5007 273.139 79.7031C272.836 79.9055 272.633 80.1079 272.734 80.5127C272.836 81.0187 272.937 81.4236 273.038 81.8284C274.455 86.4838 275.67 91.2404 276.278 96.0982C276.278 96.4018 276.379 96.7054 276.48 97.009C276.581 97.4138 276.885 97.6162 277.29 97.6162C277.695 97.6162 277.999 97.4138 278.201 97.1102C278.302 97.009 278.404 96.8066 278.404 96.7054C278.505 96.503 278.505 96.3006 278.606 96.0982C278.809 96.1994 278.809 96.1993 278.809 96.1993Z" fill="#277D2A"/>
<path d="M263.32 102.17C262.713 101.766 262.105 101.766 261.599 101.664C257.954 100.956 254.31 100.652 250.564 100.45C248.134 100.349 245.806 100.247 243.376 100.247C242.87 100.247 242.364 100.349 241.858 100.45C241.554 100.551 241.352 100.855 241.352 101.158C241.352 101.361 241.554 101.664 241.757 101.766C242.161 101.968 242.566 102.069 242.971 102.069C244.591 102.373 246.211 102.474 247.831 102.474C250.564 102.373 253.298 102.373 256.132 102.373C257.752 102.373 259.372 102.575 260.992 102.676C261.599 102.676 262.206 102.676 262.814 102.575C263.016 102.474 263.117 102.272 263.32 102.17Z" fill="#277D2A"/>
<path d="M330.743 71.8092C330.135 71.6068 329.528 71.9104 329.629 72.4164C329.629 72.9224 329.832 73.3272 329.933 73.7321C330.439 75.3513 330.945 76.8694 331.35 78.4886C331.857 80.2091 332.16 82.0308 332.16 83.8525C332.16 83.9537 332.16 84.0549 332.16 84.1561C332.16 84.4597 332.363 84.6621 332.666 84.6621C332.869 84.6621 333.173 84.6621 333.375 84.5609C333.578 84.4597 333.679 84.1561 333.78 83.9537C333.881 83.5489 333.982 83.144 333.982 82.7392C333.982 79.7031 333.679 76.7682 332.363 74.0357C332.059 73.4284 331.654 72.8212 331.249 72.214C331.148 72.1128 330.844 71.9104 330.743 71.8092Z" fill="#277D2A"/>
<path d="M254.512 93.7704C254.816 92.556 254.917 91.4427 254.714 90.3295C254.512 88.8114 254.107 87.3946 253.702 85.9777C253.601 85.4717 253.196 84.9657 252.791 84.5608C252.487 84.2572 251.88 84.2572 251.677 84.662C251.576 84.8645 251.475 85.1681 251.576 85.3705C252.285 87.7994 252.285 90.4307 252.69 92.9608C252.791 93.4668 252.791 93.8716 252.993 94.2764C253.095 94.4788 253.297 94.6812 253.601 94.7825C253.905 94.8837 254.208 94.6813 254.411 94.3776C254.411 94.074 254.411 93.8716 254.512 93.7704Z" fill="#277D2A"/>
<path d="M327.3 78.2863C327.604 78.3875 328.11 78.185 328.212 77.7802C328.313 77.4766 328.414 77.0718 328.313 76.7682C327.807 75.0477 327.3 73.2261 326.086 71.8092C325.883 71.6068 325.681 71.4044 325.377 71.202C325.073 70.9996 324.77 70.7971 324.365 70.9995C324.061 71.1008 324.061 71.6068 324.162 72.0116C324.263 72.3152 324.365 72.6188 324.466 72.9224C324.77 73.6308 325.175 74.3393 325.478 75.0477C325.883 75.8573 326.389 76.667 326.491 77.679C326.592 77.8814 326.896 78.185 327.3 78.2863Z" fill="#277D2A"/>
<path d="M292.982 81.2212C292.982 81.12 293.083 80.8164 293.083 80.5128C293.083 79.2983 292.881 78.0839 292.476 76.9706C292.374 76.667 292.071 76.3634 291.767 76.161C291.362 75.8574 290.755 76.161 290.856 76.667C290.957 78.0839 291.16 79.6019 291.362 81.0188C291.362 81.12 291.463 81.3224 291.565 81.4236C291.666 81.7272 291.969 81.9296 292.273 81.9296C292.577 82.0308 292.881 81.8284 292.982 81.2212Z" fill="#277D2A"/>
<path d="M270.508 88.5079C270.407 88.8115 270.306 89.1151 270.306 89.5199C270.407 91.2404 270.508 92.9608 270.609 94.6813C270.609 94.9849 270.812 95.3897 270.913 95.6933C271.014 95.8957 271.622 95.9969 271.723 95.6933C271.925 95.3897 272.027 94.9849 272.027 94.6813C272.027 92.7584 271.723 90.9367 271.217 89.1151C271.217 88.8115 271.014 88.5079 270.508 88.5079Z" fill="#277D2A"/>
<path d="M217.358 94.0741C217.358 94.2765 217.257 94.4789 217.257 94.6813C217.459 95.7945 217.662 96.8066 217.864 97.9198C217.965 98.2234 218.067 98.527 218.168 98.8306C218.472 99.3367 219.282 99.3367 219.585 98.8306C219.687 98.527 219.889 98.2234 219.788 97.9198C219.585 96.8066 219.383 95.6933 218.775 94.6813C218.37 94.0741 217.965 93.8717 217.358 94.0741Z" fill="#277D2A"/>
<path d="M246.515 90.8355C246.515 91.1392 246.413 91.3416 246.515 91.544C246.717 92.8596 246.818 94.1753 247.021 95.5921C247.021 95.8958 247.325 96.1993 247.628 96.1993C247.932 96.1993 248.236 95.9969 248.337 95.6933C248.438 95.4909 248.438 95.2885 248.438 95.0861C248.438 93.8717 248.236 92.7584 247.73 91.6452C247.628 90.9367 247.223 90.6331 246.515 90.8355Z" fill="#277D2A"/>
<path d="M271.52 48.0262C271.52 53.4912 270.508 58.855 268.989 64.1176C268.685 65.3321 268.28 66.5465 267.774 67.6598C264.332 76.2621 257.651 80.9175 249.045 82.8404C241.756 84.5609 234.569 83.8524 227.482 81.2211C221.813 79.0958 218.067 75.0477 215.435 69.7851C214.726 68.3682 214.422 66.6477 214.018 65.1297C213.511 63.0044 214.422 61.2839 216.245 60.1707C217.055 59.6647 217.865 59.2598 218.674 58.855C223.433 56.5273 228.191 54.3009 232.949 52.0744C241.149 48.1274 249.248 43.8768 257.144 39.4239C259.372 38.1082 261.599 36.8938 264.13 36.1853C264.838 35.9829 265.446 35.7805 266.154 35.7805C266.661 35.7805 267.268 35.8817 267.673 36.1853C268.28 36.4889 268.888 36.8938 269.394 37.3998C269.799 37.7034 270.103 38.2094 270.305 38.7154C271.216 40.8407 271.52 43.0672 271.52 45.2937C271.621 46.2045 271.621 47.1154 271.52 48.0262ZM221.104 61.5875C221.205 62.0936 221.307 62.5996 221.509 63.1056C222.116 64.6237 223.028 65.9393 224.141 67.255C226.065 69.4815 228.494 70.8983 231.127 72.3152C234.062 73.8332 237.099 74.5417 240.339 74.3393C243.579 74.1368 246.616 73.226 249.248 71.4043C251.171 70.0887 252.589 68.3682 254.31 66.8501C256.537 64.8261 257.954 62.296 258.865 59.361C260.384 54.3008 260.89 49.1394 260.586 43.8768C259.169 44.0792 255.525 45.6985 252.083 47.6214C251.88 47.7226 251.88 48.0262 251.678 48.2286C252.386 48.431 253.095 48.6334 253.702 48.8358C256.132 49.6455 257.549 51.5683 257.651 54.0984C257.752 55.8189 256.537 56.9322 254.816 56.6286C254.107 56.5273 253.5 56.3249 252.791 56.1225C252.386 56.0213 252.083 56.0213 251.374 55.8189C251.88 56.5273 252.184 56.9321 252.386 57.337C252.994 58.2478 253.297 59.2598 253.399 60.3731C253.399 61.3851 252.791 61.9924 251.779 61.9924C250.463 61.8911 249.349 61.4863 248.539 60.3731C248.438 60.2719 248.539 60.0695 248.64 59.7659C249.552 59.9683 250.463 60.0695 251.576 60.2719C251.576 59.8671 251.678 59.4622 251.475 59.2598C251.171 58.6526 250.766 58.0454 250.362 57.4382C249.957 56.9321 249.552 56.5273 249.147 56.0213C248.742 55.5153 248.438 54.9081 248.843 54.3008C249.147 53.6936 249.855 53.5924 250.463 53.6936C251.273 53.7948 252.184 53.9972 252.994 54.0984C253.702 54.1997 254.512 54.6045 255.221 54.4021C255.322 54.0984 255.423 53.896 255.322 53.6936C255.12 52.0743 254.208 50.9611 252.69 50.4551C251.374 50.0503 250.058 49.5443 248.64 49.0382C244.186 51.0623 239.529 53.1876 234.974 55.3129C233.759 55.9201 232.746 56.9321 231.734 58.349C232.443 58.2478 232.746 58.1466 233.151 58.1466C234.67 58.0454 235.48 58.7538 235.783 60.1707C235.986 61.1827 235.682 61.9923 235.176 62.802C234.771 63.4092 234.366 63.9152 233.961 64.5225C233.759 64.9273 233.657 65.3321 233.354 66.1417C234.062 65.8381 234.467 65.8381 234.67 65.5345C235.581 64.5225 236.391 63.5104 237.201 62.4984C237.707 61.8911 238.112 61.1827 238.618 60.6767C239.225 60.0695 239.833 59.8671 240.238 60.0695C240.744 60.4743 240.643 60.9803 240.643 61.5875C240.744 62.3972 240.44 63.2068 240.744 64.4212C241.959 60.9803 241.655 57.7418 242.161 54.3008C242.566 54.9081 242.87 55.2117 242.971 55.5153C243.072 57.9442 243.275 60.3731 242.566 62.7008C242.364 63.5104 241.959 64.32 241.554 65.0285C241.351 65.4333 240.845 65.6357 240.339 65.5345C239.833 65.4333 239.63 64.9273 239.63 64.4212C239.63 64.0164 239.63 63.6116 239.63 63.308C239.63 63.0044 239.934 62.5996 239.327 62.2959C239.023 62.802 238.821 63.2068 238.517 63.6116C237.909 64.5225 237.504 65.5345 236.796 66.3441C236.188 67.0525 235.48 67.6598 234.771 68.1658C234.467 68.3682 233.86 68.4694 233.455 68.4694C231.835 68.267 230.722 66.6477 231.025 65.0285C231.228 64.1176 231.734 63.308 232.139 62.4984C232.341 61.9924 232.645 61.5875 233.151 60.8791C232.544 60.9803 232.24 61.0815 231.936 61.1827C231.633 61.2839 231.329 61.2839 231.025 61.2839C229.304 61.3851 228.596 60.7779 228.697 58.9562C228.697 58.6526 228.697 58.349 228.697 57.9442C226.267 58.855 223.939 59.7659 221.61 60.6767C221.61 61.1827 221.408 61.3851 221.104 61.5875ZM217.156 62.7008C217.055 63.9152 217.561 64.9273 217.966 66.0405C220.092 71.7079 223.837 75.7561 229.709 77.8814C234.67 79.6019 239.63 80.1079 244.895 79.7031C249.045 79.2982 252.791 78.0838 256.233 75.7561C259.27 73.732 261.7 71.1007 263.117 67.761C264.028 65.6357 264.838 63.4092 265.345 61.1827C266.661 55.9201 267.268 50.6575 267.47 45.2937C267.572 43.6744 267.369 42.0552 267.268 40.4359C267.268 40.3347 267.066 40.2335 266.964 39.9299C265.749 40.5371 264.636 41.3467 263.522 42.2576C263.522 42.6624 263.522 43.0672 263.623 43.472C264.028 44.8889 264.028 46.4069 263.927 47.8238C263.623 52.5804 262.611 57.2358 260.789 61.6888C259.675 64.5225 258.055 66.9514 255.727 68.773C254.715 69.5827 253.905 70.3923 252.892 71.2019C248.134 75.3513 242.566 76.6669 236.391 76.0597C233.556 75.7561 231.228 74.4404 228.798 73.1248C224.445 70.6959 221.104 67.3562 219.788 62.3972C219.788 62.296 219.687 62.296 219.586 62.1948C218.776 61.9924 217.966 62.0936 217.156 62.7008Z" fill="#277D2A"/>
<path d="M247.628 64.0164C247.628 64.6237 247.02 65.2309 246.413 65.1297C245.4 65.1297 244.489 64.2188 244.287 63.308C244.186 62.7008 244.591 62.0936 245.299 61.9923C246.413 61.8911 247.628 62.9032 247.628 64.0164Z" fill="#277D2A"/>
<path d="M258.663 47.8238C258.663 48.3298 258.258 48.937 257.853 49.0382C257.347 49.0382 256.841 48.6334 256.841 48.0262C256.841 47.5202 257.145 47.1154 257.549 47.0141C258.056 46.9129 258.562 47.3177 258.663 47.8238Z" fill="#277D2A"/>
<path d="M133.738 1.67476C137.787 1.37115 141.735 1.77598 145.785 2.3832C148.518 2.78802 151.15 3.19282 153.884 3.59763C157.123 4.20486 160.262 5.11571 163.299 6.43136C170.79 9.77109 178.181 13.5156 185.065 17.9686C194.48 24.1421 202.275 32.036 208.754 41.1443C211.791 45.3949 213.917 50.0503 215.031 55.2117C215.739 58.4502 216.043 61.6887 215.942 65.0285C215.942 65.9393 215.739 66.8502 215.537 67.761C215.436 68.5706 215.334 69.4815 215.132 70.2911C214.524 75.3513 213.31 80.3103 210.779 84.8645C210.475 85.4717 210.07 86.0789 209.766 86.6861C206.729 92.1511 202.579 96.7053 197.415 100.247C192.759 103.385 187.798 105.712 182.432 107.231C178.383 108.344 174.334 108.445 170.284 107.737C166.235 107.129 162.489 105.712 158.844 103.891C152.264 100.551 146.493 95.9969 141.432 90.6331C136.37 85.2692 132.017 79.3994 128.271 73.0236C125.234 67.761 122.298 62.3972 119.969 56.7297C117.54 51.1635 116.122 45.2937 115.616 39.2215C115.313 36.2865 115.211 33.3516 115.11 30.5179C115.009 27.8866 115.009 25.2553 115.11 22.7252C115.211 20.3975 115.515 18.0698 115.92 15.6409C116.224 13.3132 116.831 11.188 117.843 9.06267C119.767 4.91331 123.007 2.1808 127.157 0.460333C128.575 -0.146891 130.093 -0.0457057 131.612 0.156702C132.523 0.257906 132.725 0.460314 133.738 1.67476ZM161.881 93.1632C161.881 92.9608 161.881 92.8596 161.881 93.1632C161.881 92.8596 161.881 92.9608 161.881 93.1632C162.286 93.9728 162.691 94.7825 163.198 95.5921C163.299 95.6933 163.501 95.6933 163.704 95.6933C163.198 94.1752 162.995 93.7704 162.286 93.1632C162.185 93.062 161.983 93.1632 161.881 93.1632ZM210.88 79.5006C209.969 79.8042 209.564 80.6139 209.159 81.3223C208.855 81.8283 208.855 82.1319 208.855 83.144C209.361 82.2331 209.766 81.6259 210.07 80.9175C210.374 80.4115 210.677 79.9054 210.88 79.5006C210.88 79.3994 210.779 79.3994 210.779 79.3994V79.2982C210.88 79.2982 210.88 79.3994 210.88 79.5006ZM151.96 88.8114C151.96 88.7102 151.96 88.609 151.96 88.5078C151.96 88.609 151.96 88.7102 151.96 88.8114C152.568 90.0258 152.77 91.3415 153.58 92.4548C153.681 92.3536 153.782 92.3535 153.782 92.2523C153.884 90.8355 153.074 89.7222 152.163 88.8114C152.061 88.7102 152.061 88.8114 151.96 88.8114ZM130.903 3.09161C130.498 3.19282 130.194 3.29404 129.891 3.39524C127.866 4.50849 125.942 5.82413 124.221 7.34219C123.209 8.25303 122.399 9.36626 121.792 10.6819C119.868 14.7301 118.957 18.9807 118.957 23.5348C118.957 25.8625 119.362 28.1902 119.868 30.5179C120.678 34.8697 122.197 39.019 124.424 42.8648C126.044 45.5973 127.866 48.2286 129.789 50.6575C133.434 55.3129 137.078 59.9683 140.723 64.5224C141.533 65.6357 142.444 66.6477 143.355 67.6598C148.518 73.732 154.39 78.9946 161.072 83.2452C166.032 86.4837 171.499 88.4066 177.269 89.621C180.711 90.4307 184.052 90.0259 187.393 89.0138C191.645 87.6982 195.593 85.4717 199.44 83.144C204.705 80.0067 208.349 75.4525 211.082 70.0887C211.994 68.267 212.601 66.4453 212.601 64.4212C212.803 59.8671 212.095 55.4141 210.273 51.1635C208.754 47.6214 206.83 44.4841 204.502 41.4479C198.023 32.9468 190.228 25.8625 181.116 20.2963C175.751 17.0578 170.183 14.1229 164.514 11.4916C160.464 9.56869 156.212 8.05061 151.859 7.13977C147.405 6.22894 142.849 5.31812 138.293 4.40728C135.965 4.00247 133.636 3.39525 131.409 4.00247C131.207 3.80006 131.207 3.69884 131.105 3.59763C131.105 3.49643 131.004 3.39522 130.903 3.09161ZM141.735 85.3705C141.533 84.7633 141.432 84.3584 141.33 83.9536C139.913 80.3103 138.799 76.5657 137.686 72.8212C137.18 70.9995 136.37 69.3802 135.459 67.761C135.357 67.5586 135.054 67.4574 134.851 67.1538C134.75 68.267 135.256 69.0766 135.56 69.9875C136.572 72.6188 137.585 75.1489 138.496 77.8814C139.002 79.3994 139.609 80.9175 139.508 82.5367C139.508 82.7392 139.609 83.0428 139.711 83.2452C140.318 83.9536 140.824 84.662 141.735 85.3705ZM188 97.7173C187.596 99.1342 187.596 100.045 187.798 101.259C189.013 100.855 190.228 100.349 191.341 99.6402C190.734 99.4378 190.126 99.3366 189.62 99.033C189.013 98.7294 188.507 98.2234 188 97.7173ZM150.34 78.7922C150.847 80.6139 151.555 82.1319 152.77 83.7512C152.77 82.638 152.77 81.8283 152.77 80.9175C152.061 80.2091 151.252 79.5006 150.34 78.7922ZM144.671 88.609C145.582 89.5198 146.493 90.3295 147.405 91.1391C147.607 91.3415 147.81 91.6451 148.113 91.3415C147.303 90.0258 146.493 88.8114 145.785 87.5969C145.684 87.4957 145.684 87.3945 145.582 87.2933C145.481 87.1921 145.38 87.1921 145.279 87.1921C145.076 87.6982 144.874 88.103 144.671 88.609ZM157.528 91.8475C157.123 89.3174 156.516 87.9006 155.504 87.0909C155.2 89.115 156.415 90.4307 157.528 91.8475ZM138.395 65.8381C139.204 69.3802 139.711 70.6959 140.925 72.3152C140.723 71.7079 140.622 71.3031 140.419 70.8983C140.116 69.9874 139.711 69.1778 139.711 68.267C139.711 67.1538 139.306 66.5465 138.395 65.8381ZM158.034 98.8306C158.136 98.4258 158.237 98.1222 158.136 98.021C157.731 97.3125 157.326 96.6041 156.921 95.9969C156.82 95.8957 156.718 95.8957 156.516 95.7945C156.516 96.6041 156.415 97.2113 156.415 97.9198C156.82 98.2234 157.326 98.527 158.034 98.8306ZM195.796 97.0089C195.998 96.9077 196.302 96.8065 196.403 96.7053C196.808 96.4017 197.213 96.0981 197.82 95.6933C197.517 95.3896 197.314 95.1873 197.112 94.9849C195.694 96.1993 195.694 96.1993 195.796 97.0089ZM119.058 43.0672C119.362 42.1564 119.362 42.1564 118.653 39.9299C118.653 41.0431 118.755 41.9539 119.058 43.0672ZM182.432 101.664C182.129 102.17 181.623 102.575 181.926 103.182C182.331 103.081 182.635 102.98 183.141 102.778C182.939 102.272 182.635 101.968 182.432 101.664ZM170.993 91.5439C171.398 92.4548 171.398 92.4548 172.106 92.9608C172.106 92.556 172.208 92.2523 172.208 91.8475C171.803 91.5439 171.499 91.2403 170.993 91.5439ZM183.141 93.3656C183.344 94.074 183.647 94.58 184.255 95.0861C184.356 94.3776 184.356 93.7704 184.052 93.2644C183.85 93.2644 183.546 93.3656 183.141 93.3656ZM150.34 93.568C150.644 94.1752 151.252 94.4788 152.061 94.8836C151.758 94.2764 151.657 93.8716 151.454 93.568C151.15 93.062 150.847 93.1632 150.34 93.568ZM169.879 102.676C169.272 102.778 168.867 102.778 168.361 102.879C169.373 103.486 169.373 103.486 169.879 102.676ZM128.372 53.0864C128.372 53.1876 128.271 53.2888 128.372 53.39C128.473 53.5924 128.676 53.7948 128.878 53.9972C128.98 53.896 129.081 53.7948 129.081 53.6936C128.98 53.4912 128.777 53.1876 128.575 52.9852C128.473 53.0864 128.473 53.0864 128.372 53.0864ZM174.131 102.373C174.232 102.17 174.435 102.069 174.435 101.867C174.435 101.563 174.131 101.361 174.03 101.462C173.929 101.563 173.827 101.766 173.827 101.867C173.827 102.069 173.929 102.17 174.131 102.373ZM211.69 76.0597L211.589 76.1609C211.487 76.3633 211.487 76.5657 211.386 76.7681L211.487 76.8693C211.589 76.6669 211.791 76.5657 211.791 76.3633C211.791 76.2621 211.69 76.1609 211.69 76.0597ZM179.598 95.9969C179.497 95.8957 179.395 95.7945 179.395 95.6933C179.294 95.7945 179.092 95.8957 179.092 95.9969C179.092 96.0981 179.294 96.1993 179.294 96.3005C179.395 96.3005 179.497 96.0981 179.598 95.9969ZM203.591 90.5319C203.692 90.5319 203.793 90.5319 203.793 90.5319C203.895 90.3295 203.996 90.1271 203.996 89.9247C203.895 89.9247 203.895 89.8234 203.793 89.8234C203.692 90.0258 203.591 90.2283 203.49 90.3295C203.388 90.4307 203.49 90.4307 203.591 90.5319ZM163.096 88.3054C163.198 88.4066 163.198 88.5078 163.299 88.5078C163.4 88.5078 163.501 88.4066 163.602 88.4066C163.501 88.3054 163.501 88.2042 163.4 88.2042C163.299 88.2042 163.198 88.3054 163.096 88.3054Z" fill="#277D2A"/>
<path d="M185.165 73.6308C180.205 74.2381 175.953 73.732 171.903 72.214C166.74 70.1899 162.59 67.0526 159.552 62.3972C157.528 59.1587 155.807 55.8189 154.794 52.0744C154.288 50.1515 153.984 48.1274 154.288 46.2045C154.491 44.4841 154.997 42.966 156.414 41.7516C156.718 41.448 157.022 40.9419 157.224 40.5371C157.831 39.4239 158.338 38.3106 158.844 37.1974C159.552 35.8817 160.565 34.8697 161.78 34.1613C163.602 33.1492 165.424 32.3396 167.55 32.036C172.106 31.3276 176.56 31.53 181.015 32.542C183.141 33.048 185.165 33.9589 186.886 35.1733C190.025 37.3998 192.859 40.1323 194.985 43.3708C198.326 48.431 199.946 54.0985 198.934 60.1707C197.921 66.243 194.479 70.2911 188.81 72.5176C187.494 73.1248 186.076 73.4284 185.165 73.6308ZM156.617 46.2045C156.515 47.5202 156.515 48.6334 156.718 49.8479C157.933 55.3129 160.767 59.9683 164.614 63.9152C165.222 64.5225 165.93 65.0285 166.639 65.5345C171.701 69.1779 177.471 70.0887 183.444 69.3803C186.076 69.0766 188.506 68.0646 190.632 66.4453C192.252 65.1297 193.568 63.6116 194.277 61.5876C195.188 58.8551 195.39 56.0213 194.682 53.1876C193.467 47.925 190.43 43.6745 186.279 40.3347C184.153 38.6143 181.825 37.501 179.091 36.8938C175.447 36.0842 171.802 35.983 168.158 36.3878C166.74 36.5902 165.323 36.8938 164.007 37.501C162.488 38.1082 161.172 39.0191 160.261 40.5371C159.654 41.6504 158.945 42.7636 158.439 43.9781C158.135 44.8889 157.73 45.7997 156.617 46.2045Z" fill="#277D2A"/>
<path d="M205.109 50.3539C205.21 50.4551 205.514 50.4551 205.514 50.5563C206.02 51.5684 206.628 52.4792 207.032 53.5925C208.146 56.4262 208.855 59.2599 209.361 62.1948C209.766 65.1297 208.956 67.5586 206.83 69.6839C206.526 69.9875 206.121 70.3923 205.716 70.6959C203.692 72.214 202.072 74.2381 200.655 76.3634C199.541 77.9826 198.326 79.3995 196.605 80.4115C195.795 80.9175 194.985 81.3223 194.074 81.6259C191.948 82.2332 189.721 82.7392 187.595 83.3464C185.874 83.8524 184.254 84.2573 182.634 84.8645C180.205 85.6741 177.876 85.5729 175.548 84.7633C173.422 84.0548 171.195 83.65 169.069 83.0428C168.056 82.8404 167.145 82.638 166.133 82.3344C164.108 81.7272 162.387 80.7151 160.869 79.1971C158.338 76.667 155.705 74.1369 153.175 71.6068C150.947 69.3803 148.923 67.1538 147.1 64.5225C145.784 62.5996 144.266 60.8791 142.545 59.3611C142.14 58.9563 141.735 58.5514 141.229 58.2478C138.394 56.0213 135.863 53.39 133.636 50.6575C132.522 49.2407 131.409 47.8238 130.599 46.2045C128.473 42.1564 126.347 38.007 124.322 33.9589C123.715 32.7444 123.209 31.4288 122.804 30.2143C121.892 27.6842 121.69 25.1541 122.297 22.5228C122.702 20.7011 123.107 18.8795 123.512 17.0578C123.613 16.653 123.816 16.2482 124.018 15.8433C124.12 15.6409 124.525 15.5397 124.828 15.4385C124.828 15.8434 124.93 16.0457 124.93 16.2482C124.626 19.1831 124.322 22.2192 124.018 25.1541C123.816 27.4818 124.221 29.6071 125.233 31.7324C126.347 34.2625 127.663 36.7926 128.979 39.2215C129.89 41.0431 130.903 42.8648 131.814 44.6865C132.725 46.407 133.737 48.0262 135.053 49.4431L135.154 49.5443C137.382 52.4792 140.014 55.1105 142.848 57.5394C144.974 59.3611 146.797 61.4864 148.214 63.9152C149.834 66.4453 151.757 68.6719 153.883 70.7971C156.414 73.3272 158.844 75.8573 161.274 78.4886C162.995 80.3103 165.019 81.5247 167.449 82.0308C169.474 82.4356 171.6 82.9416 173.624 83.4476C174.333 83.65 175.042 83.8524 175.75 84.1561C177.978 85.1681 180.205 85.0669 182.432 84.2573C184.457 83.5488 186.583 82.9416 188.607 82.2332C191.442 81.4235 194.074 80.3103 196.403 78.3874C197.314 77.679 198.225 76.8694 198.832 75.8573C200.452 73.4284 202.376 71.4044 204.805 69.7851C205.109 69.5827 205.311 69.3803 205.514 69.1779C207.842 67.3562 208.652 64.9273 208.349 62.0936C207.842 58.2478 206.931 54.5033 205.109 51.0624C205.311 50.7587 205.21 50.5563 205.109 50.3539Z" fill="#277D2A"/>
<path d="M178.282 76.8694C178.079 77.679 177.371 77.8814 176.763 77.9826C174.738 78.3874 172.714 78.5898 170.689 78.185C164.716 77.173 159.452 74.6429 155.605 69.6839C153.884 67.4574 152.568 65.0285 151.656 62.296C151.353 61.3851 151.251 60.4743 151.454 59.5635C151.555 59.2599 151.758 58.9562 151.96 58.855C152.365 58.6526 152.669 58.8551 152.973 59.1587C153.377 59.6647 153.782 60.2719 154.187 60.7779C155.2 62.296 156.111 63.814 157.022 65.3321C159.452 69.0766 162.792 71.8091 166.943 73.4284C170.183 74.6429 173.422 75.6549 176.864 75.8573C177.674 76.0597 177.674 76.0597 178.282 76.8694Z" fill="#277D2A"/>
<path d="M195.797 37.3999C195.594 37.3999 195.29 37.3998 195.189 37.2986C194.48 36.6914 193.873 35.983 193.164 35.3758C191.342 33.5541 189.419 31.9348 187.394 30.4168C185.875 29.3035 184.458 28.0891 183.041 26.8746C181.826 25.7614 180.712 24.6481 179.497 23.5349C177.979 22.0168 176.157 20.9036 174.233 19.9928C171.196 18.5759 168.159 17.159 165.122 15.8434C164.008 15.3374 162.895 14.9326 161.781 14.629C157.63 13.4145 153.48 12.5037 149.228 11.8964C148.418 11.7952 147.507 11.4916 146.697 11.188C144.773 10.5808 142.951 9.87235 141.028 9.36633C139.509 8.96152 137.889 8.5567 136.269 8.35429C135.156 8.25309 133.84 8.35429 132.827 8.7591C130.398 9.56873 128.17 10.7832 126.044 12.3012C125.741 11.9976 126.045 11.7952 126.247 11.5928C126.348 11.3904 126.551 11.188 126.753 11.0868C129.183 9.77116 131.309 8.05069 134.042 7.54467C134.953 7.34226 135.864 7.24105 136.776 7.34225C138.8 7.74707 140.825 8.05069 142.85 8.4555C145.583 8.96152 148.317 9.56873 151.05 10.176C155.707 11.188 160.262 12.4025 164.413 14.629C166.337 15.5398 168.26 16.4506 170.184 17.3614C171.905 18.1711 173.524 18.8795 175.246 19.6892C177.169 20.4988 178.789 21.7132 180.307 23.1301C181.927 24.6481 183.547 26.2674 185.167 27.7855C185.977 28.4939 186.685 29.2023 187.596 29.8096C190.836 31.9348 193.367 34.5661 195.797 37.3999Z" fill="#277D2A"/>
<path d="M156.516 33.554C156.921 33.554 157.123 33.554 157.224 33.554C157.528 33.6552 157.832 33.7564 158.034 33.9588C158.237 34.3636 157.933 34.6673 157.629 34.8697C155.402 36.7926 153.883 39.3226 152.871 42.0551C151.859 44.6865 150.745 47.3178 150.441 50.2527C150.441 50.5563 150.239 50.8599 150.138 51.1635C150.138 51.2647 150.036 51.3659 149.935 51.4671C149.733 51.4671 149.53 51.4671 149.429 51.4671C149.328 51.4671 149.227 51.2647 149.227 51.1635C149.125 50.7587 148.923 50.4551 148.923 50.0503C148.923 46.3057 149.024 42.46 150.745 38.9178C151.656 36.995 152.972 35.4769 154.795 34.3637C155.402 33.9589 156.009 33.7564 156.516 33.554Z" fill="#277D2A"/>
<path d="M193.366 71.3031C193.669 71.7079 193.669 72.1127 193.467 72.5175C192.05 74.744 190.126 76.3633 187.393 76.5657C187.291 76.5657 187.291 76.5657 187.19 76.5657C186.887 76.4645 186.583 76.3633 186.482 76.0597C186.279 75.7561 186.583 75.4525 186.887 75.3513C187.393 75.1488 187.798 74.9464 188.304 74.744C189.924 74.0356 191.341 73.1248 192.556 71.8091C192.758 71.6067 193.062 71.4043 193.264 71.3031H193.366Z" fill="#277D2A"/>
<path d="M203.691 47.8238C204.501 48.5322 205.007 49.2406 205.109 50.3539C204.501 49.5443 203.894 48.8358 203.691 47.8238Z" fill="#277D2A"/>
<path d="M200.351 43.5732C200.654 43.5732 200.857 43.3708 201.16 43.6744C201.464 44.0793 201.768 44.3829 202.072 44.7877C201.768 44.9901 201.565 44.8889 201.363 44.5853C201.059 44.2817 200.654 43.978 200.351 43.5732Z" fill="#277D2A"/>
<path d="M195.796 37.3998C195.999 37.6022 196.201 37.9058 196.707 38.4118C195.897 38.1082 195.594 37.9058 195.796 37.3998Z" fill="#277D2A"/>
<path d="M199.034 41.8528C199.642 41.6504 199.844 42.2576 200.249 42.3588C199.743 42.5612 199.439 42.0552 199.034 41.8528Z" fill="#277D2A"/>
<path d="M197.314 39.2214C197.314 39.3227 197.314 39.3227 197.314 39.4239C197.213 39.3227 197.213 39.3227 197.111 39.2214L197.213 39.1202C197.213 39.1202 197.314 39.1202 197.314 39.2214Z" fill="#277D2A"/>
<path d="M198.225 40.3347H198.124L198.022 40.2335C198.124 40.2335 198.124 40.2335 198.225 40.1323C198.225 40.2335 198.225 40.3347 198.225 40.3347Z" fill="#277D2A"/>
<path d="M199.036 41.8528C199.036 41.7516 198.935 41.6503 198.935 41.5491C198.935 41.4479 198.935 41.4479 198.935 41.3467C199.036 41.4479 199.137 41.4479 199.137 41.5491C199.137 41.6503 199.036 41.7516 199.036 41.8528Z" fill="#277D2A"/>
<path d="M202.071 44.7877C202.173 44.9901 202.375 45.2938 202.476 45.4962C201.97 45.4962 201.869 45.3949 202.071 44.7877Z" fill="#277D2A"/>
<path d="M202.983 46.3057C202.477 46.3057 202.376 46.2045 202.578 45.5973C202.679 45.7997 202.781 46.0021 202.983 46.3057C202.882 46.3057 202.983 46.3057 202.983 46.3057Z" fill="#277D2A"/>
<path d="M203.389 46.913C202.883 46.913 202.782 46.8118 202.883 46.2045C203.085 46.5081 203.288 46.7106 203.389 46.913C203.389 47.0142 203.389 46.913 203.389 46.913Z" fill="#277D2A"/>
<path d="M203.794 47.8238C203.287 47.7226 203.287 47.419 203.49 47.0142C203.49 47.2166 203.591 47.5202 203.794 47.8238C203.692 47.8238 203.794 47.8238 203.794 47.8238Z" fill="#277D2A"/>
<path d="M176.46 41.3467C177.877 40.7395 179.193 40.8407 180.51 41.0431C182.737 41.4479 184.761 42.2576 186.786 43.3708C188.001 44.0793 188.912 45.0913 189.52 46.3057C190.329 47.925 190.633 49.6455 190.633 51.3659C190.633 53.1876 189.722 54.6045 188.102 55.4141C185.774 56.6285 183.344 56.831 180.914 56.1225C180.206 55.9201 179.497 55.5153 178.89 55.1105C175.954 53.0864 173.929 47.925 175.144 44.3829C175.346 43.7756 175.65 43.2696 175.853 42.6624C176.055 42.3588 176.258 41.8528 176.46 41.3467ZM178.789 42.1564C176.359 45.0913 176.46 48.0262 177.877 51.0623C179.598 54.6045 183.85 55.7177 187.292 53.6936C188.203 53.1876 188.71 52.4792 188.71 51.4671C188.811 48.5322 187.9 46.1033 185.268 44.4841C183.85 43.6744 182.433 42.966 180.813 42.5612C180.105 42.46 179.497 42.3588 178.789 42.1564Z" fill="#277D2A"/>
<path d="M66.6171 85.9775C66.2121 84.1559 66.6171 82.5366 67.6295 81.1197C68.3381 80.0065 69.2492 79.0957 70.3628 78.3872C72.6913 76.8692 75.2222 75.8571 78.0568 75.8571C78.563 75.8571 79.0692 75.8571 79.5754 75.7559C82.5112 75.5535 85.3458 75.0475 88.0792 73.9342C89.9015 73.2258 91.7238 72.6186 93.6473 72.2138C97.6967 71.5054 101.746 71.7078 105.796 72.6186C109.946 73.5294 113.793 75.2499 117.438 77.4764C122.297 80.3101 126.853 83.6498 131.105 87.2932C132.421 88.4064 133.838 89.5197 135.154 90.7341C136.977 92.2522 139.001 93.163 141.228 93.7702C141.735 93.8714 142.342 93.9726 142.848 94.175C143.152 94.2762 143.456 94.3775 143.658 94.5799C144.063 94.8835 143.962 95.6931 143.456 95.7943C143.152 95.8955 142.848 95.9967 142.545 95.9967C141.33 95.9967 140.115 96.0979 139.001 96.1991C137.584 96.4015 136.167 96.4015 134.749 96.8063C133.939 97.0087 133.13 97.0087 132.32 96.7051C131.004 96.1991 129.789 96.4015 128.574 97.11C126.549 98.3244 124.423 99.4377 122.398 100.652C119.868 102.17 117.337 103.688 114.907 105.105C113.186 106.117 111.566 107.028 109.744 107.838C104.885 109.76 100.025 110.368 94.8621 109.153C92.1287 108.546 89.699 107.534 87.1681 106.218C82.8149 103.992 78.8667 101.158 75.0197 98.2232C72.4888 96.1991 70.5653 93.669 68.743 91.1389C67.7307 89.4184 67.022 87.698 66.6171 85.9775ZM130.801 90.9365C128.371 88.8112 126.043 86.6859 123.411 84.7631C119.868 82.233 116.223 79.9053 112.376 77.78C109.035 75.9583 105.492 74.4403 101.746 73.7318C98.3041 73.1246 94.9633 72.9222 91.5213 73.8331C90.6101 74.0355 89.699 74.3391 88.8892 74.6427C86.4595 75.6547 83.8273 76.2619 81.2964 76.8692C80.1828 77.1728 79.0692 77.1728 77.9556 77.1728C75.1209 77.274 72.6913 78.3872 70.4641 80.1077C70.2616 80.3101 70.0591 80.5125 69.8566 80.7149C68.1356 82.4354 67.8319 84.3582 68.743 86.5847C69.4517 88.204 70.4641 89.6209 71.5777 91.0377C73.2987 93.0618 75.3234 94.8835 77.5506 96.4015C81.2964 98.9316 85.2446 101.259 89.2941 103.283C91.5213 104.397 93.7485 105.307 96.1782 105.915C100.734 107.129 105.289 106.927 109.744 105.409C111.667 104.7 113.49 103.789 115.312 102.777C118.551 100.956 121.791 99.2352 125.132 97.4136C126.245 96.8063 127.46 96.3003 128.675 95.8955C129.789 95.4907 130.902 95.3895 132.117 95.7943C133.028 96.0979 133.939 96.0979 134.851 95.7943C135.559 95.5919 136.268 95.3895 136.977 95.2883C134.547 94.2762 132.725 92.5558 130.801 90.9365Z" fill="#277D2A"/>
<path d="M100.733 79.0956C100.632 79.6017 100.936 80.1077 101.138 80.5125C101.746 81.5245 102.353 82.6378 102.961 83.6498C103.062 83.8522 103.163 84.1559 103.264 84.3583C103.062 84.7631 102.758 84.6619 102.556 84.5607C99.9234 83.9534 97.19 83.9534 94.5579 84.3583C91.2171 84.7631 87.8762 84.8643 84.5354 84.7631C82.8144 84.6619 81.0934 84.7631 79.3724 84.8643C78.9674 84.8643 78.5625 84.8643 78.2588 85.3703C78.5625 85.4715 78.8662 85.5727 79.0687 85.5727C81.5996 85.6739 84.0293 85.8763 86.5602 85.9775C88.6861 86.0787 90.8121 86.0787 92.9381 86.0787C94.6591 86.0787 96.3801 86.0787 98.1011 86.4836C98.5061 86.5848 99.0123 86.686 99.6197 86.8884C99.4172 87.192 99.2147 87.3944 99.1135 87.4956C96.9875 88.9125 94.9628 90.2281 92.8369 91.6449C92.4319 91.8473 92.027 92.151 91.7232 92.3534C91.7232 92.7582 92.027 92.7582 92.2294 92.7582C92.6344 92.657 93.0393 92.5558 93.4443 92.3534C96.0764 91.1389 98.5061 89.6209 100.733 87.7992C100.835 87.698 101.037 87.5968 101.239 87.3944C103.669 88.204 105.795 89.5197 107.921 91.0377C107.01 91.8474 106.2 92.5558 105.289 93.2642C103.77 94.5799 102.151 95.8955 100.632 97.2112C100.328 97.4136 100.126 97.7172 99.9234 98.0208C99.7209 98.2232 100.025 98.628 100.227 98.628C100.531 98.628 100.835 98.5268 101.138 98.4256C101.543 98.2232 101.948 97.9196 102.353 97.7172C104.682 95.9967 107.111 94.2762 109.035 92.151C109.136 92.0498 109.237 92.0498 109.338 91.9486C109.642 92.151 110.047 92.2522 110.351 92.4546C115.716 95.1871 121.386 95.7943 127.257 94.3775C127.662 94.2763 128.067 94.1751 128.472 93.9726C129.383 93.5678 129.383 92.4546 128.573 91.9486C128.168 91.7462 127.662 91.5438 127.156 91.5438C126.346 91.4426 125.536 91.4425 124.828 91.4425C123.208 91.3413 121.487 91.3413 119.867 91.1389C117.336 90.9365 114.906 90.1269 112.578 88.9124C111.566 88.4064 110.655 87.7992 109.642 87.2932C108.529 86.686 107.314 86.0787 106.2 85.5727C105.694 85.3703 105.289 85.0667 104.985 84.4595C104.378 83.245 103.669 82.0306 102.859 80.8161C102.454 80.2089 101.948 79.7029 101.543 79.1969C101.442 79.1969 101.341 79.1968 100.733 79.0956Z" fill="#277D2A"/>
<path d="M81.8027 92.0498C81.904 92.151 82.1064 92.2522 82.2077 92.2522C82.5114 92.2522 82.7138 92.2522 83.0176 92.151C83.8275 91.8474 84.5361 91.5438 85.346 91.2402C85.6497 91.0377 85.9534 90.7341 86.2571 90.4305C86.3584 90.3293 86.2571 90.1269 86.1559 89.9245C86.1559 89.8233 85.9534 89.8233 85.751 89.8233C85.6497 89.8233 85.4473 89.8233 85.346 89.9245C84.2324 90.5317 83.1188 91.2402 82.0052 91.8474C81.904 91.7462 81.904 91.8474 81.8027 92.0498Z" fill="#277D2A"/>
<path d="M94.2546 99.4377C94.7608 99.0329 95.267 98.7293 95.6719 98.3244C95.8744 98.122 95.9756 97.9197 96.0769 97.616C96.1781 97.4136 95.8744 97.11 95.6719 97.2112C95.5707 97.2112 95.3682 97.3124 95.267 97.3124C94.4571 97.9196 93.546 98.6281 92.7361 99.2353L92.6348 99.3365C92.6348 99.5389 92.5336 99.7413 92.6348 99.8425C92.7361 99.9437 92.9385 100.045 93.141 99.9437C93.4447 99.8425 93.6472 99.7413 93.8497 99.5389C94.0522 99.5389 94.1534 99.4377 94.2546 99.4377Z" fill="#277D2A"/>
<path d="M113.49 84.9655C113.591 84.6619 113.794 84.3582 113.794 84.1558C113.794 83.1438 113.591 82.233 113.287 81.3221C113.287 81.2209 113.186 81.1197 113.085 81.1197C112.984 81.0185 112.781 81.0185 112.68 81.0185C112.579 81.0185 112.478 81.2209 112.478 81.3221C112.478 81.4233 112.478 81.6257 112.478 81.7269C112.68 82.6378 112.984 83.5486 113.186 84.5606C113.186 84.6618 113.287 84.7631 113.49 84.9655Z" fill="#277D2A"/>
</svg>
