<svg width="234" height="260" viewBox="0 0 234 260" fill="none" xmlns="http://www.w3.org/2000/svg">
<g clip-path="url(#clip0)">
<path d="M176.588 221.314C172.991 223.865 169.171 226.435 164.81 227.93C158.226 230.197 151.486 232.209 144.513 233.074C140.607 233.587 136.682 233.877 132.785 233.447C125.352 232.6 118.894 229.516 113.314 224.606C111.222 222.72 109.335 220.592 107.585 218.497C104.849 215.365 102.232 212.042 99.4435 208.824C97.2432 206.184 94.9245 203.734 92.6911 201.232C91.4439 199.767 89.8414 198.872 87.7841 198.958C86.5326 199.02 85.4659 198.617 84.3802 197.992C82.6212 196.84 80.7627 196.101 78.8852 195.139C77.3349 194.329 75.7182 193.794 74.1347 193.121C73.6701 192.936 73.2908 192.699 72.9115 192.462C72.2904 192.022 72.5034 190.837 73.205 190.642C73.5984 190.519 74.1293 190.428 74.6271 190.476C75.4329 190.452 76.2057 190.565 76.9784 190.679C80.2399 191.029 83.5297 190.658 86.5727 189.501C88.9664 188.623 91.308 187.66 93.7017 186.783C101.257 183.804 108.955 181.441 116.814 179.917C122.773 178.735 128.874 178.169 134.951 178.907C140.891 179.612 146.495 181.108 151.596 184.084C154.095 185.487 156.219 187.235 158.395 189.069C161.591 191.804 165.228 193.917 169.134 195.513C169.788 195.817 170.528 196.068 171.13 196.285C175.018 197.659 177.972 200.19 180.347 203.308C181.509 204.825 182.278 206.465 182.79 208.261C183.497 210.76 183.208 213.163 181.872 215.387C180.536 217.61 178.768 219.512 176.588 221.314ZM81.9712 195.01C82.8673 195.517 83.8156 196.11 84.6263 196.669C85.7311 197.517 86.9353 197.953 88.3242 197.924C90.0734 197.909 91.6048 198.497 92.866 199.601C94.3169 200.824 95.7678 202.046 96.9628 203.425C100.614 207.288 104.147 211.34 107.713 215.255C109.652 217.468 111.677 219.629 113.938 221.411C119.239 225.671 125.313 227.936 132.092 228.479C135.661 228.758 139.141 228.505 142.653 228.116C149.181 227.289 155.48 225.899 161.846 224.233C165.577 223.241 169.132 221.771 172.511 219.821C174.644 218.517 176.725 217.128 178.492 215.226C180.871 212.6 181.311 209.869 179.794 206.812C179.585 206.47 179.462 206.077 179.253 205.736C177.081 202.375 174.245 199.655 170.443 198.229C168.912 197.642 167.381 197.054 166.053 196.225C162.829 194.211 159.69 192.145 156.736 189.615C155.717 188.714 154.664 187.951 153.526 187.241C149.335 184.412 144.675 182.924 139.678 182.229C134.269 181.434 128.818 181.72 123.338 182.726C117.19 183.79 111.08 185.299 105.041 187.116C100.576 188.44 96.4236 190.276 92.1671 191.941C89.0909 193.236 85.7397 194.464 81.9712 195.01Z" fill="#277D2A"/>
<path d="M179.068 153.103C175.32 155.981 171.395 158.381 166.968 160.15C163.105 161.692 159.114 162.257 155.027 161.708C153.259 161.5 151.661 161.188 149.874 160.757C147.537 160.193 145.2 159.63 142.948 159.014C141.848 158.749 140.748 158.484 139.648 158.219C136.022 157.271 132.49 157.438 128.982 158.411C126.74 158.961 124.583 159.46 122.341 160.01C121.417 160.224 120.545 160.523 119.933 161.248C119.815 161.438 119.559 161.594 119.251 161.666C118.516 161.998 117.672 161.576 117.563 160.822C117.525 160.377 117.435 159.846 117.534 159.433C117.733 158.608 117.984 157.869 118.235 157.129C120.168 152.431 123.101 148.41 126.708 144.916C128.12 143.583 129.741 142.592 131.552 141.719C133.448 140.794 135.258 139.922 137.154 138.997C141.065 136.957 144.505 134.15 147.652 131.054C150.799 127.957 153.756 124.742 157.197 121.935C161.965 117.848 167.288 114.476 173.151 112.18C174.364 111.672 175.682 111.335 177 110.998C179.242 110.448 181.456 110.618 183.608 111.646C187.155 113.228 190.089 115.536 192.295 118.759C193.788 121.01 194.495 123.508 194.363 126.168C194.128 130.766 193.015 135.08 190.802 139.129C188.978 142.472 186.637 145.544 183.95 148.242C182.353 150.039 180.685 151.528 179.068 153.103ZM121.464 159.726C125.228 158.597 128.565 157.728 131.798 156.689C133.457 156.144 135.102 155.959 136.732 156.134C139.411 156.488 142.089 156.843 144.905 157.231C147.721 157.619 150.589 158.092 153.386 158.258C157.762 158.512 162.042 157.653 166.004 155.699C172.82 152.469 178.768 148.011 183.659 142.208C185.901 139.548 187.9 136.684 189.383 133.55C190.563 131.071 191.33 128.492 191.495 125.695C191.684 123.704 191.343 121.803 190.214 120.149C188.355 117.3 185.832 115.092 182.836 113.642C181.148 112.799 179.328 112.505 177.394 112.985C176.076 113.321 174.844 113.606 173.578 114.028C166.757 116.675 160.804 120.55 155.634 125.704C153.032 128.35 150.535 131.167 147.985 133.898C145.028 137.113 141.881 140.209 138.179 142.59C136.814 143.424 135.449 144.259 134.084 145.094C132.293 146.189 130.572 147.593 129.127 149.063C126.492 151.846 124.151 154.919 122.052 158.195C122.004 158.693 121.853 159.02 121.464 159.726Z" fill="#277D2A"/>
<path d="M138.851 189.885C138.737 190.658 138.192 191.108 137.562 191.611C136.268 192.754 134.922 193.811 133.628 194.954C133.339 195.248 133.135 195.49 132.932 195.732C133.074 196.348 133.382 196.277 133.742 196.291C137.639 196.721 141.252 198.028 144.765 199.748C149.122 201.89 153.578 203.619 158.186 205.021C160.49 205.722 162.814 206.646 165.137 207.569C165.739 207.787 166.289 207.92 166.365 208.811C165.867 208.764 165.507 208.75 165.18 208.598C161.776 207.632 158.234 206.633 154.778 205.581C151.872 204.662 148.914 203.658 146.093 202.687C143.737 201.901 141.38 201.114 138.977 200.826C138.342 200.745 137.621 200.717 136.763 200.656C136.939 201.135 137.01 201.443 137.166 201.699C139.3 204.613 141.52 207.476 143.687 210.253C144.137 210.798 144.536 211.258 144.934 211.718C144.664 212.235 144.304 212.221 144.062 212.017C143.545 211.747 143.061 211.339 142.578 210.932C139.638 208.041 136.987 204.856 134.796 201.273C134.639 201.017 134.535 200.846 134.241 200.557C130.605 200.553 127.079 201.303 123.4 202.38C124.254 203.968 125.089 205.333 125.838 206.75C127.351 209.224 128.831 211.836 130.343 214.31C130.604 214.737 130.832 215.301 131.007 215.779C131.131 216.173 130.671 216.571 130.207 216.386C129.742 216.202 129.363 215.965 129.069 215.676C128.585 215.268 128.22 214.671 127.769 214.126C125.408 210.647 122.961 207.22 121.282 203.324C121.229 203.239 121.125 203.068 120.935 202.95C120.404 203.04 119.821 203.045 119.29 203.135C110.639 204.322 102.718 202.485 95.4919 197.761C94.9751 197.491 94.4915 197.083 94.0932 196.624C93.1069 195.586 93.5237 194.159 94.8936 193.907C95.6473 193.798 96.3679 193.826 97.0553 193.992C98.1551 194.257 99.2218 194.66 100.322 194.925C102.626 195.626 104.93 196.327 107.182 196.942C110.756 197.804 114.444 197.893 118.075 197.314C119.668 197.043 121.209 196.687 122.854 196.502C124.669 196.213 126.537 196.008 128.404 195.804C129.296 195.728 129.86 195.5 130.523 194.86C132.021 193.475 133.485 192.228 135.087 191.014C135.888 190.407 136.793 189.971 137.647 189.449C137.803 189.705 138.026 189.686 138.851 189.885Z" fill="#277D2A"/>
<path d="M158.488 216.441C158.265 216.46 158.009 216.616 157.786 216.635C157.374 216.536 157.047 216.384 156.753 216.095C155.838 215.365 154.923 214.635 154.126 213.716C153.78 213.342 153.5 212.692 153.324 212.213C153.22 212.043 153.509 211.749 153.628 211.559C153.713 211.507 154.021 211.436 154.211 211.554C154.348 211.587 154.538 211.706 154.727 211.824C155.922 213.203 157.117 214.583 158.365 216.047C158.45 215.995 158.417 216.132 158.488 216.441Z" fill="#277D2A"/>
<path d="M138.062 220.608C137.593 219.84 137.09 219.21 136.673 218.527C136.464 218.186 136.478 217.826 136.44 217.38C136.369 217.072 136.933 216.844 137.26 216.996C137.45 217.115 137.64 217.233 137.744 217.404C138.527 218.683 139.394 219.911 140.229 221.276C140.281 221.361 140.281 221.361 140.248 221.499C140.182 221.774 140.115 222.049 139.945 222.153C139.774 222.257 139.414 222.243 139.224 222.125C138.845 221.888 138.636 221.547 138.342 221.257C138.271 220.949 138.115 220.693 138.062 220.608Z" fill="#277D2A"/>
<path d="M118.818 191.82C118.78 191.374 118.742 190.929 118.756 190.568C119.225 189.227 119.936 188.089 120.784 186.984C120.869 186.932 121.04 186.827 121.125 186.775C121.348 186.756 121.571 186.737 121.623 186.823C121.761 186.856 121.832 187.164 121.799 187.301C121.818 187.524 121.699 187.714 121.529 187.818C120.818 188.956 120.022 190.146 119.259 191.199C119.245 191.559 119.074 191.663 118.818 191.82Z" fill="#277D2A"/>
<path d="M134.474 150.716C134.711 150.336 134.863 150.009 135.034 149.905C135.749 149.35 136.38 148.848 137.147 148.378C141.944 145.679 147.158 143.663 152.443 141.955C153.931 141.514 155.387 141.21 156.946 141.077C159.98 140.863 162.421 139.488 164.582 137.463C164.306 133.178 165.869 129.409 167.983 125.772C168.878 124.17 169.911 122.6 170.892 120.945C171.129 120.566 171.556 120.305 172.091 120.798C171.893 121.623 171.144 122.315 170.807 123.107C170.471 123.899 169.997 124.657 169.609 125.364C169.187 126.208 168.765 127.052 168.429 127.844C168.007 128.687 167.723 129.564 167.439 130.442C167.102 131.233 166.904 132.058 166.619 132.935C166.421 133.76 166.051 134.689 166.284 135.836C166.795 135.523 167.137 135.315 167.341 135.073C168.431 134.172 169.468 133.186 170.525 132.422C171.156 131.92 171.838 131.502 172.521 131.085C172.777 130.928 173.17 130.805 173.478 130.734C174.18 130.539 174.82 131.203 174.569 131.942C174.351 132.544 174.081 133.061 173.811 133.578C173.541 134.095 173.271 134.612 172.797 135.37C173.721 135.157 174.39 135.1 175.006 134.957C177.438 134.525 179.817 134.008 182.249 133.576C182.78 133.486 183.278 133.533 183.827 133.665C183.965 133.699 184.259 133.988 184.278 134.21C184.297 134.433 184.093 134.675 183.975 134.865C183.856 135.054 183.633 135.073 183.463 135.178C180.794 135.989 178.145 137.023 175.353 137.441C173.93 137.607 172.456 137.688 170.674 137.841C170.214 138.239 169.688 138.912 169.11 139.5C167.987 140.539 166.916 141.662 165.792 142.701C164.702 143.602 163.56 144.417 162.261 144.977C161.953 145.048 161.75 145.29 161.185 145.518C161.788 145.736 162.167 145.973 162.494 146.124C163.561 146.527 164.627 146.93 165.694 147.332C166.159 147.517 166.676 147.787 167.107 148.109C167.486 148.346 167.832 148.721 167.7 149.271C167.6 149.683 167.036 149.911 166.349 149.745C163.822 149.063 161.381 148.329 158.854 147.647C158.252 147.429 157.597 147.126 157.114 146.718C156.578 146.225 156.028 146.093 155.274 146.202C153.852 146.368 152.482 146.62 151.112 146.872C148.903 147.285 146.609 147.75 144.433 148.025C141.674 148.306 139.11 149.288 136.65 150.44C136.034 150.583 135.489 151.033 134.474 150.716Z" fill="#277D2A"/>
<path d="M178.497 125.907C178.459 125.461 178.25 125.12 178.317 124.845C178.733 123.418 179.15 121.991 179.619 120.649C179.685 120.374 180.027 120.166 180.23 119.924C180.572 119.715 181.088 119.985 181.16 120.293C181.212 120.379 181.231 120.601 181.198 120.739C180.715 122.441 180.179 124.057 179.179 125.489C179.146 125.627 178.838 125.698 178.497 125.907Z" fill="#277D2A"/>
<path d="M157.465 129.273C158.057 130.435 158.461 131.477 158.333 132.61C158.3 132.748 158.096 132.99 158.011 133.042C157.84 133.146 157.513 132.995 157.461 132.909C156.972 131.919 156.536 131.013 156.133 129.971C156.061 129.662 156.161 129.25 156.607 129.212C156.862 129.055 157.19 129.207 157.465 129.273Z" fill="#277D2A"/>
<path d="M176.212 143.831C175.838 144.177 175.634 144.419 175.411 144.438C174.539 144.737 173.629 144.59 172.667 144.358C172.254 144.259 172.046 143.917 172.093 143.42C172.14 142.922 172.429 142.628 172.842 142.727C174.008 142.718 175.108 142.983 176.212 143.831Z" fill="#277D2A"/>
<path d="M181.039 128.338C181.105 128.063 181.119 127.703 181.29 127.598C182.124 126.854 182.977 126.332 184.039 126.152C184.124 126.1 184.176 126.185 184.261 126.133C184.451 126.251 184.641 126.37 184.693 126.455C184.797 126.626 184.731 126.901 184.698 127.038C184.579 127.228 184.376 127.469 184.067 127.541C183.162 127.977 182.328 128.722 181.039 128.338Z" fill="#277D2A"/>
<path d="M153.395 155.205C152.485 155.058 151.935 154.925 151.247 154.76C151.11 154.726 150.953 154.471 150.987 154.333C151.02 154.196 151.086 153.921 151.257 153.816C151.427 153.712 151.598 153.608 151.821 153.589C152.541 153.617 152.835 153.906 153.395 155.205Z" fill="#277D2A"/>
<path d="M118.45 5.08857C120.697 5.12115 122.66 6.0308 124.201 7.78435C125.292 8.99288 126.179 10.4432 126.758 11.9648C127.986 15.3159 128.409 18.691 127.633 22.2134C127.467 22.9008 127.334 23.4507 127.254 24.086C126.582 27.779 126.407 31.5192 126.987 35.1503C127.333 37.6342 127.628 40.0328 127.529 42.5547C127.265 47.8736 125.711 52.8088 123.418 57.493C121.007 62.3668 117.732 66.5962 114.026 70.5033C109.078 75.6385 103.733 80.314 97.9029 84.582C96.1303 85.9003 94.2724 87.2708 92.4998 88.5891C90.1822 90.3579 88.3483 92.5343 87.0501 95.2035C86.7469 95.8578 86.4437 96.512 86.0883 97.081C85.8513 97.4603 85.5623 97.7543 85.2732 98.0483C84.7281 98.4988 83.8842 98.0771 83.7419 97.4609C83.7038 97.0153 83.7179 96.655 83.8174 96.2425C84.0967 94.7824 84.4613 93.2701 84.6031 91.7768C84.8112 90.0086 85.1046 88.1882 85.0378 86.3536C84.9427 85.2397 85.26 84.2251 85.9045 83.3622C86.9043 81.9303 87.0793 80.2995 86.5337 78.6405C85.7033 75.7491 84.873 72.8576 84.0426 69.9661C82.9324 66.4253 81.8222 62.8845 80.712 59.3437C79.9719 56.9831 79.2317 54.6226 78.885 52.1387C77.8356 45.6303 78.6398 39.2779 81.5915 33.3705C83.1598 30.1845 85.2116 27.406 87.4532 24.746C91.4434 19.9618 96.1259 15.9265 100.913 12.0617C104.15 9.49627 107.823 7.83613 111.43 6.45096C113.824 5.57333 116.118 5.10816 118.45 5.08857ZM93.4654 83.0757C96.8068 80.6809 100.115 78.4236 103.162 75.7397C107.385 72.1026 111.366 68.2618 115.053 64.1318C118.385 60.5709 121.147 56.6545 123.099 52.179C124.866 48.1681 126.031 43.9393 125.926 39.5497C125.916 38.3835 125.769 37.1842 125.674 36.0703C125.166 32.7473 125.188 29.3342 125.178 26.0585C125.149 24.6696 125.429 23.2095 125.76 21.8346C126.484 18.227 125.839 14.8709 124.354 11.6762C124.198 11.4203 123.989 11.079 123.78 10.7378C122.215 8.17834 119.925 7.11709 116.877 7.6915C114.668 8.10451 112.583 8.91094 110.568 10.0255C107.511 11.5433 104.715 13.4876 102.179 15.8585C97.9425 19.8558 93.8431 23.8863 90.142 28.3765C88.1042 30.7947 86.3414 33.2791 84.8726 36.0527C82.0013 41.3249 80.9173 47.0279 81.5162 52.9912C81.7776 55.5273 82.3993 58.0775 83.1063 60.5756C84.4822 65.126 85.806 69.5912 86.9591 74.1607C87.3673 75.7865 87.6379 77.3793 87.8232 79.0241C88.0417 80.5316 87.7624 81.9917 86.881 83.2339C86.2034 84.2343 85.9382 85.3342 86.0001 86.5857C86.0762 87.4768 86.067 88.4202 86.0578 89.3635C88.2661 86.841 90.8919 85.001 93.4654 83.0757Z" fill="#277D2A"/>
<path d="M116.936 49.3838C116.281 49.0806 115.717 49.3083 115.016 49.5028C113.527 49.9441 112.039 50.3854 110.603 50.9119C110.295 50.9831 109.987 51.0543 109.678 51.1255C109.332 50.7511 109.536 50.5093 109.602 50.2343C111.085 47.1005 111.881 43.8009 112.264 40.4019C112.708 36.1448 113.565 31.9872 114.697 27.8959C115.28 25.7815 115.639 23.6862 116.084 21.5386C116.132 21.0408 116.264 20.4909 115.728 19.9981C115.577 20.3252 115.425 20.6523 115.274 20.9794C114.322 24.0231 113.455 27.0145 112.555 30.1435C111.84 32.8078 111.21 35.42 110.58 38.0321C110.083 40.0943 109.553 42.2941 108.558 44.309C108.288 44.8258 108.018 45.3426 107.629 46.049C107.368 45.6224 107.179 45.504 107.108 45.1959C106.002 42.2381 104.897 39.2804 103.739 36.2373C103.512 35.6733 103.422 35.1424 103.246 34.6636C102.748 34.6163 102.597 34.9435 102.616 35.1663C102.568 35.664 102.659 36.1949 102.749 36.7258C103.551 40.3379 104.609 43.7934 106.198 47.1587C106.302 47.3293 106.373 47.6374 106.53 47.8933C104.786 50.6006 102.559 52.9003 100.056 55.1337C99.3071 53.7166 98.662 52.47 98.017 51.2234C96.8313 48.9009 95.6455 46.5784 94.512 44.3412C94.2511 43.9146 94.0425 43.5734 93.6963 43.199C93.5398 42.943 92.9236 43.0854 92.8241 43.4979C92.7247 43.9103 92.7106 44.2706 92.7486 44.7162C92.891 45.3324 93.0665 45.8111 93.2942 46.3752C94.7979 49.7927 96.164 53.177 98.317 56.3146C98.3692 56.3999 98.336 56.5374 98.4404 56.708C98.2034 57.0873 97.829 57.4335 97.5068 57.8649C92.5309 63.7207 90.153 70.5666 90.2167 78.1465C90.2216 78.7296 90.2596 79.1752 90.3498 79.7061C90.6346 80.9386 91.9241 81.3222 92.7392 80.3549C93.1467 79.8713 93.5021 79.3023 93.72 78.7002C94.0895 77.771 94.2694 76.7233 94.5536 75.8463C95.1882 73.8172 95.6854 71.755 96.3201 69.7259C97.3575 66.6301 99.0491 63.8375 101.172 61.3672C102.073 60.3477 103.058 59.2761 104.044 58.2045C105.148 56.9432 106.167 55.7342 107.219 54.3876C107.66 53.7665 108.172 53.4535 108.873 53.2589C110.584 52.7986 112.243 52.253 113.902 51.7074C114.808 51.2711 115.576 50.8016 116.343 50.3321C116.651 50.2609 116.685 50.1234 116.936 49.3838Z" fill="#277D2A"/>
<path d="M106.485 22.1337C106.315 22.238 106.059 22.3945 106.078 22.6173C105.926 22.9445 105.912 23.3048 105.983 23.6129C106.164 24.6747 106.207 25.7033 106.472 26.713C106.563 27.2439 106.909 27.6183 107.255 27.9927C107.307 28.078 107.667 28.0921 107.89 28.0731C107.976 28.021 108.094 27.8313 108.127 27.6938C108.246 27.5042 108.227 27.2814 108.174 27.1961C107.681 25.6224 107.273 23.9965 106.832 22.5081C106.727 22.3375 106.59 22.3043 106.485 22.1337Z" fill="#277D2A"/>
<path d="M93.6993 35.344C94.0313 36.0787 94.3112 36.7281 94.591 37.3775C94.7475 37.6334 95.0415 37.9225 95.3686 38.0741C95.5583 38.1926 95.9849 37.9317 96.0511 37.6568C96.0843 37.5193 96.0653 37.2965 95.9609 37.1258C95.4534 35.9124 94.8084 34.6659 94.3008 33.4524C94.2486 33.3671 94.2486 33.3671 94.1965 33.2818C94.0068 33.1633 93.7319 33.0971 93.5612 33.2014C93.3906 33.3057 93.3243 33.5807 93.2912 33.7182C93.277 34.0785 93.4857 34.4197 93.5569 34.7278C93.5428 35.0881 93.6471 35.2587 93.6993 35.344Z" fill="#277D2A"/>
<path d="M105.923 63.3853C106.302 63.6222 106.511 63.9635 106.871 63.9776C108.108 64.2759 109.327 64.3515 110.474 64.1189C110.559 64.0667 110.697 64.0998 110.73 63.9624C110.848 63.7727 110.934 63.7205 110.915 63.4978C110.948 63.3603 110.758 63.2418 110.654 63.0712C110.516 63.038 110.327 62.9196 110.156 63.0239C108.99 63.0337 107.738 63.0957 106.435 63.0723C106.402 63.2098 106.231 63.3141 105.923 63.3853Z" fill="#277D2A"/>
</g>
<defs>
<clipPath id="clip0">
<rect width="218.5" height="140.4" fill="white" transform="translate(119.781 0.172363) rotate(58.5551)"/>
</clipPath>
</defs>
</svg>
