<svg width="242" height="179" viewBox="0 0 242 179" fill="none" xmlns="http://www.w3.org/2000/svg">
<g clip-path="url(#clip0)">
<path d="M228.929 106.281C228.406 110.66 227.748 115.217 225.93 119.453C223.193 125.856 220.161 132.204 216.123 137.954C213.882 141.194 211.464 144.299 208.53 146.899C202.914 151.842 196.294 154.56 188.909 155.403C186.107 155.687 183.263 155.659 180.536 155.55C176.377 155.477 172.157 155.188 167.9 155.096C164.467 154.955 161.094 155.03 157.74 155.007C155.817 154.949 154.078 155.536 152.761 157.119C151.967 158.088 150.953 158.609 149.761 158.994C147.726 159.526 145.931 160.408 143.958 161.154C142.317 161.76 140.836 162.599 139.274 163.322C138.826 163.542 138.395 163.665 137.965 163.787C137.222 163.952 136.486 162.998 136.812 162.348C136.985 161.973 137.274 161.519 137.643 161.182C138.166 160.568 138.769 160.072 139.372 159.575C141.82 157.392 143.753 154.704 144.937 151.671C145.892 149.307 146.75 146.925 147.705 144.561C150.567 136.961 153.981 129.668 158.125 122.818C161.247 117.608 164.922 112.705 169.547 108.694C174.056 104.763 178.926 101.613 184.555 99.8273C187.272 98.916 189.994 98.5145 192.814 98.1317C196.986 97.5972 200.993 96.3192 204.798 94.4942C205.462 94.2126 206.144 93.8327 206.71 93.5326C210.337 91.5721 214.195 91.0802 218.102 91.4115C220.006 91.5679 221.738 92.0987 223.413 92.9244C225.74 94.0765 227.328 95.9033 228.08 98.3862C228.832 100.869 229.056 103.456 228.929 106.281ZM145.934 158.78C146.911 158.456 147.986 158.15 148.945 157.924C150.315 157.674 151.447 157.074 152.357 156.025C153.52 154.718 154.983 153.977 156.648 153.783C158.528 153.528 160.409 153.272 162.233 153.312C167.547 153.197 172.922 153.297 178.217 153.28C181.159 153.327 184.12 153.277 186.959 152.795C193.675 151.724 199.429 148.741 204.381 144.08C206.983 141.62 209.131 138.871 211.199 136.005C214.967 130.611 218.163 125.007 221.2 119.17C222.968 115.739 224.264 112.116 225.086 108.303C225.551 105.846 225.917 103.371 225.693 100.785C225.342 97.258 223.613 95.0993 220.328 94.173C219.935 94.0987 219.56 93.9262 219.167 93.8519C215.218 93.2072 211.299 93.484 207.69 95.3462C206.227 96.0873 204.764 96.8285 203.258 97.2563C199.601 98.2952 195.963 99.2359 192.105 99.7278C190.753 99.8794 189.481 100.148 188.191 100.514C183.281 101.724 179.051 104.181 175.182 107.419C170.963 110.895 167.517 115.129 164.586 119.867C161.248 125.139 158.267 130.682 155.562 136.378C153.547 140.577 152.122 144.887 150.5 149.161C149.396 152.31 148.058 155.619 145.934 158.78Z" fill="#277D2A"/>
<path d="M180.021 58.669C179.639 63.38 178.785 67.9 177.126 72.3697C175.677 76.2683 173.417 79.6067 170.268 82.2682C168.927 83.4395 167.624 84.4143 166.105 85.4503C164.119 86.8049 162.132 88.1596 160.165 89.416C159.23 90.0535 158.295 90.691 157.361 91.3285C154.225 93.3818 151.979 96.1121 150.346 99.3655C149.25 101.397 148.172 103.331 147.075 105.362C146.613 106.191 146.25 107.038 146.377 107.978C146.438 108.193 146.383 108.488 146.229 108.764C145.982 109.532 145.103 109.875 144.471 109.45C144.115 109.179 143.661 108.89 143.422 108.539C142.944 107.838 142.564 107.156 142.184 106.473C139.998 101.887 138.985 97.0145 138.814 91.9954C138.774 90.0542 139.127 88.1873 139.695 86.2592C140.281 84.2329 140.849 82.3048 141.436 80.2785C142.548 76.0108 142.776 71.5759 142.592 67.165C142.408 62.7541 142.009 58.4043 142.236 53.9694C142.405 47.6916 143.477 41.4826 145.71 35.5948C146.148 34.3545 146.782 33.1515 147.417 31.9484C148.513 29.9167 150.125 28.3894 152.331 27.4835C155.884 25.9161 159.565 25.2888 163.434 25.8166C166.106 26.2199 168.432 27.372 170.315 29.2545C173.566 32.5151 176.018 36.2351 177.535 40.5927C178.789 44.1882 179.496 47.9856 179.693 51.7884C179.954 54.1784 179.938 56.4144 180.021 58.669ZM146.276 105.822C147.964 102.274 149.56 99.2169 150.959 96.1229C151.668 94.5268 152.634 93.1829 153.858 92.0912C155.919 90.3435 157.979 88.5958 160.156 86.7684C162.334 84.941 164.609 83.1322 166.609 81.1693C169.734 78.0963 171.969 74.3463 173.179 70.0971C175.358 62.8762 176.045 55.4749 175.024 47.9544C174.556 44.5076 173.775 41.1032 172.446 37.9008C171.4 35.3622 170.003 33.0627 168.04 31.0633C166.69 29.5871 165.052 28.5649 163.068 28.2917C159.709 27.7585 156.379 28.1467 153.293 29.3954C151.535 30.0808 150.096 31.2336 149.153 32.9891C148.519 34.1922 147.903 35.297 147.367 36.5187C144.752 43.3519 143.63 50.3655 143.982 57.6577C144.197 61.3623 144.61 65.1039 144.924 68.827C145.323 73.1768 145.507 77.5877 144.788 81.9298C144.491 83.5019 144.193 85.0741 143.896 86.6462C143.506 88.7097 143.392 90.9271 143.512 92.9852C143.808 96.8066 144.515 100.604 145.535 104.359C145.872 104.728 146.013 105.06 146.276 105.822Z" fill="#277D2A"/>
<path d="M180.304 113.17C180.8 113.772 180.769 114.479 180.718 115.283C180.697 117.01 180.578 118.717 180.557 120.443C180.581 120.855 180.624 121.168 180.666 121.482C181.219 121.79 181.373 121.513 181.625 121.256C184.559 118.655 187.952 116.854 191.585 115.404C196.097 113.611 200.369 111.467 204.501 108.991C206.567 107.753 208.81 106.651 211.054 105.548C211.62 105.248 212.087 104.93 212.799 105.471C212.43 105.808 212.178 106.066 211.846 106.207C208.845 108.082 205.728 110.037 202.629 111.894C199.998 113.432 197.268 114.951 194.655 116.391C192.491 117.611 190.327 118.83 188.5 120.418C188.014 120.835 187.51 121.35 186.888 121.945C187.361 122.136 187.637 122.29 187.932 122.346C191.525 122.72 195.137 122.996 198.65 123.253C199.357 123.284 199.965 123.298 200.573 123.311C200.775 123.858 200.522 124.115 200.209 124.158C199.662 124.36 199.035 124.445 198.409 124.53C194.293 124.77 190.152 124.598 186.026 123.818C185.731 123.762 185.534 123.725 185.123 123.749C182.68 126.442 180.869 129.56 179.199 133.01C180.95 133.442 182.522 133.74 184.075 134.135C186.925 134.674 189.854 135.329 192.704 135.868C193.195 135.961 193.766 136.17 194.239 136.361C194.613 136.534 194.6 137.142 194.151 137.363C193.702 137.583 193.272 137.705 192.861 137.729C192.234 137.814 191.546 137.684 190.84 137.653C186.676 137.069 182.493 136.584 178.478 135.214C178.379 135.196 178.183 135.158 177.968 135.219C177.678 135.674 177.291 136.109 177.001 136.563C172.076 143.774 165.398 148.415 157.047 150.601C156.5 150.803 155.873 150.888 155.265 150.875C153.834 150.91 153.055 149.643 153.788 148.459C154.213 147.827 154.717 147.312 155.301 146.913C156.236 146.276 157.25 145.755 158.185 145.117C160.251 143.88 162.317 142.642 164.284 141.385C167.322 139.313 169.863 136.639 171.87 133.558C172.738 132.196 173.508 130.815 174.475 129.471C175.478 127.93 176.58 126.408 177.682 124.887C178.223 124.175 178.433 123.604 178.404 122.682C178.382 120.643 178.44 118.72 178.615 116.718C178.703 115.717 178.987 114.753 179.172 113.77C179.467 113.826 179.603 113.648 180.304 113.17Z" fill="#277D2A"/>
<path d="M213.169 116.431C213.034 116.609 212.978 116.903 212.843 117.081C212.492 117.32 212.161 117.461 211.749 117.485C210.594 117.674 209.439 117.863 208.222 117.836C207.712 117.842 207.043 117.613 206.57 117.422C206.374 117.385 206.35 116.974 206.289 116.758C206.307 116.66 206.461 116.384 206.677 116.323C206.793 116.243 207.008 116.182 207.224 116.121C209.048 116.161 210.872 116.2 212.795 116.258C212.814 116.16 212.893 116.277 213.169 116.431Z" fill="#277D2A"/>
<path d="M202.553 134.371C201.669 134.204 200.864 134.154 200.078 134.005C199.685 133.931 199.427 133.678 199.071 133.408C198.795 133.254 199.005 132.683 199.337 132.542C199.552 132.481 199.767 132.42 199.963 132.457C201.437 132.735 202.93 132.916 204.502 133.213C204.6 133.231 204.6 133.231 204.68 133.348C204.839 133.582 204.999 133.816 204.962 134.012C204.924 134.209 204.672 134.466 204.457 134.527C204.027 134.65 203.634 134.575 203.222 134.599C202.946 134.445 202.651 134.39 202.553 134.371Z" fill="#277D2A"/>
<path d="M168.294 129.32C167.938 129.05 167.582 128.779 167.325 128.526C166.645 127.278 166.278 125.988 166.028 124.618C166.047 124.519 166.084 124.323 166.103 124.225C166.238 124.047 166.373 123.869 166.472 123.887C166.588 123.808 166.865 123.962 166.944 124.078C167.122 124.214 167.183 124.429 167.146 124.625C167.513 125.916 167.861 127.305 168.13 128.577C168.387 128.829 168.35 129.026 168.294 129.32Z" fill="#277D2A"/>
<path d="M148.326 90.1297C148.204 89.6995 148.063 89.3676 148.1 89.171C148.169 88.2681 148.219 87.4635 148.386 86.5791C149.605 81.212 151.609 75.9934 153.889 70.9288C154.561 69.5292 155.312 68.2464 156.26 67.0008C158.137 64.6078 158.755 61.8751 158.704 58.9141C155.342 56.2431 153.597 52.5548 152.319 48.5477C151.731 46.8084 151.261 44.9894 150.692 43.1518C150.57 42.7216 150.663 42.2303 151.388 42.1638C151.866 42.8648 151.877 43.8846 152.238 44.6652C152.6 45.4459 152.844 46.3063 153.107 47.0684C153.45 47.9474 153.792 48.8263 154.154 49.607C154.496 50.4859 154.956 51.2852 155.416 52.0845C155.777 52.8651 156.255 53.5661 156.714 54.3654C157.193 55.0664 157.634 55.9639 158.64 56.5613C158.752 55.9717 158.826 55.5787 158.783 55.2653C158.847 53.8525 158.812 52.4212 158.955 51.1252C159.006 50.3206 159.154 49.5345 159.303 48.7484C159.359 48.4536 159.531 48.0791 159.685 47.8029C160.012 47.1523 160.933 47.1229 161.313 47.8053C161.613 48.3709 161.815 48.9179 162.017 49.465C162.219 50.012 162.421 50.559 162.665 51.4194C163.127 50.5908 163.533 50.0569 163.841 49.5045C165.153 47.4117 166.366 45.3003 167.678 43.2075C167.967 42.7533 168.336 42.416 168.803 42.0972C168.92 42.0175 169.332 41.9936 169.51 42.129C169.688 42.2644 169.73 42.5777 169.791 42.7928C169.853 43.0079 169.717 43.1859 169.68 43.3824C168.491 45.9054 167.479 48.5638 165.916 50.9143C165.085 52.0802 164.155 53.2276 163.072 54.6512C163.059 55.2593 163.205 56.1011 163.253 56.9243C163.269 58.4539 163.384 60.0021 163.4 61.5318C163.336 62.9446 163.175 64.3388 162.718 65.6773C162.564 65.9535 162.607 66.2668 162.397 66.8378C162.962 66.5376 163.393 66.4154 163.725 66.2746C164.739 65.7539 165.753 65.2333 166.768 64.7126C167.216 64.4921 167.763 64.2902 168.292 64.1866C168.722 64.0643 169.232 64.0589 169.551 64.5263C169.79 64.8768 169.58 65.4478 168.996 65.8462C166.795 67.262 164.612 68.5795 162.411 69.9953C161.845 70.2955 161.181 70.5771 160.554 70.6622C159.83 70.7287 159.362 71.0474 158.937 71.6795C158.106 72.8455 157.374 74.03 156.641 75.2145C155.465 77.1294 154.27 79.1425 153.014 80.9405C151.371 83.1742 150.378 85.7343 149.582 88.3316C149.274 88.884 149.242 89.5904 148.326 90.1297Z" fill="#277D2A"/>
<path d="M159.474 40.8427C159.118 40.5718 158.725 40.4976 158.566 40.2639C157.787 38.9973 157.009 37.7307 156.329 36.4827C156.17 36.249 156.244 35.856 156.201 35.5426C156.276 35.1496 156.823 34.9477 157.099 35.1017C157.197 35.1202 157.375 35.2556 157.455 35.3725C158.392 36.8727 159.232 38.3544 159.623 40.0566C159.702 40.1734 159.548 40.4496 159.474 40.8427Z" fill="#277D2A"/>
<path d="M147.857 58.6955C149.115 59.0352 150.159 59.436 150.914 60.291C150.993 60.4078 151.036 60.7212 151.017 60.8194C150.98 61.016 150.648 61.1567 150.55 61.1382C149.488 60.8356 148.524 60.5516 147.48 60.1508C147.204 59.9968 146.965 59.6463 147.235 59.2904C147.291 58.9956 147.623 58.8548 147.857 58.6955Z" fill="#277D2A"/>
<path d="M171.231 54.5648C171.236 55.0747 171.279 55.388 171.143 55.566C170.78 56.4132 170.06 56.9896 169.242 57.5474C168.892 57.7864 168.499 57.7121 168.161 57.3431C167.824 56.974 167.8 56.5624 168.15 56.3233C168.926 55.4522 169.86 54.8147 171.231 54.5648Z" fill="#277D2A"/>
<path d="M162.982 40.5898C162.823 40.3561 162.565 40.1039 162.602 39.9073C162.61 38.7893 162.796 37.8067 163.374 36.8984C163.393 36.8002 163.491 36.8187 163.51 36.7205C163.725 36.6594 163.94 36.5983 164.038 36.6168C164.235 36.654 164.394 36.8876 164.474 37.0045C164.535 37.2196 164.577 37.5329 164.423 37.8091C164.139 38.7732 164.132 39.8912 162.982 40.5898Z" fill="#277D2A"/>
<path d="M164.351 79.1143C163.631 79.6907 163.164 80.0094 162.58 80.4079C162.463 80.4876 162.168 80.4318 162.089 80.315C162.009 80.1982 161.85 79.9645 161.887 79.768C161.924 79.5715 161.961 79.375 162.096 79.197C162.601 78.6817 163.013 78.6578 164.351 79.1143Z" fill="#277D2A"/>
<path d="M29.6044 4.28571C31.1365 2.64164 33.128 1.79684 35.4623 1.83098C37.0902 1.83337 38.7606 2.14911 40.277 2.74106C43.5861 4.07894 46.3722 6.03035 48.4626 8.96975C48.861 9.55392 49.1798 10.0213 49.5968 10.5072C51.8837 13.4837 54.5398 16.1229 57.6206 18.1301C59.6948 19.5398 61.6708 20.9311 63.4743 22.6967C67.2405 26.4618 69.857 30.9254 71.7911 35.7689C73.7862 40.8275 74.7245 46.0933 75.1344 51.4629C75.6215 58.5772 75.5005 65.6782 74.7528 72.8644C74.5407 75.0633 74.31 77.3604 74.0979 79.5593C73.8541 82.4645 74.237 85.2847 75.3448 88.0384C75.6264 88.7022 75.908 89.3661 76.0913 90.0114C76.2136 90.4416 76.2375 90.8532 76.2615 91.2648C76.2298 91.9712 75.3508 92.3139 74.7984 92.0059C74.4425 91.7351 74.1849 91.4829 73.9458 91.1324C73.0507 89.9455 72.1741 88.6603 71.1622 87.5531C69.9908 86.2122 68.8381 84.7731 67.4331 83.5915C66.5433 82.9145 66.0041 81.9984 65.7968 80.9415C65.4061 79.2394 64.3145 78.0153 62.7184 77.3065C60.0174 75.9818 57.3164 74.6571 54.6155 73.3324C51.2453 71.7794 47.8751 70.2265 44.5049 68.6735C42.2581 67.6382 40.0113 66.6029 37.937 65.1931C32.4075 61.6036 28.2374 56.7446 25.8384 50.5919C24.5287 47.2912 23.8456 43.9055 23.3777 40.4586C22.5083 34.2898 22.6586 28.1102 23.0055 21.9677C23.2757 17.8462 24.5099 14.0087 25.9035 10.4048C26.8592 8.04116 28.0539 6.02803 29.6044 4.28571ZM70.6582 75.1436C71.125 71.0592 71.6714 67.0916 71.7265 63.0312C71.8636 57.4598 71.6875 51.9308 71.0997 46.4259C70.6952 41.5662 69.6455 36.8899 67.6372 32.4394C65.8493 28.4377 63.4958 24.7362 60.1706 21.8687C59.2994 21.0934 58.3114 20.3978 57.4217 19.7208C54.6171 17.8676 52.1018 15.5603 49.6663 13.3699C48.6172 12.4592 47.7221 11.2723 46.9252 10.1039C44.7365 7.14597 41.815 5.37251 38.4502 4.32941C38.1555 4.27369 37.7624 4.1994 37.3694 4.1251C34.4216 3.56791 32.0981 4.55351 30.4786 7.19875C29.3025 9.11363 28.5008 11.2011 27.9754 13.4425C27.0491 16.7276 26.6142 20.1056 26.6705 23.5764C26.791 29.4001 27.0282 35.1441 27.8737 40.9013C28.2991 44.0349 28.9581 47.009 30.0288 49.9592C32.0108 55.6259 35.5117 60.2567 40.3348 63.8144C42.3905 65.3225 44.6984 66.5729 47.0249 67.725C51.322 69.7585 55.5208 71.7734 59.6825 73.9849C61.1618 74.7733 62.5242 75.6415 63.8681 76.6079C65.1323 77.4575 66.0274 78.6444 66.357 80.1315C66.644 81.3052 67.2815 82.2399 68.2509 83.0337C68.9627 83.5754 69.6559 84.2153 70.3491 84.8551C69.9609 81.5251 70.3587 78.3436 70.6582 75.1436Z" fill="#277D2A"/>
<path d="M61.4287 35.1332C60.7648 35.4148 60.5551 35.9858 60.2286 36.6365C59.557 38.0361 58.8853 39.4357 58.3119 40.8539C58.158 41.1301 58.004 41.4063 57.85 41.6825C57.3401 41.6879 57.2976 41.3746 57.1382 41.1409C55.8099 37.9385 53.8974 35.1345 51.6344 32.5695C48.7765 29.3833 46.269 25.958 43.9953 22.3733C42.8185 20.5225 41.5064 18.8497 40.2128 17.0787C39.8755 16.7096 39.5568 16.2422 38.8318 16.3088C38.9726 16.6407 39.1134 16.9726 39.2542 17.3045C40.8719 20.0528 42.5082 22.7028 44.2242 25.4697C45.7196 27.7878 47.2337 30.0076 48.7477 32.2274C49.943 33.9799 51.218 35.8493 52.0443 37.9391C52.2462 38.4861 52.4481 39.0331 52.7111 39.7952C52.2198 39.7024 52.0047 39.7635 51.7285 39.6095C48.7939 38.4442 45.8593 37.2788 42.8264 36.0949C42.2554 35.8852 41.8012 35.5959 41.3285 35.4047C40.9594 35.7421 41.1002 36.074 41.2782 36.2094C41.6155 36.5785 42.0697 36.8678 42.5238 37.1572C45.74 38.9864 49.012 40.5208 52.5733 41.6011C52.7698 41.6382 53.046 41.7922 53.3408 41.8479C54.1778 44.9575 54.3882 48.1521 54.3648 51.5061C52.8112 51.1107 51.4542 50.7524 50.0971 50.3941C47.5795 49.7147 45.0619 49.0353 42.6425 48.3744C42.1512 48.2816 41.7582 48.2073 41.2483 48.2127C40.9535 48.157 40.6455 48.7094 40.8846 49.0599C41.1237 49.4104 41.3813 49.6626 41.7372 49.9334C42.2896 50.2414 42.7623 50.4325 43.3333 50.6422C46.8761 51.8207 50.302 53.0789 54.073 53.5882C54.1713 53.6067 54.251 53.7236 54.4475 53.7607C54.5697 54.1909 54.5751 54.7008 54.6788 55.2292C55.6812 62.848 59.161 69.2049 64.8236 74.2443C65.2592 74.6319 65.6151 74.9028 66.0692 75.1921C67.1741 75.8081 68.3238 75.1095 68.1536 73.856C68.0686 73.2293 67.8852 72.584 67.5851 72.0185C67.1441 71.1209 66.488 70.2845 66.0285 69.4853C64.95 67.6531 63.7547 65.9006 62.6762 64.0684C61.0771 61.2219 60.1418 58.0937 59.735 54.8619C59.5834 53.5103 59.4504 52.0603 59.3173 50.6104C59.1232 48.9454 58.9105 47.3786 58.6181 45.695C58.4534 44.9515 58.5648 44.3619 58.8913 43.7112C59.6984 42.1337 60.4072 40.5375 61.1159 38.9414C61.3999 37.9774 61.5671 37.093 61.7342 36.2087C61.8882 35.9325 61.8085 35.8157 61.4287 35.1332Z" fill="#277D2A"/>
<path d="M34.2129 24.595C34.1757 24.7915 34.12 25.0863 34.298 25.2217C34.4388 25.5536 34.6964 25.8058 34.9726 25.9598C35.8809 26.5386 36.6724 27.197 37.5993 27.6776C38.0534 27.9669 38.5633 27.9615 39.0732 27.9562C39.1714 27.9747 39.4237 27.7171 39.5591 27.5391C39.5776 27.4409 39.5165 27.2258 39.4368 27.109C39.3757 26.8939 39.1978 26.7585 39.0995 26.7399C37.6016 26.0497 36.1224 25.2612 34.7227 24.5896C34.5262 24.5524 34.4094 24.6321 34.2129 24.595Z" fill="#277D2A"/>
<path d="M35.4262 42.9396C36.1937 43.1864 36.863 43.4147 37.5322 43.643C37.827 43.6987 38.2386 43.6747 38.5706 43.5339C38.7856 43.4728 38.8785 42.9815 38.7191 42.7478C38.6395 42.631 38.4615 42.4956 38.265 42.4585C37.0248 42.0205 35.6677 41.6622 34.4275 41.2242C34.3292 41.2057 34.3292 41.2057 34.2309 41.1871C34.0158 41.2482 33.7822 41.4076 33.745 41.6041C33.7079 41.8006 33.8673 42.0343 33.9469 42.1511C34.2046 42.4034 34.5976 42.4776 34.8738 42.6316C35.1315 42.8839 35.328 42.921 35.4262 42.9396Z" fill="#277D2A"/>
<path d="M64.4197 52.6942C64.8499 52.5719 65.2429 52.6462 65.4951 52.3886C66.5466 51.6714 67.4202 50.8188 68.0175 49.8122C68.0361 49.714 68.1529 49.6343 68.0733 49.5175C68.0121 49.3024 68.0307 49.2041 67.8528 49.0687C67.7731 48.9519 67.558 49.013 67.3615 48.9758C67.2446 49.0555 67.0295 49.1166 66.9924 49.3132C66.2171 50.1843 65.4232 51.1537 64.5311 52.1046C64.6108 52.2214 64.5737 52.4179 64.4197 52.6942Z" fill="#277D2A"/>
</g>
<defs>
<clipPath id="clip0">
<rect width="218.5" height="140.4" fill="white" transform="translate(26.8525) rotate(10.7038)"/>
</clipPath>
</defs>
</svg>
