<svg width="166" height="28" viewBox="0 0 166 28" fill="none" xmlns="http://www.w3.org/2000/svg">
<path d="M13.6619 0L16.7292 9.44017H26.6552L18.6249 15.2745L21.6922 24.7147L13.6619 18.8803L5.63166 24.7147L8.69895 15.2745L0.668663 9.44017H10.5946L13.6619 0Z" fill="#D7DB1F"/>
<path d="M48.3309 0L51.3982 9.44017H61.3242L53.2939 15.2745L56.3612 24.7147L48.3309 18.8803L40.3006 24.7147L43.3679 15.2745L35.3376 9.44017H45.2636L48.3309 0Z" fill="#D7DB1F"/>
<path d="M82.9998 0L86.0671 9.44017H95.9931L87.9628 15.2745L91.0301 24.7147L82.9998 18.8803L74.9695 24.7147L78.0368 15.2745L70.0066 9.44017H79.9325L82.9998 0Z" fill="#D7DB1F"/>
<path d="M117.669 0L120.736 9.44017H130.662L122.632 15.2745L125.699 24.7147L117.669 18.8803L109.638 24.7147L112.706 15.2745L104.675 9.44017H114.601L117.669 0Z" fill="#D7DB1F"/>
<path d="M152.338 0L155.405 9.44017H165.331L157.301 15.2745L160.368 24.7147L152.338 18.8803L144.307 24.7147L147.375 15.2745L139.344 9.44017H149.27L152.338 0Z" fill="#D7DB1F"/>
</svg>
