<svg width="31" height="26" viewBox="0 0 31 26" fill="none" xmlns="http://www.w3.org/2000/svg">
<path d="M30.8554 3.68975C29.8461 4.11348 28.7647 4.39596 27.7554 4.5372C28.2601 4.46658 28.981 3.5485 29.2694 3.1954C29.7019 2.70105 30.1345 2.06545 30.2787 1.42986C30.2787 1.35924 30.3507 1.28862 30.2787 1.28862C30.2066 1.28862 30.1345 1.28862 30.1345 1.28862C28.981 1.92421 27.7554 2.34794 26.3856 2.70105C26.3135 2.70105 26.1694 2.70105 26.0973 2.63042C25.9531 2.48918 25.881 2.41856 25.7368 2.27732C25.1601 1.85359 24.5833 1.42986 23.9345 1.218C23.0694 0.864888 22.1321 0.723645 21.1949 0.794267C20.2577 0.864888 19.3926 1.07675 18.5996 1.50048C17.8066 1.92421 17.0856 2.48918 16.5089 3.1954C15.9321 3.90161 15.4996 4.74907 15.2833 5.66715C15.067 6.51461 15.067 7.43268 15.2112 8.28014C15.2112 8.42139 15.2112 8.42138 15.067 8.42138C10.0205 7.64455 5.76703 5.87901 2.30657 1.99483C2.16238 1.85359 2.09029 1.85359 1.9461 2.06545C0.432147 4.25472 1.22517 7.78579 3.09959 9.55133C3.31587 9.76319 3.60424 10.0457 3.89261 10.2575C3.82052 10.2575 2.52284 10.1163 1.44145 9.55133C1.29726 9.48071 1.22517 9.48071 1.22517 9.69257C1.22517 9.90444 1.22517 10.1163 1.29726 10.3988C1.58563 12.6587 3.17168 14.7067 5.33447 15.4835C5.47866 15.5542 5.76703 15.6954 6.0554 15.6954C5.55075 15.8366 5.0461 15.9073 3.60424 15.8366C3.46005 15.8366 3.38796 15.9073 3.46005 16.0485C4.54145 18.8734 6.84843 19.7208 8.50657 20.2152C8.72284 20.2858 8.93912 20.2858 9.2275 20.2858C9.2275 20.2858 9.2275 20.2858 9.1554 20.3564C8.65075 21.2039 6.63215 21.7688 5.69494 22.1219C4.0368 22.6869 2.16238 22.9694 0.432147 22.7575C0.143775 22.6869 0.0716815 22.6869 -0.000411529 22.7575C-0.0725046 22.8282 -0.000411527 22.8988 0.0716815 22.9694C0.432147 23.1813 0.792612 23.3931 1.15308 23.605C2.30657 24.17 3.46005 24.6643 4.68564 25.0174C11.0298 26.7123 18.167 25.4412 22.8531 20.8508C26.6019 17.2491 27.8996 12.2349 27.8996 7.22082C27.8996 7.00896 28.1159 6.93833 28.2601 6.79709C29.1973 6.09088 29.9903 5.24342 30.7112 4.25472C30.9996 4.04285 30.9996 3.83099 30.9996 3.76037C30.9996 3.61913 30.9996 3.68975 30.8554 3.68975Z" fill="white"/>
</svg>
